<svg width="210" height="192" viewBox="0 0 210 192" fill="none" xmlns="http://www.w3.org/2000/svg">
<g clip-path="url(#clip0_35_594)">
<path d="M165.572 176.133C165.572 173.438 167.95 171.277 166.894 168.452C165.965 165.968 163.047 166.135 161.616 167.932C160.727 169.08 160.321 170.564 159.898 171.935C159.419 173.496 159.006 175.094 158.668 176.691C157.968 179.912 157.486 183.169 157.016 186.438C156.957 186.844 157.3 187.169 157.702 187.09C163.014 186.015 168.575 184.837 172.686 181.141C173.639 180.297 174.459 179.328 175.136 178.271C175.717 177.342 176.281 176.299 176.08 175.136C175.756 173.178 173.779 171.931 171.915 171.885C168.923 171.812 166.727 174.098 164.368 175.499C163.775 175.859 164.346 176.79 164.939 176.43C167.174 175.081 169.561 172.515 172.494 172.993C173.603 173.173 174.701 173.973 174.99 175.121C175.354 176.535 173.942 178.181 173.108 179.138C169.195 183.629 163.018 184.901 157.367 186.042L158.053 186.694C158.818 181.423 159.607 176.126 161.294 171.099C161.721 169.83 162.213 168.281 163.558 167.737C165.015 167.154 165.954 168.385 166.049 169.738C166.208 172.002 164.462 173.841 164.469 176.106C164.461 176.802 165.549 176.792 165.558 176.095L165.572 176.133Z" fill="#E9544C"/>
</g>
<g clip-path="url(#clip1_35_594)">
<path d="M209.766 7.37944C209.265 5.15241 207.909 3.15533 206.085 1.80123C203.339 -0.242701 199.318 -0.634454 196.284 1.07733C193.499 2.6486 191.608 5.61655 191.115 8.75057C191.098 8.84425 191.085 8.94219 191.072 9.03587C190.826 10.9435 191.17 12.9193 192.182 14.5672C193.104 16.0661 194.503 17.2499 196.096 17.9823C199.378 19.494 203.548 19.4216 206.451 17.1222C209.299 14.8696 210.548 10.8924 209.762 7.3837L209.766 7.37944ZM206.464 15.3252C202.158 19.9496 192.743 17.3649 192.33 10.7264C192.177 8.20979 193.176 5.64636 194.851 3.78554C197.452 0.902749 201.656 0.344928 204.899 2.53789C206.362 3.52579 207.556 4.96931 208.181 6.63426C209.269 9.54685 208.585 13.0471 206.464 15.3252Z" fill="#C458F0"/>
<path d="M195.421 1.75439C194.906 2.55067 194.281 3.35546 194.192 4.33059C194.116 5.17371 194.532 5.9785 195.127 6.5491C196.496 7.85636 198.507 8.06927 200.147 8.87406C200.9 9.24453 201.592 9.74699 202.035 10.4709C202.464 11.1777 202.498 11.9059 202.217 12.6766C201.682 14.15 200.33 15.0442 198.893 15.4998C197.431 15.9639 195.676 16.1896 194.281 15.3976C193.805 15.1293 193.363 15.7425 193.712 16.1343C194.796 17.3521 196.743 17.2116 198.188 16.9178C199.769 16.5941 201.371 15.9086 202.417 14.6354C203.59 13.2004 204.041 11.2714 202.919 9.66609C201.733 7.97133 199.769 7.45183 197.928 6.77904C197.057 6.45968 196.016 6.04663 195.518 5.20351C194.919 4.19007 195.82 3.13404 196.339 2.29092C196.7 1.70329 195.786 1.17527 195.416 1.75013L195.421 1.75439Z" fill="#C458F0"/>
</g>
<g clip-path="url(#clip2_35_594)">
<path d="M42.3334 157.356C41.4327 169.946 35.1277 157.506 32.876 149.711C37.5297 148.362 46.5668 146.834 45.4859 151.51C44.1348 157.356 43.2341 154.658 42.3334 157.356Z" fill="#FFD28B"/>
<path d="M71.6064 157.356C70.7057 169.946 64.4007 157.506 62.1489 149.711C66.8026 148.362 75.8397 146.834 74.7589 151.51C73.4078 157.356 72.5071 154.658 71.6064 157.356Z" fill="#FFD28B"/>
<path d="M87.8193 156.019C86.9186 168.61 81.9647 155.707 79.7129 147.913C84.3666 146.564 91.8725 134.423 90.071 148.362C89.3021 154.312 88.72 153.321 87.8193 156.019Z" fill="#FFD28B"/>
<path d="M103.588 122.713C99.959 135.199 89.0508 151.781 69.6003 156.615C46.8456 162.271 29.208 147.675 27.5034 146.213C23.4899 147.704 15.3103 150.068 5.87444 147.755C-8.28406 144.285 -24.5033 130.476 -22.3186 112.698C-20.3086 96.3261 -3.46915 82.9582 15.9176 85.3437C15.9049 82.5998 16.2134 56.3017 37.9314 40.6561C56.838 27.0343 81.6471 28.9187 98.5692 39.5014C111.046 47.3019 117.009 58.4461 119.425 63.7723C120.602 65.1871 129.38 76.1093 126.378 90.7398C122.813 108.117 105.998 114.322 105.136 114.627C104.936 116.708 104.523 119.515 103.591 122.716L103.588 122.713Z" fill="#FFD38B"/>
<path d="M44.8834 56.4318C45.6912 56.4318 46.3654 55.8005 46.4068 54.9852C46.4068 54.9471 46.6039 51.1531 47.2623 47.2386C48.458 40.0978 50.0195 39.3999 50.0863 39.3713C50.1308 39.3523 50.2167 39.3206 50.4393 39.4221C52.3411 40.3008 54.9425 45.9093 56.1828 49.6114C56.4499 50.4076 57.315 50.8391 58.1133 50.5726C58.9115 50.3062 59.344 49.4433 59.0769 48.647C58.5108 46.9499 55.4927 38.4038 51.7241 36.659C50.7955 36.2308 49.8382 36.1895 48.9509 36.5417C47.5707 37.0905 45.5831 38.7496 44.2473 46.7596C43.5636 50.8454 43.3664 54.6711 43.36 54.8298C43.3187 55.6704 43.9675 56.3842 44.807 56.4255C44.8325 56.4255 44.8579 56.4255 44.8834 56.4255V56.4318Z" fill="#261A08"/>
<path d="M110.928 53.3514C111.643 53.3514 112.282 52.8471 112.426 52.1206C112.454 51.9746 113.122 48.5169 113.367 44.8529C113.749 39.1238 112.883 36.107 110.639 35.3615C108.505 34.6509 106.141 35.9294 103.419 39.2634C101.667 41.4079 100.382 43.6666 100.328 43.7617C99.9148 44.4945 100.172 45.4239 100.906 45.8364C101.641 46.2487 102.57 45.9918 102.987 45.259C103 45.2368 104.214 43.105 105.807 41.1572C107.938 38.556 109.239 38.1024 109.671 38.2483C109.671 38.2483 110.734 39.1111 110.298 44.9767C110.051 48.3266 109.436 51.5052 109.43 51.5369C109.268 52.3617 109.808 53.1611 110.639 53.3229C110.737 53.3419 110.836 53.3514 110.931 53.3514H110.928Z" fill="#261A08"/>
<path d="M74.6222 71.4587C75.0706 71.4587 75.5127 71.2621 75.8148 70.8877C76.3427 70.2311 76.2346 69.2731 75.5762 68.7464C73.8621 67.3793 71.2892 66.9382 71.0031 66.8907C70.1698 66.7575 69.3875 67.3222 69.2539 68.1532C69.1203 68.9813 69.6864 69.7616 70.5164 69.898C71.0825 69.99 72.749 70.3897 73.6681 71.1257C73.9511 71.3509 74.2851 71.4587 74.6222 71.4587Z" fill="#261A08"/>
<path d="M96.9983 68.8606C97.5774 68.8606 98.1278 68.5308 98.3854 67.9756C98.7826 67.1159 99.8067 66.345 100.166 66.1198C100.879 65.6757 101.101 64.7368 100.656 64.0261C100.21 63.3155 99.2789 63.0904 98.5601 63.5281C98.3466 63.6582 96.4642 64.851 95.6085 66.7003C95.2554 67.4649 95.5896 68.369 96.3561 68.7211C96.5623 68.8163 96.7785 68.8606 96.9956 68.8606H96.9983Z" fill="#261A08"/>
<path d="M95.0932 78.7963C95.7327 80.7948 93.7701 83.1962 91.6174 83.8053C88.8664 84.5793 85.4985 82.511 85.4381 80.338C85.384 78.441 87.8551 76.7312 90.0717 76.4868C91.8335 76.2902 94.4861 76.9024 95.0932 78.7994V78.7963Z" fill="#261A08"/>
<path d="M84.6653 90.3528C85.3491 95.5331 88.2908 99.2066 91.6175 99.6C93.4045 99.8093 94.7943 99.0099 95.0933 98.8291C97.9873 97.078 99.1897 92.5797 97.7963 87.6564C95.6085 86.5017 93.4207 85.3438 91.2293 84.1891C89.0414 86.2448 86.8533 88.2972 84.6621 90.3528H84.6653Z" fill="#FF5CAE"/>
<path d="M80.6135 92.5037C82.2895 92.5037 84.1499 92.2054 86.0581 91.3585C88.8281 90.1276 90.6437 88.1926 91.7633 86.5873C93.344 88.2242 95.4877 89.1791 97.7548 89.1791C97.771 89.1791 97.7872 89.1791 97.8025 89.1791C101.155 89.1569 103.353 87.022 103.947 86.3653C104.513 85.7404 104.465 84.7791 103.839 84.2145C103.212 83.6499 102.248 83.7006 101.683 84.3224C101.301 84.7443 99.8922 86.121 97.7836 86.1337C95.7994 86.1528 93.9583 84.9822 92.9657 83.0947C92.6955 82.5807 92.1515 82.2635 91.5723 82.2794C90.9905 82.2953 90.469 82.6378 90.2276 83.1676C89.7059 84.3033 88.1349 87.0981 84.8147 88.5764C80.3241 90.5749 76.1166 88.6366 75.3216 88.2274C74.5711 87.8436 73.652 88.1386 73.2671 88.884C72.8824 89.6327 73.1781 90.5495 73.9255 90.9333C74.606 91.2823 77.2266 92.5004 80.6167 92.5004L80.6135 92.5037Z" fill="#261A08"/>
<path d="M59.5604 120.772C60.3332 120.772 60.9978 120.188 61.0774 119.404C61.1632 118.567 60.5526 117.821 59.7131 117.736C43.1916 116.058 30.7155 109.916 23.6331 99.971C18.287 92.4655 17.8291 85.3343 17.8259 85.2645C17.7782 84.4269 17.0658 83.7862 16.2199 83.8274C15.3803 83.8718 14.7347 84.5856 14.776 85.4263C14.792 85.7466 15.2531 93.3759 21.038 101.586C24.4217 106.385 28.9346 110.392 34.4523 113.491C41.2835 117.33 49.6793 119.776 59.4013 120.765C59.4522 120.772 59.5064 120.775 59.5572 120.775L59.5604 120.772Z" fill="white"/>
<path d="M27.5034 147.739C27.8564 147.739 28.2095 147.619 28.4989 147.371C29.1381 146.822 29.2113 145.861 28.661 145.224C22.997 138.651 20.4529 132.036 21.1015 125.562C22.0684 115.915 29.9077 109.726 29.9841 109.662C30.6487 109.145 30.7696 108.19 30.2544 107.528C29.7392 106.864 28.7819 106.741 28.114 107.255C27.7483 107.537 19.1807 114.265 18.0644 125.223C17.3171 132.569 20.103 139.964 26.3427 147.206C26.6448 147.555 27.0709 147.736 27.5003 147.736L27.5034 147.739Z" fill="white"/>
<path d="M32.876 149.711C33.6265 154.358 36.2987 163.471 40.9824 162.752C43.6845 162.302 41.8831 158.255 42.7838 156.906C43.6845 155.557 50.4398 146.114 45.9363 138.919" stroke="#261A08" stroke-width="2" stroke-linecap="round" stroke-linejoin="round"/>
<path d="M63.9504 152.409C66.2022 161.852 71.3363 174.173 73.8582 147.913M81.5143 152.409C83.1655 160.953 87.3689 171.115 90.9717 143.416" stroke="#261A08" stroke-width="2" stroke-linecap="round" stroke-linejoin="round"/>
<path d="M92.3866 95.7298C92.428 95.7298 92.473 95.7298 92.5145 95.7234C93.3539 95.6536 93.9772 94.9177 93.907 94.0802C93.5224 89.4645 92.746 84.0304 92.7397 83.9766C92.619 83.1454 91.8498 82.5649 91.013 82.6854C90.1798 82.8059 89.5979 83.5768 89.7188 84.408C89.7251 84.4618 90.4888 89.8135 90.8671 94.3371C90.9337 95.1334 91.6012 95.7329 92.3866 95.7329V95.7298Z" fill="#261A08"/>
<path d="M49.7417 38.1946C46.3416 38.1946 45.0354 54.8322 45.0354 55.7315C49.3588 56.8107 55.5437 52.5838 58.0957 50.3355C56.4444 46.2885 52.4617 38.1946 49.7417 38.1946Z" fill="#261A08" stroke="#261A08"/>
<path d="M109.436 36.8456C107.635 36.3637 102.831 42.0408 100.879 44.9396C103.582 48.2371 109.706 54.3825 110.787 52.5839C112.138 50.3355 111.688 37.4481 109.436 36.8456Z" fill="#261A08" stroke="#261A08"/>
</g>
<defs>
<clipPath id="clip0_35_594">
<rect width="17.1961" height="22.2912" fill="white" transform="translate(165.35 164) rotate(43.5204)"/>
</clipPath>
<clipPath id="clip1_35_594">
<rect width="19" height="19" fill="white" transform="translate(191)"/>
</clipPath>
<clipPath id="clip2_35_594">
<rect width="127" height="134" fill="white" transform="translate(0 31)"/>
</clipPath>
</defs>
</svg>
