<svg width="127" height="237" viewBox="0 0 127 237" fill="none" xmlns="http://www.w3.org/2000/svg">
<g clip-path="url(#clip0_35_686)">
<path d="M74.7663 7.37944C74.2647 5.15241 72.9088 3.15533 71.0853 1.80123C68.3394 -0.242701 64.3184 -0.634454 61.2835 1.07733C58.4994 2.6486 56.6079 5.61655 56.1148 8.75057C56.0978 8.84425 56.0851 8.94219 56.0723 9.03587C55.8258 10.9435 56.1701 12.9193 57.1817 14.5672C58.1041 16.0661 59.5025 17.2499 61.0965 17.9823C64.3779 19.494 68.5477 19.4216 71.4508 17.1222C74.2987 14.8696 75.5484 10.8924 74.762 7.3837L74.7663 7.37944ZM71.4636 15.3252C67.1578 19.9496 57.7428 17.3649 57.3305 10.7264C57.1775 8.20979 58.1763 5.64636 59.8511 3.78554C62.4524 0.902749 66.6562 0.344928 69.8994 2.53789C71.3616 3.52579 72.556 4.96931 73.1808 6.63426C74.269 9.54685 73.5846 13.0471 71.4636 15.3252Z" fill="#87529D"/>
<path d="M60.4206 1.75426C59.9063 2.55054 59.2815 3.35534 59.1922 4.33046C59.1157 5.17358 59.5323 5.97838 60.1273 6.54898C61.496 7.85624 63.5065 8.06915 65.1473 8.87394C65.8996 9.2444 66.5924 9.74687 67.0345 10.4708C67.4638 11.1776 67.4978 11.9058 67.2173 12.6765C66.6817 14.1498 65.33 15.044 63.8933 15.4997C62.4311 15.9638 60.6757 16.1895 59.2815 15.3975C58.8054 15.1292 58.3634 15.7424 58.7119 16.1341C59.7958 17.352 61.7426 17.2115 63.1877 16.9176C64.769 16.594 66.3714 15.9085 67.4171 14.6353C68.5902 13.2003 69.0408 11.2713 67.9186 9.66596C66.7327 7.97121 64.769 7.45171 62.9285 6.77892C62.0571 6.45955 61.0157 6.04651 60.5184 5.20339C59.9191 4.18994 60.8202 3.13392 61.3388 2.2908C61.7001 1.70317 60.7862 1.17515 60.4164 1.75001L60.4206 1.75426Z" fill="#87529D"/>
</g>
<g clip-path="url(#clip1_35_686)">
<path d="M42.3334 183.356C41.4327 195.946 35.1277 183.506 32.876 175.711C37.5297 174.362 46.5668 172.834 45.4859 177.51C44.1348 183.356 43.2341 180.658 42.3334 183.356Z" fill="#FFC05A"/>
<path d="M71.6064 183.356C70.7057 195.946 64.4007 183.506 62.1489 175.711C66.8026 174.362 75.8397 172.834 74.7589 177.51C73.4078 183.356 72.5071 180.658 71.6064 183.356Z" fill="#FFC05A"/>
<path d="M87.8193 182.019C86.9186 194.61 81.9647 181.707 79.7129 173.913C84.3666 172.564 91.8725 160.423 90.071 174.362C89.3021 180.312 88.72 179.321 87.8193 182.019Z" fill="#FFC05A"/>
<path d="M103.588 148.713C99.959 161.199 89.0508 177.781 69.6003 182.615C46.8456 188.271 29.208 173.675 27.5034 172.213C23.4899 173.704 15.3103 176.068 5.87444 173.755C-8.28406 170.285 -24.5033 156.476 -22.3186 138.698C-20.3086 122.326 -3.46915 108.958 15.9176 111.344C15.9049 108.6 16.2134 82.3017 37.9314 66.6561C56.838 53.0343 81.6471 54.9187 98.5692 65.5014C111.046 73.3019 117.009 84.4461 119.425 89.7723C120.602 91.1871 129.38 102.109 126.378 116.74C122.813 134.117 105.998 140.322 105.136 140.627C104.936 142.708 104.523 145.515 103.591 148.716L103.588 148.713Z" fill="#FFD38B"/>
<path d="M44.8834 82.4318C45.6912 82.4318 46.3654 81.8005 46.4068 80.9852C46.4068 80.9471 46.6039 77.1531 47.2623 73.2386C48.458 66.0978 50.0195 65.3999 50.0863 65.3713C50.1308 65.3523 50.2167 65.3206 50.4393 65.4221C52.3411 66.3008 54.9425 71.9093 56.1828 75.6114C56.4499 76.4076 57.315 76.8391 58.1133 76.5726C58.9115 76.3062 59.344 75.4433 59.0769 74.647C58.5108 72.9499 55.4927 64.4038 51.7241 62.659C50.7955 62.2308 49.8382 62.1895 48.9509 62.5417C47.5707 63.0905 45.5831 64.7496 44.2473 72.7596C43.5636 76.8454 43.3664 80.6711 43.36 80.8298C43.3187 81.6704 43.9675 82.3842 44.807 82.4255C44.8325 82.4255 44.8579 82.4255 44.8834 82.4255V82.4318Z" fill="#261A08"/>
<path d="M110.928 79.3515C111.643 79.3515 112.282 78.8472 112.426 78.1207C112.454 77.9748 113.122 74.517 113.367 70.8531C113.749 65.124 112.883 62.1071 110.639 61.3616C108.505 60.6511 106.141 61.9295 103.419 65.2635C101.667 67.408 100.382 69.6667 100.328 69.7618C99.9148 70.4946 100.172 71.4241 100.906 71.8365C101.641 72.2488 102.57 71.9919 102.987 71.2591C103 71.2369 104.214 69.1051 105.807 67.1574C107.938 64.5561 109.239 64.1025 109.671 64.2484C109.671 64.2484 110.734 65.1113 110.298 70.9768C110.051 74.3267 109.436 77.5053 109.43 77.5371C109.268 78.3618 109.808 79.1612 110.639 79.323C110.737 79.342 110.836 79.3515 110.931 79.3515H110.928Z" fill="#261A08"/>
<path d="M74.6222 97.4588C75.0706 97.4588 75.5127 97.2623 75.8148 96.8879C76.3427 96.2313 76.2346 95.2732 75.5762 94.7466C73.8621 93.3794 71.2892 92.9384 71.0031 92.8908C70.1698 92.7576 69.3875 93.3223 69.2539 94.1534C69.1203 94.9814 69.6864 95.7617 70.5164 95.8982C71.0825 95.9902 72.749 96.3898 73.6681 97.1258C73.9511 97.351 74.2851 97.4588 74.6222 97.4588Z" fill="#261A08"/>
<path d="M96.9983 94.8606C97.5774 94.8606 98.1278 94.5308 98.3854 93.9756C98.7826 93.1159 99.8067 92.345 100.166 92.1198C100.879 91.6757 101.101 90.7368 100.656 90.0261C100.21 89.3155 99.2789 89.0904 98.5601 89.5281C98.3466 89.6582 96.4642 90.851 95.6085 92.7003C95.2554 93.4649 95.5896 94.369 96.3561 94.7211C96.5623 94.8163 96.7785 94.8606 96.9956 94.8606H96.9983Z" fill="#261A08"/>
<path d="M95.0932 104.796C95.7327 106.795 93.7701 109.196 91.6174 109.805C88.8664 110.579 85.4985 108.511 85.4381 106.338C85.384 104.441 87.8551 102.731 90.0717 102.487C91.8335 102.29 94.4861 102.902 95.0932 104.799V104.796Z" fill="#261A08"/>
<path d="M84.6653 116.353C85.3491 121.533 88.2908 125.207 91.6175 125.6C93.4045 125.809 94.7943 125.01 95.0933 124.829C97.9873 123.078 99.1897 118.58 97.7963 113.656C95.6085 112.502 93.4207 111.344 91.2293 110.189C89.0414 112.245 86.8533 114.297 84.6621 116.353H84.6653Z" fill="#FF5CAE"/>
<path d="M80.6135 118.504C82.2895 118.504 84.1499 118.205 86.0581 117.358C88.8281 116.128 90.6437 114.193 91.7633 112.587C93.344 114.224 95.4877 115.179 97.7548 115.179C97.771 115.179 97.7872 115.179 97.8025 115.179C101.155 115.157 103.353 113.022 103.947 112.365C104.513 111.74 104.465 110.779 103.839 110.214C103.212 109.65 102.248 109.701 101.683 110.322C101.301 110.744 99.8922 112.121 97.7836 112.134C95.7994 112.153 93.9583 110.982 92.9657 109.095C92.6955 108.581 92.1515 108.264 91.5723 108.279C90.9905 108.295 90.469 108.638 90.2276 109.168C89.7059 110.303 88.1349 113.098 84.8147 114.576C80.3241 116.575 76.1166 114.637 75.3216 114.227C74.5711 113.844 73.652 114.139 73.2671 114.884C72.8824 115.633 73.1781 116.55 73.9255 116.933C74.606 117.282 77.2266 118.5 80.6167 118.5L80.6135 118.504Z" fill="#261A08"/>
<path d="M59.5604 146.772C60.3332 146.772 60.9978 146.188 61.0774 145.404C61.1632 144.567 60.5526 143.822 59.7131 143.736C43.1916 142.058 30.7155 135.916 23.6331 125.971C18.287 118.466 17.8291 111.334 17.8259 111.265C17.7782 110.427 17.0658 109.786 16.2199 109.828C15.3803 109.872 14.7347 110.586 14.776 111.426C14.792 111.747 15.2531 119.376 21.038 127.586C24.4217 132.386 28.9346 136.392 34.4523 139.491C41.2835 143.33 49.6793 145.776 59.4013 146.765C59.4522 146.772 59.5064 146.775 59.5572 146.775L59.5604 146.772Z" fill="white"/>
<path d="M27.5034 173.739C27.8564 173.739 28.2095 173.619 28.4989 173.371C29.1381 172.822 29.2113 171.861 28.661 171.224C22.997 164.651 20.4529 158.036 21.1015 151.562C22.0684 141.915 29.9077 135.726 29.9841 135.662C30.6487 135.145 30.7696 134.19 30.2544 133.528C29.7392 132.864 28.7819 132.741 28.114 133.255C27.7483 133.537 19.1807 140.265 18.0644 151.223C17.3171 158.569 20.103 165.964 26.3427 173.206C26.6448 173.555 27.0709 173.736 27.5003 173.736L27.5034 173.739Z" fill="white"/>
<path d="M32.876 175.711C33.6265 180.358 36.2987 189.471 40.9824 188.752C43.6845 188.302 41.8831 184.255 42.7838 182.906C43.6845 181.557 50.4398 172.114 45.9363 164.919" stroke="#261A08" stroke-width="2" stroke-linecap="round" stroke-linejoin="round"/>
<path d="M63.9504 178.409C66.2022 187.852 71.3363 200.173 73.8582 173.913M81.5143 178.409C83.1655 186.953 87.3689 197.115 90.9717 169.416" stroke="#261A08" stroke-width="2" stroke-linecap="round" stroke-linejoin="round"/>
<path d="M92.3866 121.73C92.428 121.73 92.473 121.73 92.5145 121.724C93.3539 121.654 93.9772 120.918 93.907 120.08C93.5224 115.465 92.746 110.031 92.7397 109.977C92.619 109.146 91.8498 108.565 91.013 108.686C90.1798 108.806 89.5979 109.577 89.7188 110.408C89.7251 110.462 90.4888 115.814 90.8671 120.337C90.9337 121.133 91.6012 121.733 92.3866 121.733V121.73Z" fill="#261A08"/>
<path d="M49.7417 64.1946C46.3416 64.1946 45.0354 80.8322 45.0354 81.7315C49.3588 82.8107 55.5437 78.5838 58.0957 76.3355C56.4444 72.2885 52.4617 64.1946 49.7417 64.1946Z" fill="#261A08" stroke="#261A08"/>
<path d="M109.436 62.8457C107.635 62.3638 102.831 68.0409 100.879 70.9397C103.582 74.2373 109.706 80.3827 110.787 78.584C112.138 76.3357 111.688 63.4482 109.436 62.8457Z" fill="#261A08" stroke="#261A08"/>
</g>
<defs>
<clipPath id="clip0_35_686">
<rect width="19" height="19" fill="white" transform="translate(56)"/>
</clipPath>
<clipPath id="clip1_35_686">
<rect width="127" height="134" fill="white" transform="translate(0 57)"/>
</clipPath>
</defs>
</svg>
