<svg width="127" height="246" viewBox="0 0 127 246" fill="none" xmlns="http://www.w3.org/2000/svg">
<g clip-path="url(#clip0_35_686)">
<path d="M74.7663 7.66601C74.2647 5.3525 72.9088 3.27786 71.0853 1.87117C68.3394 -0.252126 64.3184 -0.659092 61.2835 1.11917C58.4994 2.75146 56.6079 5.83467 56.1148 9.09039C56.0978 9.18771 56.0851 9.28945 56.0723 9.38677C55.8258 11.3685 56.1701 13.421 57.1817 15.133C58.1041 16.69 59.5025 17.9198 61.0965 18.6806C64.3779 20.251 68.5477 20.1758 71.4508 17.7871C74.2987 15.447 75.5484 11.3154 74.762 7.67044L74.7663 7.66601ZM71.4636 15.9203C67.1578 20.7243 57.7428 18.0392 57.3305 11.1429C57.1775 8.5286 58.1763 5.86563 59.8511 3.93254C62.4524 0.937807 66.6562 0.358322 69.8994 2.63645C71.3616 3.66271 72.556 5.16229 73.1808 6.89189C74.269 9.9176 73.5846 13.5537 71.4636 15.9203Z" fill="#C458F0"/>
<path d="M60.4206 1.8224C59.9063 2.64961 59.2815 3.48565 59.1922 4.49865C59.1157 5.37451 59.5323 6.21056 60.1273 6.80331C61.496 8.16134 63.5065 8.38252 65.1473 9.21856C65.8996 9.60341 66.5924 10.1254 67.0345 10.8774C67.4638 11.6117 67.4978 12.3681 67.2173 13.1688C66.6817 14.6993 65.33 15.6283 63.8933 16.1016C62.4311 16.5838 60.6757 16.8182 59.2815 15.9954C58.8054 15.7167 58.3634 16.3537 58.7119 16.7607C59.7958 18.0258 61.7426 17.8799 63.1877 17.5746C64.769 17.2384 66.3714 16.5263 67.4171 15.2036C68.5902 13.7129 69.0408 11.709 67.9186 10.0413C66.7327 8.28077 64.769 7.7411 62.9285 7.04218C62.0571 6.71042 61.0157 6.28133 60.5184 5.40547C59.9191 4.35267 60.8202 3.25563 61.3388 2.37977C61.7001 1.76932 60.7862 1.2208 60.4164 1.81798L60.4206 1.8224Z" fill="#C458F0"/>
</g>
<g clip-path="url(#clip1_35_686)">
<path d="M42.3334 190.476C41.4327 203.556 35.1277 190.632 32.876 182.535C37.5297 181.134 46.5668 179.545 45.4859 184.404C44.1348 190.476 43.2341 187.673 42.3334 190.476Z" fill="#FFD28B"/>
<path d="M71.6064 190.476C70.7057 203.556 64.4007 190.632 62.1489 182.535C66.8026 181.134 75.8397 179.545 74.7589 184.404C73.4078 190.476 72.5071 187.673 71.6064 190.476Z" fill="#FFD28B"/>
<path d="M87.8193 189.088C86.9186 202.167 81.9647 188.764 79.7129 180.666C84.3666 179.265 91.8725 166.653 90.071 181.134C89.3021 187.315 88.72 186.285 87.8193 189.088Z" fill="#FFD28B"/>
<path d="M103.588 154.488C99.959 167.459 89.0508 184.685 69.6003 189.706C46.8456 195.583 29.208 180.42 27.5034 178.901C23.4899 180.45 15.3103 182.905 5.87443 180.503C-8.28406 176.898 -24.5033 162.552 -22.3186 144.085C-20.3086 127.077 -3.46915 113.19 15.9176 115.668C15.9049 112.817 16.2134 85.4979 37.9314 69.2447C56.838 55.094 81.6471 57.0515 98.5692 68.0451C111.046 76.1486 117.009 87.7256 119.425 93.2586C120.602 94.7284 129.38 106.075 126.378 121.273C122.813 139.326 105.998 145.772 105.136 146.088C104.936 148.25 104.523 151.166 103.591 154.492L103.588 154.488Z" fill="#FFD38B"/>
<path d="M74.6222 101.243C75.0706 101.243 75.5127 101.039 75.8148 100.65C76.3427 99.9682 76.2346 98.9729 75.5762 98.4258C73.8621 97.0056 71.2892 96.5474 71.0031 96.498C70.1698 96.3596 69.3875 96.9463 69.2539 97.8096C69.1203 98.6698 69.6864 99.4804 70.5164 99.6221C71.0825 99.7177 72.749 100.133 73.6681 100.897C73.9511 101.131 74.2851 101.243 74.6222 101.243Z" fill="#261A08"/>
<path d="M96.9983 98.5447C97.5774 98.5447 98.1278 98.202 98.3854 97.6253C98.7826 96.7322 99.8067 95.9314 100.166 95.6974C100.879 95.2361 101.101 94.2606 100.656 93.5224C100.21 92.7842 99.2789 92.5503 98.5601 93.005C98.3466 93.1402 96.4642 94.3793 95.6085 96.3005C95.2554 97.0947 95.5896 98.0339 96.3561 98.3997C96.5623 98.4986 96.7785 98.5447 96.9956 98.5447H96.9983Z" fill="#261A08"/>
<path d="M95.0932 108.866C95.7327 110.942 93.7701 113.437 91.6174 114.069C88.8664 114.874 85.4985 112.725 85.4381 110.468C85.384 108.497 87.8551 106.721 90.0717 106.467C91.8335 106.263 94.4861 106.899 95.0932 108.869V108.866Z" fill="#261A08"/>
<path d="M84.6653 120.871C85.3491 126.253 88.2908 130.069 91.6175 130.478C93.4045 130.695 94.7943 129.865 95.0933 129.677C97.9873 127.858 99.1897 123.185 97.7963 118.07C95.6085 116.871 93.4207 115.668 91.2293 114.468C89.0414 116.604 86.8533 118.736 84.6621 120.871H84.6653Z" fill="#FF5CAE"/>
<path d="M80.6135 123.106C82.2895 123.106 84.1499 122.796 86.0581 121.916C88.8281 120.638 90.6437 118.627 91.7633 116.96C93.344 118.66 95.4877 119.652 97.7548 119.652C97.771 119.652 97.7872 119.652 97.8025 119.652C101.155 119.629 103.353 117.411 103.947 116.729C104.513 116.08 104.465 115.081 103.839 114.495C103.212 113.908 102.248 113.961 101.683 114.607C101.301 115.045 99.8922 116.475 97.7836 116.488C95.7994 116.508 93.9583 115.292 92.9657 113.331C92.6955 112.798 92.1515 112.468 91.5723 112.484C90.9905 112.501 90.469 112.857 90.2276 113.407C89.7059 114.587 88.1349 117.49 84.8147 119.026C80.3241 121.102 76.1166 119.089 75.3216 118.664C74.5711 118.265 73.652 118.571 73.2671 119.346C72.8824 120.123 73.1781 121.076 73.9255 121.475C74.606 121.837 77.2266 123.102 80.6167 123.102L80.6135 123.106Z" fill="#261A08"/>
<path d="M59.5604 152.471C60.3332 152.471 60.9978 151.865 61.0774 151.051C61.1632 150.181 60.5526 149.407 59.7131 149.318C43.1916 147.574 30.7154 141.194 23.6331 130.863C18.287 123.066 17.8291 115.658 17.8259 115.585C17.7782 114.715 17.0658 114.05 16.2199 114.093C15.3803 114.139 14.7347 114.88 14.776 115.753C14.792 116.086 15.2531 124.012 21.038 132.54C24.4217 137.527 28.9346 141.689 34.4523 144.908C41.2835 148.896 49.6793 151.437 59.4013 152.465C59.4522 152.471 59.5064 152.475 59.5572 152.475L59.5604 152.471Z" fill="#261A08"/>
<path d="M27.5034 180.486C27.8564 180.486 28.2095 180.361 28.4989 180.104C29.1381 179.533 29.2113 178.536 28.661 177.873C22.997 171.045 20.4529 164.173 21.1015 157.448C22.0684 147.426 29.9077 140.997 29.9841 140.931C30.6487 140.394 30.7696 139.402 30.2544 138.713C29.7392 138.024 28.7819 137.896 28.114 138.43C27.7483 138.723 19.1807 145.713 18.0644 157.095C17.3171 164.727 20.103 172.409 26.3427 179.932C26.6448 180.295 27.0709 180.483 27.5003 180.483L27.5034 180.486Z" fill="#261A08"/>
<path d="M32.876 182.535C33.6265 187.362 36.2987 196.829 40.9824 196.082C43.6845 195.615 41.8831 191.41 42.7838 190.009C43.6845 188.608 50.4398 178.798 45.9363 171.324" stroke="#261A08" stroke-width="2" stroke-linecap="round" stroke-linejoin="round"/>
<path d="M63.9504 185.338C66.2022 195.148 71.3363 207.947 73.8582 180.667M81.5143 185.338C83.1655 194.213 87.3689 204.77 90.9717 175.995" stroke="#261A08" stroke-width="2" stroke-linecap="round" stroke-linejoin="round"/>
<path d="M92.3866 126.457C92.428 126.457 92.473 126.457 92.5145 126.45C93.3539 126.378 93.9772 125.613 93.907 124.743C93.5224 119.949 92.746 114.303 92.7397 114.247C92.619 113.384 91.8498 112.781 91.013 112.906C90.1798 113.031 89.5979 113.832 89.7188 114.696C89.7251 114.752 90.4888 120.311 90.8671 125.01C90.9337 125.837 91.6012 126.46 92.3866 126.46V126.457Z" fill="#261A08"/>
<path d="M48.9506 64.9706C49.8379 64.6048 50.7954 64.6478 51.724 65.0927C55.4925 66.9052 58.5104 75.7825 59.0766 77.5458C59.2804 78.177 59.0761 78.8471 58.6137 79.2529L58.6869 79.4365L58.433 79.6689C57.1313 80.8602 54.9118 82.5694 52.4604 83.8427C50.2262 85.0032 47.7006 85.8525 45.4799 85.5058C45.296 85.5871 45.0943 85.6328 44.8832 85.6328V85.6269H44.807C43.9675 85.584 43.3184 84.8419 43.3598 83.9687C43.3662 83.8028 43.5638 79.8288 44.2475 75.5849C45.5831 67.2648 47.5704 65.5409 48.9506 64.9706ZM103.419 67.7978C106.141 64.3343 108.505 63.0069 110.639 63.7451C112.883 64.5197 113.748 67.6533 113.367 73.6044C113.122 77.4078 112.456 80.9976 112.426 81.1542C112.283 81.9085 111.644 82.4319 110.929 82.4326C110.834 82.4324 110.736 82.4228 110.639 82.4033C110.631 82.4017 110.623 82.3981 110.616 82.3964C110.472 82.448 110.317 82.473 110.158 82.4716C109.767 82.4681 109.346 82.3187 108.937 82.1113C108.108 81.6915 107.117 80.9254 106.108 80.0234C104.336 78.4404 102.415 76.354 101.047 74.6982C101 74.6767 100.953 74.6528 100.907 74.6259C100.173 74.1975 99.9151 73.2319 100.329 72.4706C100.385 72.3665 101.669 70.0228 103.419 67.7978Z" fill="#261A08"/>
</g>
<defs>
<clipPath id="clip0_35_686">
<rect width="19" height="19.7378" fill="white" transform="translate(56)"/>
</clipPath>
<clipPath id="clip1_35_686">
<rect width="127" height="139.204" fill="white" transform="translate(0 59.2136)"/>
</clipPath>
</defs>
</svg>
