<svg width="182" height="262" viewBox="0 0 182 262" fill="none" xmlns="http://www.w3.org/2000/svg">
<g clip-path="url(#clip0_35_716)">
<path d="M25.7298 193.346C21.9369 194.885 20.2658 200.275 23.5525 203.184C24.9496 204.424 27.0339 204.973 28.8503 204.461C30.7081 203.946 31.9384 202.371 32.1935 200.476C32.4676 198.43 31.5588 196.344 29.7013 195.364C29.2873 195.144 28.7542 195.695 28.9873 196.124C31.1544 200.014 36.9849 201.617 40.0963 197.921C41.4202 196.361 41.9822 194.088 41.3926 192.106C40.803 190.123 39.1253 188.835 37.1167 188.554C34.9036 188.234 32.6185 189.181 31.5905 191.214C31.259 191.863 32.3249 192.256 32.6323 191.618C33.5557 189.804 35.9282 189.249 37.7571 189.839C39.8879 190.526 40.8287 192.684 40.3859 194.804C39.9337 197.001 38.1965 198.699 35.941 198.9C33.5611 199.113 31.1563 197.742 29.9988 195.679L29.2847 196.439C30.9299 197.296 31.4456 199.469 30.8941 201.148C30.2419 203.088 28.2352 203.884 26.3352 203.426C24.3831 202.948 22.8745 201.327 22.8786 199.256C22.8721 197.161 24.2329 195.197 26.1741 194.415C26.8417 194.136 26.3946 193.125 25.7163 193.381L25.7298 193.346Z" fill="#87529D"/>
<path d="M25.5833 193.568C22.9434 186.107 20.028 178.738 16.8302 171.479C16.5495 170.812 15.5139 171.268 15.7947 171.935C18.975 179.187 21.8905 186.556 24.5478 194.024C24.7803 194.712 25.8159 194.256 25.5833 193.568Z" fill="#87529D"/>
<path d="M32.933 190.38C30.0367 184.094 27.1231 177.803 24.2269 171.517C23.9221 170.861 22.8865 171.317 23.1913 171.973C26.0876 178.258 29.0012 184.55 31.8974 190.835C32.2022 191.491 33.2378 191.036 32.933 190.38Z" fill="#87529D"/>
<path d="M21.7023 171.176C22.942 172.255 24.8716 171.967 26.0034 170.851C27.3267 169.551 27.3029 167.449 26.5896 165.837C25.8124 164.08 24.1711 162.647 22.2224 162.469C20.4328 162.293 18.3314 162.973 17.1442 164.386C15.9569 165.799 15.9657 168.094 17.5208 169.236C17.7072 168.909 17.8763 168.576 18.0561 168.267C15.9959 167.708 13.7391 167.191 11.692 168.091C9.94069 168.847 8.72216 170.547 9.08318 172.501C9.41114 174.282 10.8038 175.739 12.5985 176.056C14.4973 176.414 16.396 175.536 17.614 174.095C18.0883 173.541 17.1713 172.867 16.7143 173.427C15.7965 174.506 14.3621 175.166 12.9388 174.972C11.4982 174.773 10.3537 173.551 10.1748 172.107C10.0015 170.545 11.1882 169.391 12.5766 168.953C14.2406 168.422 16.0403 168.881 17.653 169.307C18.2288 169.47 18.7356 168.73 18.1883 168.339C16.6893 167.259 17.5274 165.252 18.787 164.425C20.2526 163.479 22.3452 163.234 23.8297 164.248C25.2234 165.187 26.1915 167.018 25.8686 168.726C25.5888 170.272 23.6869 171.467 22.3391 170.307C21.7839 169.833 21.1164 170.73 21.6715 171.204L21.7023 171.176Z" fill="#87529D"/>
</g>
<g clip-path="url(#clip1_35_716)">
<path d="M135.102 10.1902C133.68 7.90055 134.56 4.81018 132.173 2.96813C130.073 1.34757 127.682 3.02882 127.415 5.31095C127.265 6.75435 127.703 8.2294 128.067 9.61707C128.484 11.1956 128.976 12.7716 129.532 14.3069C130.636 17.412 131.944 20.4333 133.27 23.4582C133.434 23.8338 133.898 23.9295 134.197 23.6498C138.142 19.9344 142.245 15.9996 143.788 10.6909C144.151 9.47153 144.337 8.2153 144.355 6.96039C144.358 5.86436 144.287 4.68094 143.503 3.79969C142.195 2.3067 139.857 2.29093 138.249 3.23526C135.669 4.75161 135.01 7.85169 133.744 10.2871C133.431 10.9055 134.407 11.3951 134.721 10.7767C135.908 8.45086 136.581 5.01211 139.326 3.87126C140.363 3.43836 141.717 3.5385 142.569 4.36183C143.624 5.37099 143.292 7.514 143.089 8.76655C142.134 14.6463 137.558 18.9865 133.359 22.9373L134.286 23.1288C132.155 18.2473 130.031 13.3313 128.812 8.17083C128.505 6.86687 128.106 5.29204 128.961 4.12036C129.892 2.85626 131.339 3.40707 132.133 4.50629C133.463 6.34531 132.95 8.82832 134.151 10.7487C134.511 11.3445 135.43 10.7614 135.07 10.1656L135.102 10.1902Z" fill="#E86F69"/>
</g>
<g clip-path="url(#clip2_35_716)">
<path fill-rule="evenodd" clip-rule="evenodd" d="M81.1337 245.986C73.4004 247.046 59.1073 249.401 50.4365 256.7C41.7657 263.999 38.7199 276.244 40.4775 285.074C42.2352 293.903 48.7963 299.32 58.99 302.028C69.1837 304.736 83.0087 304.736 93.9052 304.854C104.802 304.972 112.768 305.208 119.33 304.618C125.891 304.03 131.046 302.616 133.039 300.616C135.031 298.614 133.859 296.025 131.866 294.258C129.874 292.492 127.063 291.55 122.61 291.55C118.157 291.55 112.066 292.492 105.738 292.61C99.4102 292.728 92.849 292.022 86.8747 291.668C80.899 291.314 75.5101 291.314 70.7053 290.49C65.9018 289.666 61.6838 288.018 59.2234 285.546C56.7629 283.073 56.0602 279.777 55.8254 277.069C55.5907 274.36 55.8255 272.242 56.9977 270.004C58.1699 267.767 60.2782 265.413 62.5039 263.529C64.7296 261.645 67.074 260.232 70.6119 259.406C74.1499 258.579 78.8827 258.339 83.8035 257.279C88.7243 256.219 93.8332 254.34 96.5057 252.341C99.1781 250.342 99.4115 248.223 98.1233 247.045C96.8351 245.867 94.0226 245.633 92.0302 245.397C90.0379 245.161 88.867 244.927 81.1337 245.985V245.986Z" fill="#E5B2C5"/>
<path fill-rule="evenodd" clip-rule="evenodd" d="M182 196.111C182 187.339 181.532 176.037 180.477 164.381C179.422 152.726 177.782 140.716 177.079 130.827C176.376 120.937 176.61 113.167 176.142 105.514C175.674 97.8607 174.501 90.3257 173.447 83.4969C172.392 76.6681 171.454 70.5469 169.346 67.1325C167.238 63.7181 163.957 63.0119 161.613 62.8939C159.269 62.776 157.863 63.2477 157.042 64.778C156.222 66.3083 155.988 68.8986 155.637 71.4889C155.285 74.0792 154.817 76.6695 154.582 79.848C154.347 83.0266 154.347 86.7947 154.347 88.9133V91.7395C154.347 91.8967 153.059 91.936 150.481 91.8574C146.615 91.7395 138.882 91.5036 132.086 91.6215C125.29 91.7395 119.432 92.2098 114.979 92.5636C110.527 92.916 107.481 93.1519 105.958 93.2698C104.943 93.3484 104.474 92.485 104.552 90.6795C104.67 87.9713 104.903 82.5562 104.2 77.3757C103.497 72.1951 101.857 67.2504 99.9821 64.6601C98.1072 62.0698 95.9988 61.834 93.7718 62.0698C91.5461 62.3057 89.2016 63.0119 87.9134 65.8366C86.6252 68.6628 86.3905 73.6075 86.2732 79.1405C86.1558 84.6735 86.1558 90.7961 85.8037 97.507C85.453 104.218 84.7489 111.517 84.1635 120.348C83.578 129.177 83.1086 139.538 82.9913 148.251C82.8739 156.964 83.1086 164.027 83.1086 174.094C83.1086 184.16 82.8739 197.228 82.7566 210.003C82.6392 222.777 82.6392 235.257 82.8739 244.322C83.1086 253.387 83.5767 259.038 84.1635 262.218C84.7489 265.397 85.453 266.103 86.8586 266.809C88.2642 267.515 90.3738 268.222 94.8253 268.457C95.5654 268.496 96.3722 268.523 97.2243 268.538C97.267 269.204 97.3297 269.895 97.4057 270.482C97.5777 271.804 97.8191 272.583 97.9845 273.282C98.1498 273.981 98.2365 274.599 98.5379 274.981C98.8379 275.364 99.3514 275.51 99.8781 275.444C100.405 275.377 100.948 275.099 101.321 274.561C101.694 274.024 101.9 273.229 102.002 272.833C102.071 272.567 102.149 272.607 102.237 272.951C102.369 273.465 102.633 274.496 103.051 275.056C103.468 275.615 104.039 275.703 104.603 275.6C105.167 275.497 105.723 275.203 106.067 274.628C106.411 274.055 106.543 273.201 106.609 272.774C106.652 272.489 106.703 272.525 106.762 272.884C106.85 273.421 107.026 274.496 107.259 275.084C107.494 275.672 107.786 275.775 108.292 275.702C108.797 275.628 109.514 275.377 110.1 274.709C110.685 274.039 111.14 272.951 111.305 271.818C111.468 270.711 111.355 269.564 111.268 268.338C116.402 268.222 119.911 268.22 124.352 267.868C128.804 267.515 134.193 266.808 140.521 266.69C141.748 266.667 143.011 266.666 144.294 266.682C144.374 267.749 144.46 268.829 144.547 269.793C144.782 272.413 145.015 274.179 145.777 275.18C146.538 276.181 147.828 276.417 148.53 275.975C149.233 275.534 149.35 274.415 149.409 273.856C149.448 273.484 149.478 273.484 149.497 273.856C149.527 274.415 149.585 275.534 150.171 276.093C150.756 276.652 151.87 276.652 152.602 276.122C153.334 275.593 153.686 274.533 153.861 274.003C153.978 273.65 154.037 273.679 154.037 274.091C154.037 274.709 154.037 275.946 154.622 276.357C155.207 276.77 156.38 276.357 157.141 275.415C157.903 274.473 158.255 273.002 158.547 270.205C158.64 269.311 158.728 268.281 158.811 267.221C159.281 267.241 159.746 267.259 160.203 267.277C166.296 267.513 171.217 267.513 174.145 266.923C177.074 266.335 178.011 265.157 178.949 262.332C179.886 259.506 180.824 255.033 181.175 247.262C181.527 239.491 181.292 228.425 181.409 219.771C181.531 211.122 182 204.882 182 196.111Z" fill="#E5B2C5"/>
<path fill-rule="evenodd" clip-rule="evenodd" d="M95.9202 268.506C96.3389 268.52 96.7737 268.531 97.2217 268.539C97.2284 268.433 97.2311 268.325 97.2311 268.214V262.153C97.2311 256.528 97.1044 251.026 97.1044 245.398L97.1364 239.94C97.1364 239.266 97.1684 238.69 97.1684 238.004C97.1684 237.481 97.2337 236.636 97.2311 236.132L97.2631 235.18C97.2604 234.62 97.3177 233.869 97.3244 233.275C97.3271 233.091 97.3591 233.036 97.3578 232.833L97.3884 231.88C97.3964 231.722 97.4218 231.639 97.4204 231.436L97.5485 229.153C97.5538 228.967 97.5498 228.846 97.5698 228.699L97.6405 227.278C97.6405 227.081 97.6738 227.033 97.6738 226.836C97.6725 226.224 97.7685 225.607 97.7672 224.993C97.7672 224.792 97.8018 224.73 97.8005 224.519C97.7992 224.319 97.8165 224.226 97.8298 224.073L97.9579 221.283C97.9539 220.645 98.0205 220.026 98.0205 219.379L98.0832 217.507C98.1166 216.889 98.0352 216.176 98.0845 215.573C98.1326 214.994 98.1139 214.297 98.1139 213.668V212.334C98.1139 211.864 98.0819 211.473 98.0819 211.033V209.032C98.0819 208.818 98.0499 208.68 98.0499 208.431C98.0525 207.514 98.0179 206.703 98.0179 205.796C98.0179 205.016 97.9552 204.017 97.9552 203.226H96.9444C96.7857 203.226 96.803 203.254 96.6603 203.258L96.7243 205.764C96.7377 206.194 96.7097 206.638 96.7217 207.067C96.727 207.262 96.755 207.426 96.755 207.668C96.755 209.55 96.8177 211.51 96.8177 213.379C96.8177 215.038 96.7457 216.821 96.755 218.457L96.719 219.72C96.6976 219.913 96.691 220.09 96.6923 220.329L96.4936 224.604C96.4456 224.953 96.4763 225.429 96.4203 225.8C96.3736 226.111 96.3549 226.989 96.3443 227.343C96.3403 227.494 96.3189 227.487 96.3109 227.627C96.3056 227.728 96.3176 227.841 96.3096 227.943L96.2162 229.468C96.2202 229.866 96.1496 230.277 96.1536 230.674C96.1576 231.1 96.0562 232.096 96.0575 232.514C96.0575 232.759 96.0309 232.92 96.0255 233.117L95.9309 235.592C95.9375 236.75 95.8362 238.19 95.8362 239.368C95.8362 239.791 95.8348 240.215 95.8362 240.637C95.8362 240.886 95.8028 240.997 95.8042 241.239V246.253C95.8042 251.919 95.9309 257.462 95.9309 263.135V268.085C95.9309 268.234 95.9255 268.372 95.9148 268.503L95.9202 268.506ZM111.351 268.338C111.788 268.329 112.214 268.319 112.63 268.31C112.654 268.104 112.715 267.864 112.742 267.726C113.035 266.195 113.303 264.665 113.483 263.105C113.699 261.229 113.947 259.109 114.035 257.177C114.042 257.039 114.059 257.062 114.066 256.922C114.089 256.461 114.113 255.558 114.17 255.159C114.25 254.608 114.227 253.582 114.297 253.101C114.355 252.696 114.355 251.517 114.405 251.056C114.473 250.417 114.487 249.698 114.522 249.02C114.529 248.882 114.546 248.904 114.553 248.767L114.794 244.957C114.801 244.865 114.79 244.772 114.801 244.679L114.918 243.182C114.922 243.093 114.915 243.028 114.926 242.937C114.942 242.813 114.954 242.567 114.97 242.443C115.035 241.927 115.022 241.434 115.074 240.933C115.174 239.967 115.238 238.907 115.31 237.913L115.442 235.892C115.517 235.317 115.537 234.484 115.584 233.882L115.737 230.805C115.736 230.572 115.768 230.476 115.769 230.267L115.797 229.217C115.797 229 115.829 228.928 115.829 228.711C115.826 227.994 115.892 227.301 115.889 226.616C115.886 225.881 115.921 225.239 115.92 224.49C115.92 224.129 115.95 223.832 115.95 223.443V222.364C115.95 221.962 115.981 221.681 115.981 221.286V214.812C115.981 214.419 116.012 214.147 116.012 213.765H119.412C119.784 213.765 121.805 213.802 122.153 213.852L125.819 214.083C126.316 214.083 126.863 214.185 127.367 214.209C127.719 214.226 128.054 214.229 128.416 214.287C128.95 214.37 129.446 214.359 129.977 214.402C130.293 214.427 130.703 214.455 131.015 214.49L131.526 214.528C132.274 214.547 133.452 214.678 134.137 214.687C134.869 214.697 135.539 214.749 136.295 214.749L139.846 214.683C139.972 214.673 140.017 214.655 140.182 214.654C141.048 214.647 143.195 214.241 143.583 214.241C143.583 214.536 143.608 214.907 143.579 215.188L143.522 216.366C143.522 216.504 143.522 216.642 143.523 216.78C143.523 216.965 143.499 217.012 143.492 217.16L143.462 218.366C143.463 218.639 143.467 218.919 143.463 219.193C143.46 219.369 143.432 219.395 143.43 219.57C143.428 219.707 143.43 219.846 143.43 219.984L143.399 222.397C143.399 222.946 143.402 223.497 143.399 224.047C143.398 224.319 143.43 224.534 143.43 224.841L143.398 231.853C143.391 232.08 143.398 232.323 143.398 232.553C143.398 232.809 143.366 232.93 143.367 233.186L143.319 234.501C143.276 234.796 143.251 235.79 143.247 236.139C143.246 236.302 143.222 236.313 143.215 236.455L143.063 239.406C143.056 239.546 143.035 239.538 143.031 239.69L142.884 242.297C142.872 242.411 142.884 242.528 142.88 242.643C142.876 242.8 142.852 242.801 142.848 242.958L142.728 245.56C142.717 245.777 142.745 246.004 142.715 246.213L142.667 247.56C142.667 248.046 142.636 248.416 142.636 248.893L142.605 252.574C142.605 252.925 142.636 253.162 142.636 253.495C142.636 254.098 142.587 254.867 142.657 255.407L142.696 257.302C142.696 257.458 142.691 257.625 142.696 257.779L142.727 258.699C142.727 258.895 142.759 258.946 142.759 259.142C142.759 259.75 142.821 260.407 142.819 261.015C142.817 261.369 142.849 261.606 142.848 261.968L142.887 262.879C142.907 263.028 142.909 263.17 142.908 263.364C142.908 263.568 142.935 263.637 142.94 263.806C142.944 263.956 142.928 264.132 142.944 264.279C142.96 264.427 142.971 264.535 142.969 264.728C142.967 265.125 143.028 265.773 143.032 266.091C143.033 266.249 143.032 266.41 143.032 266.568C143.032 266.599 143.032 266.634 143.029 266.671C143.439 266.672 143.851 266.677 144.264 266.681C144.278 266.08 144.231 265.524 144.216 264.376C144.212 264.061 144.152 263.523 144.155 263.139C144.158 262.746 144.096 262.171 144.094 261.871C144.092 261.726 144.102 261.568 144.094 261.425C144.086 261.272 144.062 261.207 144.063 261.014C144.068 260.018 143.967 259.053 143.972 258.029L143.91 256.349C143.908 255.182 143.88 254.078 143.88 252.889C143.88 252.303 143.819 251.754 143.85 251.143L143.88 250.287C143.88 248.906 143.92 246.13 144.031 244.732C144.042 244.591 144.026 244.432 144.032 244.29C144.04 244.137 144.066 244.072 144.063 243.879L144.167 241.797C144.19 241.639 144.176 241.534 144.184 241.371L144.338 238.93C144.339 238.744 144.347 238.654 144.363 238.512C144.394 238.229 144.383 237.948 144.398 237.659L144.55 234.74C144.558 234.588 144.582 234.521 144.58 234.328C144.576 233.773 144.642 233.194 144.64 232.646C144.638 231.511 144.702 230.321 144.702 229.188L144.671 223.952C144.671 223.393 144.623 222.808 144.639 222.238C144.644 222.074 144.672 222.023 144.671 221.828V220.527C144.671 219.518 144.736 218.513 144.731 217.512C144.731 217.319 144.754 217.252 144.762 217.101C144.788 216.575 144.739 215.893 144.81 215.406C144.855 215.089 144.858 214.016 144.806 213.755C144.718 213.312 144.414 212.912 143.942 212.912C143.167 212.912 141.253 213.299 140.116 213.355C139.872 213.367 139.576 213.363 139.33 213.391C138.453 213.495 137.435 213.45 136.532 213.45C136.34 213.45 136.148 213.45 135.955 213.45C135.735 213.45 135.624 213.42 135.44 213.417C135.252 213.414 135.047 213.429 134.861 213.417C134.543 213.4 134.133 213.35 133.799 213.353C133.283 213.358 132.742 213.26 132.25 213.256L130.675 213.157C130.543 213.142 130.323 213.136 130.173 213.111L128.875 213.007C128.786 212.998 128.7 213.007 128.611 212.998L127.057 212.876C126.737 212.86 126.345 212.797 126.025 212.78C125.659 212.762 125.333 212.746 124.964 212.715C124.84 212.704 124.597 212.696 124.454 212.676L121.288 212.494L115.518 212.463C115.263 212.463 115.062 212.653 114.954 212.825C114.65 213.312 114.729 214.796 114.729 215.414L114.669 225.283C114.666 225.467 114.635 225.523 114.637 225.725C114.637 226.004 114.657 226.375 114.637 226.644C114.614 226.934 114.606 227.231 114.609 227.566C114.609 227.77 114.582 227.841 114.577 228.009C114.573 228.163 114.577 228.33 114.578 228.486C114.578 228.689 114.551 228.76 114.546 228.928C114.542 229.085 114.55 229.248 114.549 229.406C114.546 229.59 114.515 229.646 114.517 229.848L114.182 236.098C114.114 236.997 114.054 238.339 113.949 239.155L113.395 247.08C113.394 247.336 113.334 247.679 113.332 247.935L113.238 249.74C113.18 250.283 113.166 250.941 113.122 251.491C113.098 251.798 113.118 252.102 113.086 252.405C113.059 252.656 113.03 253.022 113.03 253.299L112.92 255.057C112.864 255.45 112.864 256.354 112.812 256.847L112.571 259.896C112.562 260.007 112.548 260.195 112.531 260.33C112.455 260.904 112.422 261.444 112.352 262.016C112.108 264.059 111.783 266.084 111.397 268.094C111.383 268.173 111.363 268.254 111.348 268.33L111.351 268.338ZM158.801 267.387L158.815 267.225C159.255 267.243 159.691 267.261 160.12 267.278C160.126 267.199 160.131 267.12 160.135 267.041C160.159 266.476 160.268 265.867 160.292 265.295C160.316 264.721 160.422 264.117 160.45 263.549C160.503 262.476 160.647 261.106 160.732 259.994C160.774 259.452 160.787 258.691 160.853 258.21L160.923 256.853C160.925 256.669 160.958 256.614 160.957 256.411L161.051 254.603C161.067 253.355 161.15 252.163 161.145 250.888C161.145 250.567 161.177 250.317 161.177 249.968C161.177 245.952 161.05 242.023 161.05 238.004V236.321C161.054 236.152 161.083 236.082 161.082 235.879C161.081 235.54 161.082 235.202 161.082 234.863L161.19 231.988C161.217 231.814 161.202 231.679 161.207 231.498L161.298 230.13C161.334 229.81 161.318 229.463 161.357 229.174L161.555 226.391C161.563 226.074 161.595 225.765 161.621 225.441C161.629 225.331 161.645 225.109 161.663 224.976C161.685 224.83 161.678 224.683 161.699 224.537C161.77 224.053 161.773 223.633 161.81 223.156C161.818 223.053 161.834 222.851 161.853 222.723C161.945 222.084 161.919 221.52 162.01 220.882C162.097 220.275 162.085 219.653 162.173 219.046C162.266 218.406 162.231 217.84 162.326 217.201L162.755 209.698C162.755 209.014 162.787 208.439 162.787 207.763C162.787 207.541 162.789 207.318 162.787 207.096C162.787 206.882 162.754 206.744 162.754 206.494C162.754 206.141 162.79 205.524 162.746 205.203L162.69 203.958C162.685 203.755 162.706 203.522 162.69 203.324C162.674 203.128 162.661 202.962 162.661 202.719H162.638C162.177 202.719 161.823 202.752 161.366 202.752C161.366 203.395 161.433 204.013 161.43 204.624C161.426 205.528 161.517 209.481 161.457 210.013C161.414 210.39 161.435 211.47 161.379 211.84L161.105 216.228C160.95 217.394 160.977 218.521 160.811 219.678C160.792 219.806 160.776 220.006 160.768 220.11L160.667 221.405C160.53 222.715 160.47 223.974 160.33 225.286C160.314 225.43 160.304 225.61 160.295 225.726C160.283 225.891 160.264 226.031 160.262 226.169L159.914 231.435C159.914 232.167 159.816 232.926 159.82 233.657C159.823 234.281 159.786 234.845 159.79 235.498C159.791 235.808 159.758 236.073 159.758 236.419V237.339C159.758 241.24 159.884 245.093 159.884 248.985C159.884 249.869 159.851 250.66 159.852 251.556C159.852 251.816 159.819 251.956 159.82 252.189L159.718 255.292C159.67 255.645 159.706 256.12 159.655 256.498C159.59 256.979 159.606 257.544 159.567 258.028C159.558 258.149 159.538 258.161 159.536 258.315C159.532 258.928 159.44 259.519 159.411 260.125C159.392 260.535 159.36 260.955 159.32 261.335L159.184 263.135C159.168 263.29 159.131 263.542 159.126 263.711C159.119 263.908 159.094 264.155 159.071 264.322L158.809 267.265L158.803 267.389L158.801 267.387Z" fill="black"/>
<path fill-rule="evenodd" clip-rule="evenodd" d="M169.258 90.1796C169.052 88.0905 168.819 84.5582 168.555 81.7321C168.291 78.9059 167.999 76.7873 167.559 75.0507C167.119 73.314 166.533 71.9606 165.566 71.0185C164.6 70.0765 163.253 69.5472 162.374 69.3703C161.495 69.1934 161.084 69.3703 160.822 70.4597C160.558 71.5492 160.44 73.5498 160.265 75.4339C160.089 77.318 159.855 79.0842 159.768 81.7039C159.68 84.3237 159.739 87.797 159.768 89.6798C159.797 91.5639 159.797 91.8573 160.061 92.0047C160.326 92.1522 160.852 92.1522 161.731 92.0342C162.61 91.9163 163.841 91.6818 165.246 91.9753C166.652 92.2701 168.234 93.0942 169.024 93.4466C169.815 93.8004 169.815 93.6825 169.727 93.2992C169.639 92.916 169.463 92.2687 169.259 90.1796H169.258Z" fill="black"/>
<path fill-rule="evenodd" clip-rule="evenodd" d="M98.6951 94.6526C99.1632 94.5936 99.5152 94.5199 99.6913 94.4838C99.8086 94.4596 99.926 93.6235 100.043 91.9752C100.219 89.5029 100.57 84.5582 100.278 80.6721C99.9846 76.7873 99.0485 73.9612 98.2857 72.0771C97.5242 70.193 96.9388 69.251 96.176 68.5448C95.4145 67.8386 94.477 67.3669 93.5395 68.0744C92.6021 68.7806 91.6646 70.6647 91.1965 72.7833C90.7284 74.9019 90.7284 77.2577 90.7284 79.4942V86.0871C90.7284 88.3236 90.7284 90.6781 90.6697 92.9159C90.6111 95.1524 90.4937 97.2724 90.435 98.3323C90.3959 99.039 90.4937 99.1958 90.7284 98.8027C91.0805 98.2144 91.7833 97.0365 92.8954 96.2714C94.009 95.5062 95.5319 95.1524 96.5867 94.9541C97.6416 94.7558 98.227 94.7116 98.6951 94.6526Z" fill="black"/>
<path fill-rule="evenodd" clip-rule="evenodd" d="M130.802 127.104C128.698 127.162 126.423 127.238 124.982 127.313C123.542 127.39 122.935 127.466 122.385 127.77C121.835 128.074 121.342 128.608 121.379 129.275C121.418 129.941 121.986 130.742 123.161 131.885C124.336 133.028 126.119 134.515 127.369 135.41C128.62 136.305 129.342 136.61 130.498 136.249C131.654 135.887 133.246 134.858 134.517 133.506C135.788 132.153 136.735 130.477 137.21 129.429C137.683 128.381 137.683 127.962 137.532 127.658C137.38 127.352 137.078 127.162 135.959 127.087C134.84 127.01 132.906 127.049 130.802 127.106V127.104Z" fill="black"/>
<path fill-rule="evenodd" clip-rule="evenodd" d="M102.126 129.57C101.374 129.57 100.679 129.485 100.031 129.377C99.0285 129.209 97.9257 128.793 97.1602 128.111C97.1215 128.076 97.1162 128.078 97.0775 128.046C96.9468 127.936 96.9028 127.859 96.8042 127.753L96.4414 127.253C96.2947 127.005 96.1734 126.772 96.0587 126.478C95.8413 125.921 95.716 125.302 95.6186 124.624C95.5706 124.291 95.5519 123.872 95.5119 123.593C95.4866 123.418 95.4959 123.241 95.4706 123.067C95.4413 122.872 95.4533 122.713 95.4359 122.511L95.3546 120.886C95.3532 120.767 95.3319 120.74 95.3319 120.614C95.3319 120.157 95.2906 119.651 95.2906 119.223C95.2906 118.833 95.2706 118.502 95.2692 118.104V118.086C95.4293 118.086 95.5026 118.064 95.668 118.064H96.2974C96.2974 118.251 96.3201 118.358 96.3187 118.528C96.3187 118.693 96.3134 118.871 96.3187 119.034C96.3214 119.14 96.3401 119.151 96.3414 119.265C96.3534 120.196 96.3961 121.224 96.4454 122.153L96.5721 123.796C96.5895 124.208 96.7441 125.166 96.8522 125.538C97.1575 126.599 97.5416 127.296 98.5858 127.821C100.373 128.718 103.82 128.831 105.632 127.735C105.999 127.513 106.184 127.324 106.467 127.036C106.514 126.989 106.54 126.949 106.582 126.898C107.245 126.083 107.635 124.775 107.811 123.708C107.958 122.819 108.018 122.328 108.111 121.438C108.126 121.292 108.135 121.118 108.155 120.956L108.338 118.295C108.338 118.173 108.357 118.135 108.359 118.042H108.541C108.575 118.042 108.61 118.046 108.645 118.051C108.754 118.067 108.837 118.055 108.946 118.064C109.565 118.115 109.362 117.996 109.366 118.505L109.184 121.124C109.158 121.325 109.149 121.507 109.134 121.706L109.001 122.816C108.945 123.199 108.9 123.524 108.834 123.891C108.708 124.608 108.439 125.66 108.143 126.295C107.95 126.71 107.941 126.726 107.719 127.091C107.638 127.225 107.555 127.347 107.462 127.465C107.093 127.928 106.676 128.322 106.152 128.634C105.651 128.935 105.027 129.2 104.375 129.335C103.644 129.487 102.903 129.568 102.132 129.568L102.126 129.57ZM134.154 150.031C133.981 150.078 133.417 150.567 133.273 150.579C133.257 150.512 132.902 149.98 132.82 149.854C132.41 149.227 131.953 148.503 131.587 147.846C131.122 147.01 130.679 146.112 130.381 145.204C130.056 144.22 129.836 143.435 129.662 142.364C129.607 142.032 129.555 141.696 129.506 141.341C129.454 140.972 129.284 139.233 129.287 138.884C129.288 138.729 129.243 138.312 129.244 138.041C129.246 137.732 129.202 137.211 129.203 136.904C129.204 136.49 129.182 136.144 129.182 135.723H129.811C129.975 135.723 130.05 135.702 130.21 135.702L130.248 136.801C130.267 136.968 130.246 137.192 130.251 137.367C130.254 137.475 130.274 137.497 130.274 137.619C130.274 137.716 130.27 137.819 130.274 137.916C130.276 138.024 130.296 138.046 130.296 138.167C130.296 138.937 130.438 140.336 130.525 141.099C130.663 142.309 130.962 143.69 131.353 144.841C131.514 145.318 131.794 145.981 132.023 146.443C132.341 147.083 132.868 148.018 133.266 148.629C133.421 148.866 133.557 149.087 133.712 149.321C133.781 149.425 134.14 149.961 134.156 150.032L134.154 150.031ZM163.205 119.497V119.506C163.205 119.707 163.19 119.847 163.185 120.045C163.181 120.202 163.146 120.435 163.142 120.592L163.077 121.706C163.039 122.046 163.033 122.425 162.983 122.772L162.871 123.838C162.717 125.184 162.443 126.591 161.989 127.631C161.788 128.09 161.548 128.534 161.236 128.919L161.102 129.079C161.003 129.185 160.932 129.272 160.83 129.374L160.515 129.648C160.271 129.849 159.921 130.072 159.639 130.222C159.569 130.259 159.512 130.277 159.436 130.314C159.357 130.35 159.32 130.372 159.235 130.406C157.658 131.036 155.494 131.104 153.814 130.765C152.883 130.577 152.139 130.323 151.355 129.802L150.888 129.428C150.721 129.266 150.499 128.996 150.369 128.811C149.82 128.026 149.58 126.974 149.442 126.012C149.421 125.863 149.393 125.66 149.384 125.503L149.236 123.65C149.23 123.064 149.152 122.316 149.153 121.711L149.133 120.888C149.133 120.76 149.112 120.735 149.11 120.616C149.105 120.212 149.09 119.875 149.09 119.477L150.119 119.455C150.119 119.608 150.14 119.738 150.14 119.919L150.181 121.606C150.183 121.72 150.201 121.731 150.204 121.836L150.244 123.038C150.244 123.154 150.26 123.174 150.265 123.269C150.269 123.344 150.261 123.426 150.265 123.501L150.307 123.966C150.313 124.049 150.303 124.128 150.313 124.212L150.391 125.125C150.461 126.177 150.677 127.392 151.247 128.247C151.791 129.063 152.851 129.496 153.772 129.692C155.469 130.054 158.06 130.07 159.556 129.065L159.982 128.734C160.255 128.502 160.618 128.068 160.779 127.745C160.839 127.624 160.895 127.541 160.954 127.415C161.068 127.168 161.151 126.943 161.242 126.671C161.834 124.889 161.943 122.768 162.093 120.889C162.106 120.72 162.113 120.573 162.114 120.405L162.178 119.436L163.206 119.499L163.205 119.497Z" fill="black"/>
</g>
<defs>
<clipPath id="clip0_35_716">
<rect width="38" height="39" fill="white" transform="translate(0 194.429) rotate(-68.8036)"/>
</clipPath>
<clipPath id="clip1_35_716">
<rect width="17.1961" height="22.2912" fill="white" transform="translate(128.512) rotate(11.6782)"/>
</clipPath>
<clipPath id="clip2_35_716">
<rect width="142" height="243" fill="white" transform="matrix(-1 0 0 1 182 62)"/>
</clipPath>
</defs>
</svg>
