<svg width="236" height="262" viewBox="0 0 236 262" fill="none" xmlns="http://www.w3.org/2000/svg">
<g clip-path="url(#clip0_35_568)">
<path d="M25.9695 167.046C22.1767 168.585 20.5056 173.975 23.7922 176.884C25.1894 178.124 27.2736 178.673 29.09 178.161C30.9478 177.646 32.1781 176.07 32.4333 174.176C32.7074 172.13 31.7985 170.044 29.941 169.064C29.5271 168.844 28.9939 169.395 29.227 169.824C31.3942 173.714 37.2246 175.317 40.3361 171.621C41.6599 170.061 42.2219 167.788 41.6323 165.806C41.0428 163.823 39.365 162.535 37.3564 162.254C35.1434 161.934 32.8582 162.881 31.8302 164.914C31.4987 165.563 32.5647 165.956 32.8721 165.318C33.7954 163.504 36.168 162.949 37.9968 163.539C40.1276 164.226 41.0684 166.384 40.6257 168.504C40.1735 170.701 38.4363 172.399 36.1807 172.6C33.8008 172.813 31.396 171.442 30.2385 169.379L29.5245 170.139C31.1697 170.996 31.6853 173.169 31.1339 174.848C30.4817 176.788 28.4749 177.584 26.5749 177.126C24.6229 176.648 23.1142 175.027 23.1184 172.956C23.1119 170.86 24.4726 168.897 26.4138 168.115C27.0815 167.836 26.6343 166.825 25.9561 167.081L25.9695 167.046Z" fill="#C458F0"/>
<path d="M25.8231 167.268C23.1832 159.807 20.2677 152.438 17.07 145.179C16.7893 144.512 15.7537 144.968 16.0344 145.634C19.2148 152.887 22.1302 160.256 24.7875 167.724C25.0201 168.412 26.0556 167.956 25.8231 167.268Z" fill="#C458F0"/>
<path d="M33.1727 164.079C30.2765 157.794 27.3629 151.503 24.4666 145.217C24.1618 144.561 23.1263 145.016 23.4311 145.673C26.3273 151.958 29.2409 158.25 32.1371 164.535C32.4419 165.191 33.4775 164.736 33.1727 164.079Z" fill="#C458F0"/>
<path d="M21.9421 144.876C23.1818 145.955 25.1113 145.667 26.2431 144.551C27.5665 143.251 27.5426 141.149 26.8293 139.537C26.0522 137.78 24.4108 136.347 22.4622 136.169C20.6726 135.993 18.5711 136.673 17.3839 138.086C16.1967 139.499 16.2055 141.794 17.7605 142.936C17.947 142.609 18.1161 142.276 18.2958 141.967C16.2356 141.408 13.9789 140.891 11.9318 141.791C10.1804 142.547 8.9619 144.247 9.32293 146.201C9.65088 147.982 11.0436 149.439 12.8382 149.756C14.7371 150.114 16.6357 149.236 17.8537 147.795C18.3281 147.241 17.411 146.567 16.9541 147.127C16.0362 148.206 14.6019 148.866 13.1786 148.672C11.7379 148.472 10.5934 147.251 10.4145 145.807C10.2412 144.245 11.4279 143.091 12.8164 142.653C14.4804 142.122 16.2801 142.581 17.8927 143.007C18.4685 143.17 18.9753 142.43 18.428 142.039C16.929 140.959 17.7672 138.952 19.0267 138.125C20.4924 137.179 22.5849 136.934 24.0694 137.948C25.4631 138.887 26.4313 140.718 26.1084 142.426C25.8286 143.972 23.9266 145.167 22.5788 144.007C22.0236 143.533 21.3561 144.43 21.9113 144.904L21.9421 144.876Z" fill="#C458F0"/>
</g>
<g clip-path="url(#clip1_35_568)">
<path d="M189.102 10.1901C187.68 7.90042 188.56 4.81006 186.173 2.96801C184.073 1.34745 181.682 3.0287 181.415 5.31082C181.265 6.75423 181.703 8.22928 182.067 9.61695C182.484 11.1955 182.976 12.7715 183.532 14.3068C184.636 17.4119 185.944 20.4332 187.27 23.4581C187.434 23.8336 187.898 23.9294 188.197 23.6497C192.142 19.9342 196.245 15.9995 197.788 10.6908C198.151 9.47141 198.337 8.21517 198.355 6.96027C198.358 5.86424 198.287 4.68082 197.503 3.79956C196.195 2.30658 193.857 2.2908 192.249 3.23513C189.669 4.75148 189.01 7.85156 187.744 10.287C187.431 10.9054 188.407 11.3949 188.721 10.7765C189.908 8.45074 190.581 5.01199 193.326 3.87114C194.363 3.43824 195.717 3.53837 196.569 4.36171C197.624 5.37087 197.292 7.51388 197.089 8.76643C196.134 14.6462 191.558 18.9864 187.359 22.9372L188.286 23.1287C186.155 18.2471 184.031 13.3311 182.812 8.17071C182.505 6.86675 182.106 5.29192 182.961 4.12023C183.892 2.85614 185.339 3.40694 186.133 4.50617C187.463 6.34519 186.95 8.8282 188.151 10.7486C188.511 11.3444 189.43 10.7613 189.07 10.1655L189.102 10.1901Z" fill="#E9544C"/>
</g>
<g clip-path="url(#clip2_35_568)">
<path fill-rule="evenodd" clip-rule="evenodd" d="M135.134 245.986C127.4 247.046 113.107 249.401 104.437 256.7C95.7657 263.999 92.7199 276.244 94.4775 285.074C96.2352 293.903 102.796 299.319 112.99 302.028C123.184 304.736 137.009 304.736 147.905 304.854C158.802 304.972 166.768 305.208 173.33 304.618C179.891 304.03 185.046 302.616 187.039 300.615C189.031 298.613 187.859 296.024 185.866 294.258C183.874 292.492 181.063 291.55 176.61 291.55C172.157 291.55 166.066 292.492 159.738 292.61C153.41 292.728 146.849 292.022 140.875 291.668C134.899 291.314 129.51 291.314 124.705 290.49C119.902 289.666 115.684 288.018 113.223 285.545C110.763 283.073 110.06 279.776 109.825 277.068C109.591 274.36 109.825 272.241 110.998 270.004C112.17 267.767 114.278 265.413 116.504 263.529C118.73 261.645 121.074 260.232 124.612 259.405C128.15 258.579 132.883 258.339 137.804 257.279C142.724 256.219 147.833 254.34 150.506 252.341C153.178 250.341 153.411 248.223 152.123 247.045C150.835 245.867 148.023 245.632 146.03 245.397C144.038 245.161 142.867 244.926 135.134 245.985V245.986Z" fill="#E5B2C5"/>
<path fill-rule="evenodd" clip-rule="evenodd" d="M236 196.11C236 187.339 235.532 176.037 234.477 164.381C233.422 152.726 231.782 140.716 231.079 130.827C230.376 120.937 230.61 113.166 230.142 105.514C229.674 97.8606 228.501 90.3256 227.447 83.4968C226.392 76.668 225.454 70.5467 223.346 67.1323C221.238 63.7179 217.957 63.0117 215.613 62.8938C213.269 62.7759 211.863 63.2476 211.042 64.7779C210.222 66.3082 209.988 68.8985 209.637 71.4888C209.285 74.0791 208.817 76.6693 208.582 79.8479C208.347 83.0265 208.347 86.7946 208.347 88.9132V91.7393C208.347 91.8966 207.059 91.9359 204.481 91.8573C200.615 91.7393 192.882 91.5035 186.086 91.6214C179.29 91.7393 173.432 92.2097 168.979 92.5635C164.527 92.9159 161.481 93.1517 159.958 93.2697C158.943 93.3483 158.474 92.4848 158.552 90.6794C158.67 87.9712 158.903 82.5561 158.2 77.3755C157.497 72.195 155.857 67.2503 153.982 64.66C152.107 62.0697 149.999 61.8339 147.772 62.0697C145.546 62.3055 143.202 63.0117 141.913 65.8365C140.625 68.6627 140.391 73.6074 140.273 79.1404C140.156 84.6734 140.156 90.796 139.804 97.5068C139.453 104.218 138.749 111.517 138.163 120.348C137.578 129.177 137.109 139.538 136.991 148.251C136.874 156.964 137.109 164.027 137.109 174.094C137.109 184.16 136.874 197.228 136.757 210.002C136.639 222.777 136.639 235.257 136.874 244.322C137.109 253.387 137.577 259.038 138.163 262.218C138.749 265.397 139.453 266.103 140.859 266.809C142.264 267.515 144.374 268.221 148.825 268.457C149.565 268.496 150.372 268.523 151.224 268.538C151.267 269.204 151.33 269.895 151.406 270.482C151.578 271.803 151.819 272.583 151.984 273.281C152.15 273.981 152.237 274.599 152.538 274.981C152.838 275.364 153.351 275.51 153.878 275.444C154.405 275.377 154.948 275.099 155.321 274.561C155.694 274.024 155.9 273.229 156.002 272.833C156.071 272.567 156.149 272.607 156.237 272.95C156.369 273.465 156.633 274.496 157.051 275.056C157.468 275.614 158.039 275.703 158.603 275.6C159.167 275.497 159.723 275.203 160.067 274.628C160.411 274.055 160.543 273.201 160.609 272.774C160.652 272.489 160.703 272.525 160.762 272.883C160.85 273.421 161.026 274.496 161.259 275.084C161.494 275.672 161.786 275.775 162.292 275.702C162.797 275.628 163.514 275.377 164.1 274.709C164.685 274.039 165.14 272.95 165.305 271.818C165.468 270.711 165.355 269.564 165.268 268.338C170.402 268.222 173.911 268.22 178.352 267.868C182.804 267.515 188.193 266.808 194.521 266.69C195.748 266.667 197.011 266.666 198.294 266.682C198.374 267.748 198.46 268.829 198.547 269.793C198.782 272.413 199.015 274.179 199.777 275.18C200.538 276.181 201.828 276.417 202.53 275.975C203.233 275.534 203.35 274.415 203.409 273.856C203.448 273.484 203.478 273.484 203.497 273.856C203.527 274.415 203.585 275.534 204.171 276.093C204.756 276.652 205.87 276.652 206.602 276.122C207.334 275.593 207.686 274.533 207.861 274.002C207.978 273.65 208.037 273.679 208.037 274.091C208.037 274.709 208.037 275.945 208.622 276.357C209.207 276.77 210.38 276.357 211.141 275.415C211.903 274.473 212.255 273.001 212.547 270.205C212.64 269.311 212.728 268.28 212.811 267.22C213.281 267.241 213.746 267.259 214.203 267.277C220.296 267.513 225.217 267.513 228.145 266.923C231.074 266.335 232.011 265.157 232.949 262.332C233.886 259.506 234.824 255.033 235.175 247.262C235.527 239.491 235.292 228.425 235.409 219.771C235.531 211.121 236 204.882 236 196.11Z" fill="#E5B2C5"/>
<path fill-rule="evenodd" clip-rule="evenodd" d="M149.92 268.506C150.339 268.52 150.774 268.531 151.222 268.539C151.228 268.433 151.231 268.325 151.231 268.214V262.153C151.231 256.528 151.104 251.026 151.104 245.398L151.136 239.94C151.136 239.266 151.168 238.69 151.168 238.004C151.168 237.481 151.234 236.636 151.231 236.132L151.263 235.18C151.26 234.62 151.318 233.869 151.324 233.275C151.327 233.091 151.359 233.036 151.358 232.833L151.388 231.88C151.396 231.722 151.422 231.639 151.42 231.436L151.548 229.153C151.554 228.967 151.55 228.846 151.57 228.699L151.64 227.278C151.64 227.081 151.674 227.033 151.674 226.836C151.672 226.224 151.768 225.607 151.767 224.993C151.767 224.792 151.802 224.73 151.8 224.519C151.799 224.319 151.817 224.226 151.83 224.073L151.958 221.283C151.954 220.645 152.021 220.026 152.021 219.379L152.083 217.507C152.117 216.889 152.035 216.176 152.085 215.573C152.133 214.994 152.114 214.297 152.114 213.668V212.334C152.114 211.864 152.082 211.473 152.082 211.033V209.032C152.082 208.818 152.05 208.68 152.05 208.431C152.053 207.514 152.018 206.703 152.018 205.796C152.018 205.016 151.955 204.017 151.955 203.226H150.944C150.786 203.226 150.803 203.254 150.66 203.258L150.724 205.764C150.738 206.194 150.71 206.638 150.722 207.067C150.727 207.262 150.755 207.426 150.755 207.668C150.755 209.55 150.818 211.51 150.818 213.379C150.818 215.038 150.746 216.821 150.755 218.457L150.719 219.72C150.698 219.913 150.691 220.09 150.692 220.329L150.494 224.604C150.446 224.953 150.476 225.429 150.42 225.8C150.374 226.111 150.355 226.989 150.344 227.343C150.34 227.494 150.319 227.487 150.311 227.627C150.306 227.728 150.318 227.841 150.31 227.943L150.216 229.468C150.22 229.866 150.15 230.277 150.154 230.674C150.158 231.1 150.056 232.096 150.058 232.514C150.058 232.759 150.031 232.92 150.026 233.117L149.931 235.592C149.938 236.75 149.836 238.19 149.836 239.368C149.836 239.791 149.835 240.215 149.836 240.637C149.836 240.886 149.803 240.997 149.804 241.239V246.253C149.804 251.919 149.931 257.462 149.931 263.135V268.085C149.931 268.234 149.926 268.372 149.915 268.503L149.92 268.506ZM165.351 268.338C165.788 268.329 166.214 268.319 166.63 268.31C166.654 268.104 166.715 267.864 166.742 267.726C167.035 266.195 167.303 264.665 167.483 263.105C167.699 261.229 167.947 259.109 168.035 257.177C168.042 257.039 168.059 257.062 168.066 256.922C168.089 256.461 168.113 255.558 168.17 255.159C168.25 254.608 168.227 253.582 168.297 253.101C168.355 252.696 168.355 251.517 168.405 251.056C168.473 250.417 168.487 249.698 168.522 249.02C168.529 248.882 168.546 248.904 168.553 248.767L168.794 244.957C168.801 244.865 168.79 244.772 168.801 244.679L168.918 243.182C168.922 243.093 168.915 243.028 168.926 242.937C168.942 242.813 168.954 242.567 168.97 242.443C169.035 241.927 169.022 241.434 169.074 240.933C169.174 239.967 169.238 238.907 169.31 237.913L169.442 235.892C169.517 235.317 169.537 234.484 169.584 233.882L169.737 230.805C169.736 230.572 169.768 230.476 169.769 230.267L169.797 229.217C169.797 229 169.829 228.928 169.829 228.711C169.826 227.994 169.892 227.301 169.889 226.616C169.886 225.881 169.921 225.239 169.92 224.49C169.92 224.129 169.95 223.832 169.95 223.443V222.364C169.95 221.962 169.981 221.681 169.981 221.286V214.812C169.981 214.419 170.012 214.147 170.012 213.765H173.412C173.784 213.765 175.805 213.802 176.153 213.852L179.819 214.083C180.316 214.083 180.863 214.185 181.367 214.209C181.719 214.226 182.054 214.229 182.416 214.287C182.95 214.37 183.446 214.359 183.977 214.402C184.293 214.427 184.703 214.455 185.015 214.49L185.526 214.528C186.274 214.547 187.452 214.678 188.137 214.687C188.869 214.697 189.539 214.749 190.295 214.749L193.846 214.683C193.972 214.673 194.017 214.655 194.182 214.654C195.048 214.647 197.195 214.241 197.583 214.241C197.583 214.536 197.608 214.907 197.579 215.188L197.522 216.366C197.522 216.504 197.522 216.642 197.523 216.78C197.523 216.965 197.499 217.012 197.492 217.16L197.462 218.366C197.463 218.639 197.467 218.919 197.463 219.193C197.46 219.369 197.432 219.395 197.43 219.57C197.428 219.707 197.43 219.846 197.43 219.984L197.399 222.397C197.399 222.946 197.402 223.497 197.399 224.047C197.398 224.319 197.43 224.534 197.43 224.841L197.398 231.853C197.391 232.08 197.398 232.323 197.398 232.553C197.398 232.809 197.366 232.93 197.367 233.186L197.319 234.501C197.276 234.796 197.251 235.79 197.247 236.139C197.246 236.302 197.222 236.313 197.215 236.455L197.063 239.406C197.056 239.546 197.035 239.538 197.031 239.69L196.884 242.297C196.872 242.411 196.884 242.528 196.88 242.643C196.876 242.8 196.852 242.801 196.848 242.958L196.728 245.56C196.717 245.777 196.745 246.004 196.715 246.213L196.667 247.56C196.667 248.046 196.636 248.416 196.636 248.893L196.605 252.574C196.605 252.925 196.636 253.162 196.636 253.495C196.636 254.098 196.587 254.867 196.657 255.407L196.696 257.302C196.696 257.458 196.691 257.625 196.696 257.779L196.727 258.699C196.727 258.895 196.759 258.946 196.759 259.142C196.759 259.75 196.821 260.407 196.819 261.015C196.817 261.369 196.849 261.606 196.848 261.968L196.887 262.879C196.907 263.028 196.909 263.17 196.908 263.364C196.908 263.568 196.935 263.637 196.94 263.806C196.944 263.956 196.928 264.132 196.944 264.279C196.96 264.427 196.971 264.535 196.969 264.728C196.967 265.125 197.028 265.773 197.032 266.091C197.033 266.249 197.032 266.41 197.032 266.568C197.032 266.599 197.032 266.634 197.029 266.671C197.439 266.672 197.851 266.677 198.264 266.681C198.278 266.08 198.231 265.524 198.216 264.376C198.212 264.061 198.152 263.523 198.155 263.139C198.158 262.746 198.096 262.171 198.094 261.871C198.092 261.726 198.102 261.568 198.094 261.425C198.086 261.272 198.062 261.207 198.063 261.014C198.068 260.018 197.967 259.053 197.972 258.029L197.91 256.349C197.908 255.182 197.88 254.078 197.88 252.889C197.88 252.303 197.819 251.754 197.85 251.143L197.88 250.287C197.88 248.906 197.92 246.13 198.031 244.732C198.042 244.591 198.026 244.432 198.032 244.29C198.04 244.137 198.066 244.072 198.063 243.879L198.167 241.797C198.19 241.639 198.176 241.534 198.184 241.371L198.338 238.93C198.339 238.744 198.347 238.654 198.363 238.512C198.394 238.229 198.383 237.948 198.398 237.659L198.55 234.74C198.558 234.588 198.582 234.521 198.58 234.328C198.576 233.773 198.642 233.194 198.64 232.646C198.638 231.511 198.702 230.321 198.702 229.188L198.671 223.952C198.671 223.393 198.623 222.808 198.639 222.238C198.644 222.074 198.672 222.023 198.671 221.828V220.527C198.671 219.518 198.736 218.513 198.731 217.512C198.731 217.319 198.754 217.252 198.762 217.101C198.788 216.575 198.739 215.893 198.81 215.406C198.855 215.089 198.858 214.016 198.806 213.755C198.718 213.312 198.414 212.912 197.942 212.912C197.167 212.912 195.253 213.299 194.116 213.355C193.872 213.367 193.576 213.363 193.33 213.391C192.453 213.495 191.435 213.45 190.532 213.45C190.34 213.45 190.148 213.45 189.955 213.45C189.735 213.45 189.624 213.42 189.44 213.417C189.252 213.414 189.047 213.429 188.861 213.417C188.543 213.4 188.133 213.35 187.799 213.353C187.283 213.358 186.742 213.26 186.25 213.256L184.675 213.157C184.543 213.142 184.323 213.136 184.173 213.111L182.875 213.007C182.786 212.998 182.7 213.007 182.611 212.998L181.057 212.876C180.737 212.86 180.345 212.797 180.025 212.78C179.659 212.762 179.333 212.746 178.964 212.715C178.84 212.704 178.597 212.696 178.454 212.676L175.288 212.494L169.518 212.463C169.263 212.463 169.062 212.653 168.954 212.825C168.65 213.312 168.729 214.796 168.729 215.414L168.669 225.283C168.666 225.467 168.635 225.523 168.637 225.725C168.637 226.004 168.657 226.375 168.637 226.644C168.614 226.934 168.606 227.231 168.609 227.566C168.609 227.77 168.582 227.841 168.577 228.009C168.573 228.163 168.577 228.33 168.578 228.486C168.578 228.689 168.551 228.76 168.546 228.928C168.542 229.085 168.55 229.248 168.549 229.406C168.546 229.59 168.515 229.646 168.517 229.848L168.182 236.098C168.114 236.997 168.054 238.339 167.949 239.155L167.395 247.08C167.394 247.336 167.334 247.679 167.332 247.935L167.238 249.74C167.18 250.283 167.166 250.941 167.122 251.491C167.098 251.798 167.118 252.102 167.086 252.405C167.059 252.656 167.03 253.022 167.03 253.299L166.92 255.057C166.864 255.45 166.864 256.354 166.812 256.847L166.571 259.896C166.562 260.007 166.548 260.195 166.531 260.33C166.455 260.904 166.422 261.444 166.352 262.016C166.108 264.059 165.783 266.084 165.397 268.094C165.383 268.173 165.363 268.254 165.348 268.33L165.351 268.338ZM212.801 267.387L212.815 267.225C213.255 267.243 213.691 267.261 214.12 267.278C214.126 267.199 214.131 267.12 214.135 267.041C214.159 266.476 214.268 265.867 214.292 265.295C214.316 264.721 214.422 264.117 214.45 263.549C214.503 262.476 214.647 261.106 214.732 259.994C214.774 259.452 214.787 258.691 214.853 258.21L214.923 256.853C214.925 256.669 214.958 256.614 214.957 256.411L215.051 254.603C215.067 253.355 215.15 252.163 215.145 250.888C215.145 250.567 215.177 250.317 215.177 249.968C215.177 245.952 215.05 242.023 215.05 238.004V236.321C215.054 236.152 215.083 236.082 215.082 235.879C215.081 235.54 215.082 235.202 215.082 234.863L215.19 231.988C215.217 231.814 215.202 231.679 215.207 231.498L215.298 230.13C215.334 229.81 215.318 229.463 215.357 229.174L215.555 226.391C215.563 226.074 215.595 225.765 215.621 225.441C215.629 225.331 215.645 225.109 215.663 224.976C215.685 224.83 215.678 224.683 215.699 224.537C215.77 224.053 215.773 223.633 215.81 223.156C215.818 223.053 215.834 222.851 215.853 222.723C215.945 222.084 215.919 221.52 216.01 220.882C216.097 220.275 216.085 219.653 216.173 219.046C216.266 218.406 216.231 217.84 216.326 217.201L216.755 209.698C216.755 209.014 216.787 208.439 216.787 207.763C216.787 207.541 216.789 207.318 216.787 207.096C216.787 206.882 216.754 206.744 216.754 206.494C216.754 206.141 216.79 205.524 216.746 205.203L216.69 203.958C216.685 203.755 216.706 203.522 216.69 203.324C216.674 203.128 216.661 202.962 216.661 202.719H216.638C216.177 202.719 215.823 202.752 215.366 202.752C215.366 203.395 215.433 204.013 215.43 204.624C215.426 205.528 215.517 209.481 215.457 210.013C215.414 210.39 215.435 211.47 215.379 211.84L215.105 216.228C214.95 217.394 214.977 218.521 214.811 219.678C214.792 219.806 214.776 220.006 214.768 220.11L214.667 221.405C214.53 222.715 214.47 223.974 214.33 225.286C214.314 225.43 214.304 225.61 214.295 225.726C214.283 225.891 214.264 226.031 214.262 226.169L213.914 231.435C213.914 232.167 213.816 232.926 213.82 233.657C213.823 234.281 213.786 234.845 213.79 235.498C213.791 235.808 213.758 236.073 213.758 236.419V237.339C213.758 241.24 213.884 245.093 213.884 248.985C213.884 249.869 213.851 250.66 213.852 251.556C213.852 251.816 213.819 251.956 213.82 252.189L213.718 255.292C213.67 255.645 213.706 256.12 213.655 256.498C213.59 256.979 213.606 257.544 213.567 258.028C213.558 258.149 213.538 258.161 213.536 258.315C213.532 258.928 213.44 259.519 213.411 260.125C213.392 260.535 213.36 260.955 213.32 261.335L213.184 263.135C213.168 263.29 213.131 263.542 213.126 263.711C213.119 263.908 213.094 264.155 213.071 264.322L212.809 267.265L212.803 267.389L212.801 267.387Z" fill="black"/>
<path fill-rule="evenodd" clip-rule="evenodd" d="M223.258 90.1795C223.052 88.0904 222.819 84.5581 222.555 81.7319C222.291 78.9058 221.999 76.7872 221.559 75.0505C221.119 73.3139 220.533 71.9604 219.566 71.0184C218.6 70.0763 217.253 69.547 216.374 69.3701C215.495 69.1933 215.084 69.3701 214.822 70.4596C214.558 71.549 214.44 73.5497 214.265 75.4338C214.089 77.3179 213.855 79.084 213.768 81.7038C213.68 84.3236 213.739 87.7969 213.768 89.6797C213.797 91.5638 213.797 91.8572 214.061 92.0046C214.326 92.152 214.852 92.152 215.731 92.0341C216.61 91.9162 217.841 91.6817 219.246 91.9751C220.652 92.27 222.234 93.0941 223.024 93.4465C223.815 93.8003 223.815 93.6823 223.727 93.2991C223.639 92.9158 223.463 92.2686 223.259 90.1795H223.258Z" fill="black"/>
<path fill-rule="evenodd" clip-rule="evenodd" d="M152.695 94.6525C153.163 94.5935 153.515 94.5198 153.691 94.4836C153.809 94.4595 153.926 93.6233 154.043 91.9751C154.219 89.5027 154.57 84.558 154.278 80.6719C153.985 76.7872 153.048 73.9611 152.286 72.077C151.524 70.1929 150.939 69.2508 150.176 68.5447C149.415 67.8385 148.477 67.3668 147.54 68.0743C146.602 68.7805 145.665 70.6646 145.196 72.7832C144.728 74.9018 144.728 77.2575 144.728 79.4941V86.087C144.728 88.3235 144.728 90.678 144.67 92.9158C144.611 95.1523 144.494 97.2722 144.435 98.3322C144.396 99.0389 144.494 99.1956 144.728 98.8026C145.08 98.2143 145.783 97.0364 146.895 96.2712C148.009 95.5061 149.532 95.1523 150.587 94.954C151.642 94.7557 152.227 94.7114 152.695 94.6525Z" fill="black"/>
<path fill-rule="evenodd" clip-rule="evenodd" d="M184.802 127.104C182.698 127.162 180.423 127.238 178.982 127.313C177.542 127.39 176.935 127.466 176.385 127.77C175.835 128.074 175.342 128.608 175.379 129.275C175.418 129.941 175.986 130.742 177.161 131.885C178.336 133.028 180.119 134.514 181.369 135.41C182.62 136.305 183.342 136.61 184.498 136.248C185.654 135.887 187.246 134.858 188.517 133.505C189.788 132.153 190.735 130.477 191.21 129.429C191.683 128.381 191.683 127.962 191.532 127.658C191.38 127.352 191.078 127.162 189.959 127.087C188.84 127.01 186.906 127.049 184.802 127.105V127.104Z" fill="black"/>
<path fill-rule="evenodd" clip-rule="evenodd" d="M156.126 129.57C155.374 129.57 154.679 129.485 154.031 129.377C153.029 129.209 151.926 128.793 151.16 128.111C151.122 128.076 151.116 128.078 151.078 128.046C150.947 127.936 150.903 127.859 150.804 127.753L150.441 127.253C150.295 127.005 150.173 126.772 150.059 126.478C149.841 125.921 149.716 125.302 149.619 124.624C149.571 124.291 149.552 123.872 149.512 123.593C149.487 123.418 149.496 123.241 149.471 123.067C149.441 122.872 149.453 122.713 149.436 122.511L149.355 120.886C149.353 120.767 149.332 120.74 149.332 120.614C149.332 120.157 149.291 119.651 149.291 119.223C149.291 118.833 149.271 118.502 149.269 118.104V118.086C149.429 118.086 149.503 118.064 149.668 118.064H150.297C150.297 118.251 150.32 118.358 150.319 118.528C150.319 118.693 150.313 118.871 150.319 119.034C150.321 119.14 150.34 119.151 150.341 119.265C150.353 120.196 150.396 121.224 150.445 122.153L150.572 123.796C150.589 124.208 150.744 125.166 150.852 125.538C151.158 126.599 151.542 127.296 152.586 127.821C154.373 128.718 157.82 128.831 159.632 127.735C159.999 127.513 160.184 127.324 160.467 127.036C160.514 126.989 160.54 126.949 160.582 126.898C161.245 126.083 161.635 124.775 161.811 123.708C161.958 122.819 162.018 122.328 162.111 121.438C162.126 121.292 162.135 121.118 162.155 120.956L162.338 118.295C162.338 118.173 162.357 118.135 162.359 118.042H162.541C162.575 118.042 162.61 118.046 162.645 118.051C162.754 118.067 162.837 118.055 162.946 118.064C163.565 118.115 163.362 117.996 163.366 118.505L163.184 121.124C163.158 121.325 163.149 121.507 163.134 121.706L163.001 122.816C162.945 123.199 162.9 123.524 162.834 123.891C162.708 124.608 162.439 125.66 162.143 126.295C161.95 126.71 161.941 126.726 161.719 127.091C161.638 127.225 161.555 127.347 161.462 127.465C161.093 127.928 160.676 128.322 160.152 128.634C159.651 128.935 159.027 129.2 158.375 129.335C157.644 129.487 156.903 129.568 156.132 129.568L156.126 129.57ZM188.154 150.031C187.981 150.078 187.417 150.567 187.273 150.579C187.257 150.512 186.902 149.98 186.82 149.854C186.41 149.227 185.953 148.503 185.587 147.846C185.122 147.01 184.679 146.112 184.381 145.204C184.056 144.22 183.836 143.435 183.662 142.364C183.607 142.032 183.555 141.696 183.506 141.341C183.454 140.972 183.284 139.233 183.287 138.884C183.288 138.729 183.243 138.312 183.244 138.041C183.246 137.732 183.202 137.211 183.203 136.904C183.204 136.49 183.182 136.144 183.182 135.723H183.811C183.975 135.723 184.05 135.702 184.21 135.702L184.248 136.801C184.267 136.968 184.246 137.192 184.251 137.367C184.254 137.475 184.274 137.497 184.274 137.619C184.274 137.716 184.27 137.819 184.274 137.916C184.276 138.024 184.296 138.046 184.296 138.167C184.296 138.937 184.438 140.336 184.525 141.099C184.663 142.309 184.962 143.69 185.353 144.841C185.514 145.318 185.794 145.981 186.023 146.443C186.341 147.083 186.868 148.018 187.266 148.629C187.421 148.866 187.557 149.087 187.712 149.321C187.781 149.425 188.14 149.961 188.156 150.032L188.154 150.031ZM217.205 119.497V119.506C217.205 119.707 217.19 119.847 217.185 120.045C217.181 120.202 217.146 120.435 217.142 120.592L217.077 121.706C217.039 122.046 217.033 122.425 216.983 122.772L216.871 123.838C216.717 125.184 216.443 126.591 215.989 127.631C215.788 128.09 215.548 128.534 215.236 128.919L215.102 129.079C215.003 129.185 214.932 129.272 214.83 129.374L214.515 129.648C214.271 129.849 213.921 130.072 213.639 130.222C213.569 130.259 213.512 130.277 213.436 130.314C213.357 130.35 213.32 130.372 213.235 130.406C211.658 131.036 209.494 131.104 207.814 130.765C206.883 130.577 206.139 130.323 205.355 129.802L204.888 129.428C204.721 129.266 204.499 128.996 204.369 128.811C203.82 128.026 203.58 126.974 203.442 126.012C203.421 125.863 203.393 125.66 203.384 125.503L203.236 123.65C203.23 123.064 203.152 122.316 203.153 121.711L203.133 120.888C203.133 120.76 203.112 120.735 203.11 120.616C203.105 120.212 203.09 119.875 203.09 119.477L204.119 119.455C204.119 119.608 204.14 119.738 204.14 119.919L204.181 121.606C204.183 121.72 204.201 121.731 204.204 121.836L204.244 123.038C204.244 123.154 204.26 123.174 204.265 123.269C204.269 123.344 204.261 123.426 204.265 123.501L204.307 123.966C204.313 124.049 204.303 124.128 204.313 124.212L204.391 125.125C204.461 126.177 204.677 127.392 205.247 128.247C205.791 129.063 206.851 129.496 207.772 129.692C209.469 130.054 212.06 130.07 213.556 129.065L213.982 128.734C214.255 128.502 214.618 128.068 214.779 127.745C214.839 127.624 214.895 127.541 214.954 127.415C215.068 127.168 215.151 126.943 215.242 126.671C215.834 124.889 215.943 122.768 216.093 120.889C216.106 120.72 216.113 120.573 216.114 120.405L216.178 119.436L217.206 119.499L217.205 119.497Z" fill="black"/>
</g>
<defs>
<clipPath id="clip0_35_568">
<rect width="38" height="39" fill="white" transform="translate(0.239746 168.129) rotate(-68.8036)"/>
</clipPath>
<clipPath id="clip1_35_568">
<rect width="17.1961" height="22.2912" fill="white" transform="translate(182.512) rotate(11.6782)"/>
</clipPath>
<clipPath id="clip2_35_568">
<rect width="142" height="243" fill="white" transform="matrix(-1 0 0 1 236 62)"/>
</clipPath>
</defs>
</svg>
