<svg width="211" height="373" viewBox="0 0 211 373" fill="none" xmlns="http://www.w3.org/2000/svg">
<g clip-path="url(#clip0_35_651)">
<path fill-rule="evenodd" clip-rule="evenodd" d="M81.0436 99.0741C76.5291 99.721 69.1926 100.734 63.042 101.409C56.8914 102.084 51.9248 102.421 48.9346 102.872C45.9444 103.323 44.9287 103.885 44.0247 104.56C43.1225 105.235 42.332 106.023 42.784 107.204C43.236 108.386 44.9287 109.961 47.5804 111.875C50.2321 113.789 53.8444 116.039 58.1889 117.726C62.5351 119.414 67.6133 120.54 72.9734 121.045C78.3352 121.553 83.9772 121.439 87.4761 121.609C90.975 121.779 92.3292 122.228 93.063 122.454C93.7969 122.678 93.9103 122.678 94.6424 123.748C95.3762 124.817 96.7304 126.955 97.9162 130.893C99.102 134.832 100.118 140.571 99.834 153.822C99.5522 167.073 97.9711 187.835 94.6991 204.968C91.4253 222.102 86.4604 235.606 83.9771 248.659C81.4939 261.713 81.4939 274.317 78.3335 288.272C75.1731 302.226 68.8523 317.531 62.0813 330.023C55.3103 342.514 48.0856 352.192 45.6023 357.706C43.119 363.22 45.3772 364.57 47.8604 365.245C50.3437 365.92 53.0521 365.92 57.1147 362.995C61.1773 360.069 66.5959 354.217 71.1105 345.665C75.6251 337.113 79.2375 325.859 83.3001 312.805C87.3627 299.752 91.8772 284.896 94.8125 274.994C97.7478 265.092 99.102 260.14 99.7791 257.664C100.231 256.013 101.51 255.188 103.617 255.188H116.258C118.365 255.188 119.343 257.363 119.193 261.714C118.968 268.241 118.516 281.294 115.581 297.05C112.646 312.805 107.229 331.26 102.489 344.089C97.7496 356.918 93.6852 364.119 93.6852 368.396C93.6852 372.673 97.7478 374.023 101.812 372.222C105.875 370.422 109.939 365.47 114.227 356.918C118.516 348.366 123.031 336.212 126.191 324.282C129.352 312.353 131.158 300.65 132.512 290.073C133.866 279.495 134.77 270.042 135.22 265.316C135.522 262.166 136.801 260.59 139.058 260.59C142.443 260.59 149.216 260.59 156.891 261.041C164.566 261.492 173.143 262.391 184.881 262.391C196.619 262.391 211.516 261.492 218.966 261.041C223.933 260.741 226.491 262.691 226.641 266.893C226.866 273.195 227.318 285.797 227.318 298.853C227.318 311.908 226.866 325.41 225.512 336.889C224.158 348.367 221.9 357.821 221.9 362.771C221.9 367.721 224.156 368.172 226.414 367.723C228.673 367.272 230.929 365.922 233.412 360.97C235.896 356.018 238.604 347.466 239.733 335.312C240.862 323.158 240.41 307.405 240.41 294.8C240.41 282.196 240.862 272.744 241.087 268.017C241.237 264.866 242.968 263.291 246.279 263.291H266.144C269.455 263.291 271.336 265.842 271.787 270.943C272.464 278.596 273.819 293.901 274.045 307.405C274.271 320.909 273.368 332.612 271.787 341.165C270.208 349.718 267.95 355.12 267.273 358.72C266.596 362.322 267.498 364.121 268.854 364.796C270.208 365.471 272.014 365.021 274.723 362.546C277.431 360.07 281.043 355.569 283.977 348.592C286.912 341.614 289.168 332.161 290.298 320.233C291.427 308.304 291.427 293.901 290.75 279.271C290.072 264.641 288.718 249.787 287.364 237.182C286.01 224.578 284.656 214.225 283.752 209.049C282.849 203.872 282.397 203.872 275.625 204.772C268.852 205.671 255.76 207.472 242.216 207.023C228.673 206.573 214.677 203.872 203.164 198.021C191.652 192.169 182.623 183.166 174.948 173.262C167.273 163.36 160.952 152.556 156.099 142.879C151.246 133.201 147.86 124.649 145.038 116.883C142.217 109.118 139.96 102.14 139.17 91.5631C138.379 80.984 139.056 66.8048 138.379 57.2402C137.702 47.6755 135.671 42.7235 134.316 40.8112C132.962 38.8972 132.285 40.023 131.043 48.013C129.802 56.003 127.996 70.8573 126.98 78.3966C125.964 85.936 125.739 86.1622 122.352 86.0491C118.967 85.936 112.421 85.4871 109.147 85.2608C106.964 85.1112 105.836 84.0231 105.761 81.9966C105.648 78.9586 105.423 72.8808 105.198 65.3415C104.973 57.8022 104.746 48.7995 104.069 44.2981C103.391 39.7968 102.262 39.7968 100.456 42.2728C98.65 44.7488 96.1667 49.7008 94.7009 56.3388C93.2332 62.9786 92.783 71.3062 92.331 78.0573C91.879 84.8102 91.4288 89.9866 90.8634 93.0246C90.2997 96.0626 89.6226 96.964 88.4368 97.5543C87.251 98.1445 85.5582 98.4273 81.0436 99.0741Z" fill="#FFD982"/>
<path fill-rule="evenodd" clip-rule="evenodd" d="M37.2181 94.8257C34.8004 94.8257 31.9963 95.8737 30.7361 98.4593C29.474 101.045 29.7559 105.168 32.2073 107.439C34.6604 109.71 39.2849 110.129 42.1245 108.837C44.9623 107.545 46.0134 104.539 45.9797 102.268C45.9442 99.9968 44.824 98.4593 43.2465 97.1674C41.6689 95.8755 39.6376 94.8275 37.2199 94.8275L37.2181 94.8257Z" fill="black"/>
<path fill-rule="evenodd" clip-rule="evenodd" d="M95.0075 98.2895C94.7612 99.205 94.7612 100.804 95.0075 101.948C95.2539 103.091 95.7449 103.777 96.204 104.088C96.6631 104.399 97.0885 104.334 97.2693 103.565C97.4501 102.798 97.3845 101.328 97.3348 100.216C97.2852 99.106 97.2533 98.3549 97.0725 97.8636C96.8917 97.374 96.5638 97.1443 96.1544 97.1443C95.7449 97.1443 95.2539 97.3723 95.0075 98.2877V98.2895Z" fill="black"/>
<path fill-rule="evenodd" clip-rule="evenodd" d="M115.271 98.5952C115.024 99.5106 115.024 101.11 115.271 102.253C115.517 103.397 116.008 104.083 116.467 104.394C116.926 104.705 117.352 104.639 117.532 103.871C117.713 103.104 117.648 101.633 117.598 100.522C117.548 99.4117 117.516 98.6606 117.336 98.1692C117.155 97.6797 116.827 97.45 116.418 97.45C116.008 97.45 115.517 97.6779 115.271 98.5934V98.5952Z" fill="black"/>
<path fill-rule="evenodd" clip-rule="evenodd" d="M100.192 256.301C100.513 255.485 100.901 255.267 102.039 255.209C101.358 254.772 100.61 254.258 100.149 253.857C99.2419 253.067 99.2207 253.069 98.361 252.107C97.8576 251.544 97.2798 250.646 96.904 249.994C96.3279 248.997 95.8547 247.898 95.4098 246.761C94.4969 244.432 93.8712 241.795 93.4033 239.319C93.0612 237.511 92.7616 234.942 92.5897 233.031C92.5737 232.854 92.6003 232.771 92.5294 232.748H92.393C92.3681 232.752 92.3398 232.755 92.3096 232.761L90.6523 232.909L91.1132 237.204C91.1557 237.529 91.216 237.904 91.2639 238.243C91.629 240.91 92.4816 244.34 93.3962 246.876C93.6107 247.472 93.8358 248.03 94.0733 248.61C94.3303 249.241 94.9259 250.45 95.2556 250.998C95.3335 251.127 95.3885 251.231 95.4683 251.363C95.5533 251.505 95.6189 251.602 95.7022 251.742C95.9008 252.077 96.6683 253.134 96.9607 253.442C97.4092 253.91 97.9232 254.536 98.4691 254.956L99.1179 255.499C99.4724 255.785 99.8304 256.05 100.194 256.303L100.192 256.301ZM215.086 261.271C216.07 261.213 216.99 261.158 217.835 261.107L215.669 261.209C215.483 261.23 215.317 261.236 215.084 261.236V261.271H215.086ZM224.154 260.947C225.482 261.131 226.055 261.677 226.331 262.936C226.407 262.936 226.484 262.936 226.554 262.941C227.285 263.001 228.036 263.012 228.777 263.07C230.599 263.213 232.273 263.402 234.073 263.637C236.543 263.961 238.983 264.323 241.447 264.636C241.894 263.293 243.012 263.291 246.277 263.291H250.173V263.261C249.422 263.261 248.558 263.302 247.821 263.261L245.598 263.132C244.136 263.063 242.732 262.833 241.346 262.681C240.146 262.55 238.398 262.284 237.213 262.112C236.511 262.011 235.853 261.927 235.146 261.828L229.851 261.227L227.104 261.043C226.858 261.045 226.741 261.009 226.524 261.009L224.816 260.979C224.576 260.979 224.477 260.946 224.236 260.946H224.153L224.154 260.947Z" fill="white"/>
<path fill-rule="evenodd" clip-rule="evenodd" d="M44.6626 362.753C44.7672 363.121 44.9267 363.434 45.1288 363.704C45.3929 363.411 45.6641 363.138 45.8715 362.903C46.093 362.652 46.3589 362.416 46.6035 362.175L48.9113 359.491C49.0442 359.323 49.1435 359.24 49.2428 359.091C49.1346 358.93 48.6897 358.603 48.5107 358.483C48.2537 358.655 48.0233 359.033 47.7946 359.289L46.3908 360.931C46.1143 361.203 45.9388 361.442 45.657 361.719C45.3769 361.998 45.0189 362.355 44.6626 362.753ZM47.1477 365.026L47.2292 364.985C47.9027 364.653 48.4983 364.176 49.0141 363.663C49.7852 362.895 51.641 360.519 51.8679 360.367C52.0362 360.411 52.5184 360.852 52.5999 360.975C52.5042 361.118 52.3163 361.334 52.1887 361.477C52.054 361.627 51.921 361.788 51.7987 361.938C50.6679 363.329 49.8667 364.459 48.4806 365.397C48.2732 365.353 48.0676 365.302 47.8638 365.245C47.6227 365.18 47.3834 365.107 47.1494 365.026H47.1477ZM93.9065 370.001C94.0271 370.399 94.1919 370.755 94.3975 371.075C94.83 370.388 95.3901 369.626 95.578 369.377L96.5635 368.11C96.7479 367.866 96.8861 367.705 97.0616 367.451C97.2158 367.228 97.4445 367.003 97.5136 366.745C97.2442 366.565 96.9925 366.38 96.7195 366.199C96.0389 367.212 95.3777 367.926 94.8637 368.665L94.0714 369.759C94.0235 369.828 93.9686 369.909 93.9065 369.999V370.001ZM97.4888 372.936C97.7972 372.761 98.0028 372.487 98.29 372.201C99.8196 370.678 101.169 368.023 101.417 367.841C101.566 367.88 101.674 367.961 101.817 368.05C101.977 368.147 102.058 368.188 102.209 368.267C102.147 368.532 101.86 368.939 101.718 369.176C100.695 370.876 100.201 371.671 98.9068 372.981C98.414 373.018 97.9372 373.002 97.487 372.936H97.4888ZM223.1 367.085C223.405 367.389 223.755 367.588 224.135 367.709C224.004 366.36 224.078 365.19 224.379 363.768C224.44 363.483 224.507 363.324 224.507 362.983C224.206 362.958 223.913 362.827 223.592 362.801C223.387 363.227 223.105 365.081 223.105 365.717C223.105 366.129 223.094 366.602 223.103 367.087L223.1 367.085ZM226.547 367.695C226.875 367.624 227.205 367.532 227.533 367.414C227.577 366.745 227.689 366.21 227.978 364.86C228.128 364.153 228.371 363.487 228.532 362.799C228.224 362.774 227.862 362.628 227.556 362.555L227.129 364.135C226.74 365.595 226.599 366.509 226.547 367.695ZM267.843 363.951C268.118 364.319 268.448 364.589 268.811 364.778C268.82 362.999 269.458 360.731 269.807 359.664C269.887 359.422 269.933 359.169 270.029 358.973C269.853 358.932 269.192 358.736 269.052 358.669C269.033 358.902 268.93 359.114 268.869 359.337C268.799 359.591 268.74 359.759 268.66 360.04C268.378 361.03 267.969 362.513 267.843 363.951ZM271.223 364.872C271.558 364.759 271.915 364.596 272.292 364.381C272.313 364.13 272.335 363.904 272.358 363.722C272.464 362.841 272.675 361.875 272.872 361.014C273.111 359.961 273.552 358.869 273.629 358.547C273.382 358.416 273.014 358.252 272.714 358.183L272.34 359.208C272.227 359.545 272.127 359.911 272.032 360.298C271.845 361.044 271.674 361.808 271.521 362.645C271.386 363.381 271.305 364.126 271.225 364.874L271.223 364.872Z" fill="black"/>
<path fill-rule="evenodd" clip-rule="evenodd" d="M129.545 86.8603C129.644 83.338 129.869 79.8776 130.364 75.0511C130.858 70.2246 131.62 64.0302 132.143 59.5978C132.666 55.1653 132.948 52.4932 133.26 50.8549C133.57 49.2148 133.91 48.6086 134.249 49.5488C134.588 50.489 134.928 52.9792 135.266 55.8634C135.605 58.7477 135.945 62.026 136.057 65.5182C136.17 69.0105 136.057 72.713 135.915 77.0252C135.773 81.3357 135.605 86.2541 135.463 90.3525L135.355 93.4912C134.884 92.8992 134.377 92.2753 133.781 91.6444C132.863 90.6724 131.732 89.6862 130.575 88.8556C130.218 88.6011 129.86 88.3607 129.515 88.1327C129.524 87.7104 129.532 87.2862 129.545 86.862V86.8603Z" fill="black"/>
<path fill-rule="evenodd" clip-rule="evenodd" d="M91.9375 122.141C92.4462 122.259 92.7972 122.371 93.0648 122.454C93.4814 122.581 93.6994 122.638 93.9422 122.859C97.7389 120.75 99.0364 116.799 100.119 114.945C100.602 114.119 100.719 114.262 99.0754 113.679C98.7315 114.957 96.0692 119.718 94.2684 120.943C93.6533 121.36 92.7068 121.791 91.9375 122.143V122.141Z" fill="black"/>
<g clip-path="url(#clip1_35_651)">
<path d="M178.599 66.5467C176.532 64.3309 172.383 64.6217 171.26 67.6823C170.781 68.9842 170.959 70.5768 171.794 71.6986C172.643 72.8481 174.053 73.2774 175.422 72.945C176.901 72.5849 178.092 71.3939 178.27 69.8428C178.311 69.4966 177.791 69.275 177.558 69.552C175.464 72.1002 175.915 76.5735 179.284 77.7368C180.708 78.2354 182.419 78.0138 183.624 77.072C184.829 76.1303 185.267 74.6207 184.925 73.1527C184.555 71.5324 183.295 70.2029 181.625 70.0367C181.091 69.9813 181.105 70.8261 181.625 70.8676C183.117 71.02 184.131 72.5157 184.213 73.9421C184.309 75.604 183.076 76.8366 181.502 77.0997C179.872 77.3767 178.243 76.6289 177.504 75.1193C176.723 73.5267 177.024 71.4908 178.133 70.1336L177.421 69.8428C177.271 71.2139 175.915 72.1556 174.615 72.2248C173.109 72.2941 172.027 71.1169 171.835 69.6766C171.643 68.1948 172.355 66.7129 173.779 66.1589C175.217 65.5911 176.929 66.0066 177.983 67.1422C178.353 67.53 178.928 66.9483 178.572 66.5467H178.599Z" fill="#195974"/>
<path d="M178.407 66.5051C182.83 62.6689 187.115 58.6665 191.25 54.4979C191.634 54.124 191.045 53.5285 190.662 53.9024C186.527 58.0572 182.241 62.0595 177.819 65.9096C177.408 66.2558 177.997 66.8513 178.407 66.5051Z" fill="#195974"/>
<path d="M182.556 70.743C186.102 67.0453 189.648 63.3338 193.194 59.6361C193.564 59.2483 192.975 58.6528 192.606 59.0406C189.059 62.7383 185.513 66.4498 181.967 70.1475C181.597 70.5353 182.186 71.1308 182.556 70.743Z" fill="#195974"/>
<path d="M192.757 57.7941C192.346 58.9435 193.058 60.2038 194.126 60.6885C195.372 61.2563 196.81 60.6747 197.727 59.7468C198.726 58.7358 199.274 57.2124 198.877 55.8136C198.521 54.5257 197.494 53.2516 196.207 52.8084C194.92 52.3652 193.345 52.9884 192.976 54.3733C193.25 54.4149 193.523 54.4426 193.784 54.4841C193.619 52.9053 193.373 51.2019 192.209 50.0247C191.223 49.0137 189.731 48.626 188.485 49.4015C187.348 50.1078 186.719 51.465 186.979 52.7945C187.239 54.2071 188.348 55.2874 189.662 55.7444C190.169 55.9244 190.388 55.1073 189.881 54.9411C188.896 54.5949 188.06 53.7778 187.814 52.7391C187.567 51.6866 188.101 50.5648 189.046 50.0524C190.073 49.5123 191.182 50.0247 191.853 50.8695C192.661 51.8805 192.825 53.2516 192.962 54.4841C193.003 54.9273 193.647 55.0796 193.77 54.5949C194.112 53.2654 195.714 53.307 196.618 53.9579C197.658 54.7196 198.384 56.1045 198.083 57.4063C197.809 58.625 196.81 59.7883 195.55 60.0238C194.413 60.2453 193.085 59.2482 193.523 58.0018C193.701 57.4894 192.907 57.2678 192.729 57.7802L192.757 57.7941Z" fill="#195974"/>
</g>
</g>
<g clip-path="url(#clip2_35_651)">
<path d="M8.72493 215.772C6.90139 213.79 7.1884 210.592 4.50034 209.23C2.13703 208.031 0.103451 210.128 0.267249 212.418C0.389867 213.863 1.09566 215.229 1.71167 216.523C2.4158 217.995 3.19293 219.45 4.02543 220.854C5.68989 223.695 7.5381 226.417 9.40449 229.139C9.63555 229.477 10.1083 229.484 10.3499 229.154C13.529 224.77 16.821 220.141 17.3445 214.642C17.4736 213.377 17.421 212.109 17.2041 210.874C17.0029 209.797 16.7119 208.649 15.7777 207.93C14.2149 206.709 11.9168 207.13 10.5153 208.357C8.26553 210.328 8.19724 213.494 7.41006 216.121C7.21768 216.787 8.26771 217.085 8.4601 216.419C9.19078 213.914 9.20982 210.413 11.6907 208.781C12.6279 208.162 13.9761 208.007 14.966 208.656C16.1901 209.45 16.2649 211.616 16.2994 212.883C16.4598 218.833 12.7782 223.948 9.39466 228.611L10.3401 228.626C7.33627 224.232 4.33303 219.803 2.17279 214.965C1.62839 213.742 0.942445 212.271 1.56329 210.961C2.24035 209.546 3.76364 209.817 4.74911 210.747C6.39753 212.304 6.35744 214.837 7.8951 216.498C8.35973 217.016 9.15347 216.272 8.68885 215.754L8.72493 215.772Z" fill="#87529D"/>
</g>
<g clip-path="url(#clip3_35_651)">
<path d="M75.8158 5.82587C75.4199 4.06769 74.3494 2.49105 72.9098 1.42202C70.742 -0.191606 67.5675 -0.500885 65.1715 0.850527C62.9735 2.091 61.4803 4.43412 61.091 6.90835C61.0776 6.98231 61.0675 7.05963 61.0574 7.13358C60.8628 8.63963 61.1346 10.1995 61.9333 11.5005C62.6615 12.6838 63.7655 13.6183 65.0239 14.1966C67.6145 15.39 70.9064 15.3328 73.1984 13.5175C75.4467 11.7391 76.4333 8.59929 75.8125 5.82924L75.8158 5.82587ZM73.2084 12.0988C69.8091 15.7497 62.3762 13.7091 62.0507 8.46819C61.9299 6.48141 62.7185 4.45765 64.0407 2.98858C66.0944 0.712697 69.4131 0.272311 71.9735 2.0036C73.1279 2.78352 74.0709 3.92314 74.5642 5.23757C75.4232 7.53699 74.8829 10.3003 73.2084 12.0988Z" fill="#FAAB37"/>
<path d="M64.4902 1.38504C64.0841 2.01368 63.5908 2.64904 63.5204 3.41888C63.46 4.0845 63.7888 4.71986 64.2586 5.17033C65.3391 6.20238 66.9264 6.37047 68.2217 7.00583C68.8157 7.2983 69.3626 7.69499 69.7116 8.26648C70.0506 8.82452 70.0774 9.39938 69.8559 10.0079C69.4331 11.171 68.366 11.877 67.2318 12.2367C66.0774 12.6031 64.6915 12.7813 63.5908 12.156C63.215 11.9442 62.866 12.4283 63.1412 12.7376C63.9969 13.699 65.5338 13.5881 66.6747 13.3561C67.923 13.1006 69.1881 12.5594 70.0136 11.5542C70.9398 10.4213 71.2955 8.89848 70.4096 7.63111C69.4734 6.29315 67.923 5.88302 66.47 5.35187C65.7821 5.09974 64.96 4.77365 64.5673 4.10803C64.0942 3.30794 64.8056 2.47423 65.215 1.80861C65.5002 1.3447 64.7787 0.927842 64.4868 1.38167L64.4902 1.38504Z" fill="#FAAB37"/>
</g>
<defs>
<clipPath id="clip0_35_651">
<rect width="310" height="333" fill="white" transform="translate(30.0005 40)"/>
</clipPath>
<clipPath id="clip1_35_651">
<rect width="28" height="29" fill="white" transform="translate(171 49)"/>
</clipPath>
<clipPath id="clip2_35_651">
<rect width="17.183" height="22.2743" fill="white" transform="translate(0.353027 207) rotate(0.906628)"/>
</clipPath>
<clipPath id="clip3_35_651">
<rect width="15" height="15" fill="white" transform="translate(61.0005)"/>
</clipPath>
</defs>
</svg>
