<svg width="275" height="258" viewBox="0 0 275 258" fill="none" xmlns="http://www.w3.org/2000/svg">
<g clip-path="url(#clip0_35_620)">
<path d="M47.3129 23.5975C44.507 20.6175 38.8767 21.0087 37.353 25.1247C36.7026 26.8754 36.9442 29.0173 38.0777 30.5258C39.2298 32.0717 41.1437 32.6491 43.0019 32.2021C45.0087 31.7178 46.6254 30.1161 46.8669 28.0301C46.9227 27.5645 46.2166 27.2665 45.9007 27.639C43.0576 31.066 43.6708 37.0817 48.242 38.6462C50.1745 39.3167 52.4972 39.0187 54.1324 37.7522C55.7677 36.4857 56.3623 34.4556 55.8977 32.4814C55.396 30.3024 53.6865 28.5144 51.4195 28.2909C50.6948 28.2164 50.7134 29.3525 51.4195 29.4084C53.4449 29.6132 54.82 31.6247 54.9315 33.543C55.0615 35.778 53.3892 37.4356 51.2523 37.7895C49.041 38.162 46.8298 37.1562 45.8263 35.1261C44.7672 32.9843 45.176 30.2465 46.6811 28.4213L45.7148 28.0301C45.5104 29.874 43.6708 31.1405 41.9056 31.2336C39.8615 31.3267 38.3936 29.7436 38.1334 27.8067C37.8733 25.8138 38.8395 23.821 40.7721 23.076C42.7232 22.3124 45.0459 22.8711 46.4767 24.3983C46.9784 24.9198 47.7589 24.1376 47.2757 23.5975H47.3129Z" fill="#FAAB37"/>
<path d="M47.0528 23.5417C53.0547 18.3827 58.8709 13.0002 64.4826 7.39413C65.0029 6.89127 64.2039 6.09041 63.6836 6.59328C58.0719 12.1807 52.2557 17.5632 46.2538 22.7408C45.6963 23.2065 46.4953 24.0073 47.0528 23.5417Z" fill="#FAAB37"/>
<path d="M52.6829 29.2408C57.4957 24.268 62.3084 19.2766 67.1211 14.3038C67.6228 13.7823 66.8238 12.9815 66.3221 13.503C61.5094 18.4757 56.6966 23.4671 51.8839 28.4399C51.3822 28.9614 52.1812 29.7623 52.6829 29.2408Z" fill="#FAAB37"/>
<path d="M66.5266 11.8267C65.9692 13.3725 66.9354 15.0674 68.3848 15.7192C70.0758 16.4828 72.0269 15.7006 73.2719 14.4528C74.6283 13.0932 75.3716 11.0444 74.8327 9.16335C74.3496 7.43126 72.956 5.71779 71.2093 5.12181C69.4626 4.52582 67.3256 5.36393 66.8239 7.22639C67.1956 7.28226 67.5672 7.31951 67.9203 7.37539C67.6973 5.25218 67.3628 2.96135 65.7834 1.37825C64.4455 0.0186546 62.42 -0.502835 60.7291 0.540145C59.1868 1.49 58.332 3.31522 58.6851 5.10318C59.0381 7.00289 60.5433 8.45562 62.3271 9.07023C63.0146 9.31235 63.312 8.2135 62.6244 7.99C61.2865 7.52438 60.153 6.42553 59.8186 5.02868C59.4841 3.61321 60.2088 2.10461 61.4909 1.4155C62.8846 0.689142 64.3897 1.37825 65.3002 2.51436C66.3966 3.87396 66.6195 5.71779 66.8054 7.37539C66.8611 7.97138 67.7345 8.17625 67.9017 7.52438C68.3662 5.73642 70.5403 5.79229 71.7667 6.66765C73.1789 7.69201 74.1638 9.55447 73.755 11.3052C73.3834 12.9442 72.0269 14.5086 70.3173 14.8252C68.775 15.1232 66.9726 13.7823 67.5672 12.106C67.8088 11.4169 66.731 11.1189 66.4895 11.8081L66.5266 11.8267Z" fill="#FAAB37"/>
</g>
<g clip-path="url(#clip1_35_620)">
<path d="M261.371 119.574C258.457 116.506 258.829 111.474 254.571 109.401C250.829 107.576 247.686 110.921 248 114.515C248.229 116.782 249.371 118.911 250.371 120.929C251.514 123.224 252.771 125.491 254.114 127.675C256.8 132.098 259.771 136.328 262.771 140.558C263.143 141.083 263.886 141.083 264.257 140.558C269.143 133.591 274.2 126.237 274.886 117.584C275.057 115.593 274.943 113.603 274.571 111.668C274.229 109.981 273.743 108.184 272.257 107.078C269.771 105.198 266.171 105.917 264 107.88C260.514 111.032 260.486 116.008 259.314 120.155C259.029 121.205 260.686 121.648 260.971 120.597C262.057 116.644 262 111.142 265.857 108.516C267.314 107.521 269.429 107.244 271 108.239C272.943 109.456 273.114 112.856 273.2 114.847C273.6 124.191 267.943 132.319 262.743 139.728H264.229C259.4 132.9 254.571 126.016 251.057 118.468C250.171 116.561 249.057 114.266 250 112.193C251.029 109.953 253.429 110.34 255 111.778C257.629 114.183 257.629 118.164 260.086 120.735C260.829 121.537 262.057 120.348 261.314 119.547L261.371 119.574Z" fill="#E86F69"/>
</g>
<path fill-rule="evenodd" clip-rule="evenodd" d="M149.447 65.1767C156.776 67.2998 167.105 69.6336 177.349 69.4659C187.594 69.3002 197.754 66.6351 207.167 61.7199C216.578 56.8068 225.24 49.6437 230.489 46.3956C235.735 43.1475 237.568 43.8143 237.652 46.9786C237.736 50.1428 236.069 55.8066 232.487 64.0537C228.906 72.2988 223.41 83.1273 214.663 91.2885C205.917 99.4518 193.925 104.948 186.261 108.28C178.599 111.612 175.267 112.778 173.602 113.361C172.492 113.749 172.242 116.734 172.853 122.313C173.769 130.683 175.602 147.425 174.518 162.625C173.436 177.824 169.437 191.483 167.439 199.313C165.44 207.143 165.44 209.142 165.44 210.142C165.44 211.142 165.44 211.142 165.939 218.137C166.438 225.135 167.439 239.127 166.105 246.288C164.773 253.452 161.108 253.785 158.609 252.451C156.111 251.12 154.778 248.121 153.278 242.29C151.779 236.46 150.114 227.798 149.279 223.466C148.724 220.579 147.447 219.191 145.448 219.301C142.45 219.467 136.453 219.8 133.454 219.968C131.455 220.078 130.344 221.633 130.122 224.632C129.789 229.129 129.124 238.125 128.289 244.12C127.457 250.118 126.457 253.116 124.624 254.615C122.791 256.115 120.126 256.115 117.794 254.949C115.462 253.783 113.464 251.451 112.13 245.454C110.797 239.457 110.132 229.796 109.799 224.965C109.576 221.744 107.411 219.967 103.302 219.635C97.1396 219.136 84.8118 218.135 72.3184 217.97C59.825 217.804 47.1638 218.469 32.3386 219.303C17.5134 220.136 0.522064 221.136 -11.3046 221.803C-23.1312 222.47 -29.7952 222.803 -33.1272 222.969C-35.3485 223.079 -36.4592 223.912 -36.4592 225.466C-36.4592 227.798 -36.4592 232.464 -36.7926 238.127C-37.126 243.791 -37.7928 250.455 -39.1243 254.118C-40.458 257.784 -42.4563 258.449 -44.4547 257.616C-46.4531 256.784 -48.4515 254.452 -49.9528 248.788C-51.4521 243.124 -52.4523 234.128 -52.9514 229.631C-53.2841 226.632 -55.2273 225.077 -58.7808 224.967C-64.1112 224.801 -74.7719 224.468 -80.1023 224.3C-83.6559 224.19 -85.4886 225.189 -85.6004 227.299C-85.7661 230.463 -86.0995 236.794 -86.2672 241.625C-86.4329 246.456 -86.4329 249.788 -87.4331 252.453C-88.4333 255.119 -90.4317 257.117 -92.4301 257.784C-94.4284 258.451 -96.4268 257.784 -98.4272 254.953C-100.426 252.122 -102.424 247.123 -103.592 239.96C-104.758 232.797 -105.091 223.47 -104.758 214.141C-104.424 204.811 -103.424 195.484 -103.259 186.654C-103.093 177.826 -103.758 169.497 -102.426 161.667C-101.092 153.838 -97.7625 146.509 -93.0969 140.346C-88.4333 134.183 -82.4361 129.184 -74.4406 126.02C-66.445 122.856 -56.4491 121.522 -47.621 119.857C-38.793 118.192 -31.1288 116.192 -20.8015 115.193C-10.4741 114.193 2.52045 114.193 14.8462 115.277C27.1739 116.359 38.8328 118.525 50.4938 120.691C62.1547 122.858 73.8157 125.022 79.6451 126.106C83.5328 126.827 85.4207 125.467 85.3089 122.025C85.1432 116.86 84.8098 106.533 85.3089 97.3716C85.808 88.2102 87.1416 80.2146 90.3058 74.0497C93.4701 67.8869 98.4691 63.5547 105.131 60.8895C111.795 58.2243 120.124 57.2241 125.121 57.2241C130.118 57.2241 131.785 58.2243 134.784 59.6806C137.782 61.139 142.112 63.0535 149.443 65.1787L149.447 65.1767Z" fill="#A6E0DC"/>
<path fill-rule="evenodd" clip-rule="evenodd" d="M165.874 206.211C165.44 208.579 165.44 209.543 165.44 210.142C165.44 210.741 165.44 210.976 165.544 212.537C165.017 213.318 164.192 214.323 163.618 214.895C163.45 215.063 163.366 215.215 163.176 215.374L161.691 216.689C160.355 217.739 158.899 218.663 157.363 219.4C156.391 219.866 155.393 220.261 154.305 220.582C153.376 220.854 152.204 221.062 151.147 221.183C150.513 221.255 149.658 221.341 148.864 221.4C148.537 219.997 148.23 219.477 147.465 219.316C148.86 219.238 151.051 219.021 151.957 218.872C153.953 218.54 154.35 218.301 155.996 217.632L158.84 216.074C159.539 215.628 159.962 215.28 160.615 214.769L161.306 214.139C162.024 213.566 163.282 212.009 163.753 211.304C164.102 210.778 164.426 210.199 164.7 209.61C164.751 209.5 164.788 209.393 164.826 209.297C164.878 209.168 164.91 209.117 164.957 208.988C165.268 208.131 165.567 207.272 165.837 206.348L165.878 206.207L165.874 206.211ZM-27.6272 222.691L-28.2327 222.721L-27.6845 222.682C-27.664 222.682 -27.6436 222.687 -27.6272 222.691ZM-35.766 223.261C-36.4532 223.527 -36.4532 224.09 -36.4532 225.468V225.515C-37.6846 225.65 -39.6318 225.902 -40.2188 225.988C-41.8347 226.227 -44.954 226.689 -46.3674 226.814C-46.8746 226.859 -47.4187 226.949 -47.928 226.978C-48.1898 226.992 -48.513 227.019 -48.738 227.049C-49.2187 227.115 -52.5139 227.229 -52.927 227.231H-53.2727C-53.6225 225.564 -54.2791 225.2 -56.5945 225.057L-53.647 225.074C-53.3402 225.074 -53.0334 225.071 -52.7266 225.074C-52.0966 225.074 -51.0903 224.992 -50.405 224.99C-50.1841 224.99 -50.1473 224.957 -49.9673 224.947C-47.026 224.787 -42.614 224.155 -39.6441 223.724C-38.7891 223.599 -36.8909 223.366 -35.768 223.265L-35.766 223.261Z" fill="white"/>
<path fill-rule="evenodd" clip-rule="evenodd" d="M237.116 31.37C240.086 31.2043 243.823 31.9754 245.969 35.0272C248.112 38.079 248.662 43.4114 247.122 46.7659C245.584 50.1204 241.953 51.4949 238.601 51.0265C235.246 50.5581 232.168 48.2509 230.409 46.05C228.65 43.8512 228.21 41.7607 228.321 39.7276C228.431 37.6924 229.09 35.7145 230.519 34.1743C231.949 32.6341 234.148 31.5357 237.118 31.37H237.116Z" fill="black"/>
<path fill-rule="evenodd" clip-rule="evenodd" d="M89.7271 68.969C86.1456 73.0496 81.8154 79.3802 80.942 88.2082C80.0686 97.0363 82.6561 108.36 86.8205 116.19C90.985 124.019 96.7286 128.352 100.183 130.769C103.638 133.187 104.804 133.686 105.553 133.518C106.303 133.353 106.635 132.518 106.052 129.603C105.469 126.689 103.969 121.69 102.969 116.693C101.969 111.696 101.47 106.699 101.47 101.45C101.47 96.2017 101.969 90.7057 102.053 86.0421C102.137 81.3786 101.803 77.5454 101.762 73.7144C101.721 69.8812 101.973 66.0461 101.889 63.9638C101.805 61.8816 101.388 61.5523 100.846 61.3866C100.304 61.2209 99.6372 61.2209 97.8883 62.1373C96.1395 63.0536 93.3066 64.8863 89.7251 68.9669L89.7271 68.969Z" fill="black"/>
<path fill-rule="evenodd" clip-rule="evenodd" d="M136.847 74.2605C137.242 75.4693 137.41 77.5925 136.972 78.8422C136.534 80.092 135.493 80.4663 134.953 80.2372C134.411 80.0081 134.37 79.1756 134.35 78.0915C134.329 77.0095 134.329 75.6759 134.35 74.7595C134.37 73.8432 134.413 73.3441 134.558 73.0312C134.704 72.7182 134.953 72.5934 135.391 72.6773C135.829 72.7612 136.453 73.0516 136.847 74.2605ZM121.026 74.2605C121.421 75.4693 121.588 77.5925 121.151 78.8422C120.713 80.092 119.672 80.4663 119.132 80.2372C118.59 80.0081 118.549 79.1756 118.529 78.0915C118.508 77.0095 118.508 75.6759 118.529 74.7595C118.549 73.8432 118.592 73.3441 118.737 73.0312C118.882 72.7182 119.134 72.5934 119.57 72.6773C120.007 72.7612 120.631 73.0516 121.028 74.2605H121.026Z" fill="black"/>
<path fill-rule="evenodd" clip-rule="evenodd" d="M162.182 252.844C161.799 252.983 161.413 253.053 161.028 253.065C161.237 252.734 161.464 252.341 161.738 251.873C161.99 251.443 162.605 249.846 162.738 249.377C162.92 248.739 163.333 247.06 163.383 246.456C163.626 246.463 163.992 246.544 164.205 246.593C164.205 247.178 163.714 249.081 163.53 249.688C163.26 250.568 162.804 251.766 162.182 252.842V252.844ZM158.87 252.584C159.817 250.965 160.126 249.925 160.48 247.939C160.57 247.428 160.634 247.035 160.726 246.538C160.795 246.162 161.032 245.843 159.961 245.843C159.961 246.317 159.525 248.352 159.406 248.923C159.126 250.271 158.631 251.329 158.136 252.173C158.289 252.276 158.447 252.368 158.609 252.456C158.695 252.501 158.78 252.544 158.87 252.587V252.584ZM122.482 255.649C122.098 255.734 121.701 255.779 121.298 255.788L122.004 254.867C122.92 253.489 123.638 251.306 124.016 249.682C124.227 249.686 124.698 249.819 124.839 249.889C124.391 251.815 123.726 253.783 122.634 255.43C122.589 255.497 122.54 255.571 122.484 255.651L122.482 255.649ZM118.868 255.397C118.596 255.305 118.328 255.199 118.062 255.078C119.093 253.323 119.96 251.296 120.288 249.447C120.474 248.391 120.241 248.708 121.206 248.79C121.206 250.48 120.032 253.331 118.868 255.399V255.397ZM-42.0268 257.778C-42.3622 257.894 -42.7059 257.946 -43.0556 257.935C-42.8225 257.518 -42.6261 257.138 -42.4727 256.837C-42.352 256.6 -42.2538 256.407 -42.1638 256.186C-42.0513 255.906 -41.9572 255.759 -41.8407 255.481C-41.4091 254.45 -41.0082 252.672 -40.9223 252.492C-40.1164 252.881 -39.9077 252.044 -40.5643 254.427C-40.8364 255.411 -41.4479 256.708 -42.0268 257.778ZM-44.8618 257.424L-44.7779 257.271C-43.9454 255.473 -43.4975 253.83 -43.0434 251.875C-43.3686 251.848 -43.5609 251.738 -43.9331 251.738C-43.9331 252.64 -44.7472 254.947 -45.1256 255.892C-45.3097 256.35 -45.4365 256.671 -45.5736 256.976C-45.3363 257.15 -45.099 257.299 -44.8597 257.424H-44.8618ZM-91.7776 257.52C-91.9923 257.622 -92.2112 257.71 -92.428 257.784C-92.6571 257.86 -92.8841 257.919 -93.1132 257.958C-92.7737 257.522 -92.4873 257.089 -92.2787 256.741C-91.5485 255.52 -91.1885 254.288 -90.9001 252.842C-90.8203 252.445 -90.6424 251.748 -90.6321 251.329C-90.4194 251.378 -90.0533 251.459 -89.8099 251.466C-89.8099 252.108 -90.264 253.99 -90.4542 254.661C-90.6874 255.487 -91.1599 256.53 -91.7796 257.522L-91.7776 257.52ZM-95.2466 257.753C-95.5043 257.653 -95.7621 257.526 -96.0198 257.367C-95.4184 256.34 -94.9909 255.452 -94.6984 254.11C-94.4612 253.02 -94.3282 252.419 -94.3282 251.259H-93.4385C-93.4385 252.075 -93.6369 253.106 -93.7759 253.802C-94.1278 255.565 -94.7087 256.823 -95.2487 257.753H-95.2466Z" fill="black"/>
<path fill-rule="evenodd" clip-rule="evenodd" d="M173.335 113.455C172.554 113.743 172.227 114.011 172.239 115.576L169.641 116.374C168.721 116.635 167.8 116.887 166.864 117.09C166.176 117.239 165.485 117.413 164.792 117.527L163.082 117.828C162.055 117.998 161.028 118.108 159.997 118.239C159.836 118.26 159.696 118.268 159.533 118.288C159.24 118.325 158.917 118.366 158.625 118.378C158.32 118.39 158.009 118.45 157.706 118.46C157.627 118.462 157.563 118.468 157.477 118.474L157.017 118.515C156.919 118.517 156.872 118.525 156.774 118.527C156.712 118.527 156.716 118.536 156.665 118.54L156.311 118.564C156.189 118.581 156.072 118.572 155.951 118.583C155.9 118.587 155.896 118.595 155.831 118.595C155.52 118.597 155.201 118.648 154.886 118.648C154.798 118.648 154.757 118.662 154.657 118.662C154.485 118.662 154.121 118.693 153.943 118.703C153.773 118.712 153.626 118.707 153.456 118.716C153.139 118.732 152.812 118.757 152.499 118.757L151.527 118.797C151.447 118.8 151.363 118.797 151.284 118.797C151.183 118.797 151.122 118.81 151.04 118.812C150.879 118.816 150.691 118.802 150.551 118.82L149.071 118.836C148.993 118.836 148.944 118.849 148.856 118.851H145.413C145.334 118.849 145.282 118.836 145.186 118.836C145.006 118.836 144.826 118.836 144.646 118.836C144.127 118.836 143.583 118.795 143.067 118.795C142.877 118.795 142.734 118.781 142.542 118.781C142.439 118.781 142.392 118.767 142.286 118.767C142.012 118.767 141.791 118.738 141.517 118.74C141.419 118.74 141.367 118.726 141.261 118.726L140.357 118.685C140.306 118.681 140.3 118.673 140.236 118.671C139.968 118.669 139.733 118.644 139.467 118.632L138.334 118.55C138.275 118.548 138.277 118.538 138.213 118.536C137.958 118.527 137.238 118.458 136.984 118.429C136.812 118.411 136.661 118.403 136.489 118.384C136.336 118.368 136.158 118.347 136 118.333C135.673 118.305 135.352 118.251 135.029 118.225C134.526 118.182 133.613 118.051 133.116 117.979C132.809 117.934 132.49 117.891 132.171 117.844C132.036 117.826 130.414 117.564 130.292 117.564C130.292 117.39 130.386 116.93 130.412 116.74C130.437 116.556 130.535 116.073 130.535 115.905L133.286 116.312C134.235 116.447 135.162 116.556 136.119 116.662L138.539 116.887C138.706 116.905 138.866 116.899 139.034 116.918C139.181 116.934 139.371 116.944 139.522 116.957L140.277 116.998C140.527 116.998 141.026 117.055 141.275 117.053L142.3 117.094C142.407 117.094 142.464 117.108 142.556 117.108C143.079 117.108 143.587 117.149 144.108 117.149C144.462 117.149 144.785 117.163 145.147 117.163C145.327 117.163 145.471 117.177 145.661 117.177H148.858C148.956 117.177 148.999 117.163 149.087 117.163C149.248 117.163 149.41 117.163 149.574 117.163C149.754 117.163 149.885 117.149 150.061 117.149C150.222 117.149 150.394 117.153 150.535 117.137C150.682 117.12 150.866 117.147 151.018 117.135L152.206 117.096C152.302 117.096 152.36 117.085 152.435 117.081C152.513 117.077 152.599 117.083 152.679 117.081C152.756 117.079 152.81 117.067 152.908 117.067L153.853 117.026C153.951 117.026 153.988 117.012 154.082 117.012L154.783 116.973C155.019 116.955 155.248 116.959 155.473 116.934L156.062 116.903C156.105 116.899 156.111 116.893 156.172 116.891C156.432 116.891 156.708 116.85 156.968 116.838L157.305 116.811C157.361 116.809 157.477 116.799 157.541 116.791C157.69 116.768 157.841 116.773 157.991 116.756L159.33 116.625C161.64 116.382 163.857 116.059 166.093 115.549C167.301 115.273 168.441 114.979 169.6 114.645L170.163 114.48C170.631 114.351 171.368 114.111 171.838 113.956L173.305 113.467L173.335 113.457V113.455Z" fill="white"/>
<path fill-rule="evenodd" clip-rule="evenodd" d="M178.049 111.706C177.631 111.87 177.247 112.021 176.887 112.158L176.836 112.111C176.701 112.007 176.036 111.33 175.872 111.143C175.844 111.111 175.815 111.086 175.784 111.055L175.535 110.779C175.496 110.74 175.486 110.73 175.453 110.687L174.809 109.928C174.702 109.793 174.606 109.671 174.502 109.534L174.279 109.231C173.853 108.652 173.469 108.047 173.097 107.431C173.005 107.28 172.931 107.138 172.839 106.987C172.747 106.836 172.671 106.697 172.585 106.539C172.542 106.457 172.501 106.4 172.458 106.314C172.34 106.081 172.205 105.864 172.09 105.631L170.683 102.829C170.642 102.745 170.611 102.673 170.57 102.589C170.528 102.506 170.491 102.44 170.456 102.352L169.891 101.164C169.855 101.082 169.805 101.017 169.783 100.92C170.071 100.767 170.372 100.648 170.66 100.503C170.701 100.483 170.74 100.454 170.795 100.45C170.82 100.552 171.043 100.996 171.115 101.143L172.105 103.203C172.24 103.508 172.409 103.813 172.559 104.111C172.681 104.359 173.011 105.005 173.137 105.218L173.499 105.883C173.575 106.034 173.659 106.167 173.743 106.314C173.827 106.466 173.909 106.605 173.997 106.75C174.08 106.891 174.16 107.03 174.25 107.171L175.06 108.398C175.242 108.666 175.445 108.924 175.645 109.176L176.422 110.098C176.662 110.37 177.001 110.706 177.259 110.961L177.509 111.211C177.547 111.25 177.566 111.258 177.603 111.293C177.664 111.346 177.711 111.407 177.772 111.46L177.948 111.622C177.983 111.649 178.016 111.677 178.051 111.708L178.049 111.706Z" fill="black"/>
<g clip-path="url(#clip2_35_620)">
<path d="M227.692 216.71C227.032 213.779 225.248 211.152 222.849 209.37C219.236 206.681 213.945 206.165 209.952 208.418C206.289 210.485 203.8 214.39 203.151 218.514C203.129 218.637 203.112 218.766 203.095 218.889C202.771 221.399 203.224 223.999 204.555 226.167C205.768 228.14 207.608 229.697 209.706 230.661C214.023 232.65 219.51 232.555 223.33 229.529C227.077 226.565 228.721 221.332 227.687 216.715L227.692 216.71ZM223.347 227.165C217.681 233.249 205.293 229.849 204.75 221.114C204.549 217.802 205.863 214.429 208.067 211.981C211.49 208.188 217.021 207.454 221.289 210.339C223.212 211.639 224.784 213.539 225.606 215.729C227.038 219.562 226.138 224.167 223.347 227.165Z" fill="#87529D"/>
<path d="M208.817 209.308C208.14 210.356 207.318 211.415 207.2 212.698C207.1 213.808 207.648 214.867 208.431 215.617C210.232 217.337 212.877 217.618 215.036 218.676C216.026 219.164 216.937 219.825 217.519 220.778C218.084 221.708 218.129 222.666 217.76 223.68C217.055 225.618 215.276 226.795 213.386 227.395C211.462 228.005 209.152 228.302 207.318 227.26C206.691 226.907 206.11 227.714 206.568 228.229C207.994 229.832 210.556 229.647 212.458 229.26C214.538 228.834 216.647 227.932 218.022 226.257C219.566 224.369 220.159 221.831 218.682 219.719C217.122 217.489 214.538 216.805 212.116 215.92C210.97 215.5 209.6 214.956 208.945 213.847C208.157 212.513 209.342 211.124 210.025 210.014C210.5 209.241 209.298 208.546 208.811 209.303L208.817 209.308Z" fill="#87529D"/>
</g>
<defs>
<clipPath id="clip0_35_620">
<rect width="38" height="39" fill="white" transform="translate(37)"/>
</clipPath>
<clipPath id="clip1_35_620">
<rect width="27" height="35" fill="white" transform="translate(248 106)"/>
</clipPath>
<clipPath id="clip2_35_620">
<rect width="25" height="25" fill="white" transform="translate(203 207)"/>
</clipPath>
</defs>
</svg>
