<svg width="303" height="318" viewBox="0 0 303 318" fill="none" xmlns="http://www.w3.org/2000/svg">
<g clip-path="url(#clip0_35_595)">
<path d="M25.3129 67.5975C22.507 64.6175 16.8767 65.0087 15.353 69.1247C14.7026 70.8754 14.9442 73.0173 16.0777 74.5258C17.2298 76.0717 19.1437 76.6491 21.0019 76.2021C23.0087 75.7178 24.6254 74.1161 24.8669 72.0301C24.9227 71.5645 24.2166 71.2665 23.9007 71.639C21.0576 75.066 21.6708 81.0817 26.242 82.6462C28.1745 83.3167 30.4972 83.0187 32.1324 81.7522C33.7677 80.4857 34.3623 78.4556 33.8977 76.4814C33.396 74.3024 31.6865 72.5144 29.4195 72.2909C28.6948 72.2164 28.7134 73.3525 29.4195 73.4084C31.4449 73.6132 32.82 75.6247 32.9315 77.543C33.0615 79.778 31.3892 81.4356 29.2523 81.7895C27.041 82.162 24.8298 81.1562 23.8263 79.1261C22.7672 76.9843 23.176 74.2465 24.6811 72.4213L23.7148 72.0301C23.5104 73.874 21.6708 75.1405 19.9056 75.2336C17.8615 75.3267 16.3936 73.7436 16.1334 71.8067C15.8733 69.8138 16.8395 67.821 18.7721 67.076C20.7232 66.3124 23.0459 66.8711 24.4767 68.3983C24.9784 68.9198 25.7589 68.1376 25.2757 67.5975H25.3129Z" fill="#FAAB37"/>
<path d="M25.0528 67.5416C31.0547 62.3826 36.8709 57 42.4826 51.394C43.0029 50.8911 42.2039 50.0903 41.6836 50.5932C36.0719 56.1805 30.2557 61.5631 24.2538 66.7407C23.6963 67.2063 24.4953 68.0072 25.0528 67.5416Z" fill="#FAAB37"/>
<path d="M30.6829 73.2407C35.4957 68.2679 40.3084 63.2765 45.1211 58.3037C45.6228 57.7822 44.8238 56.9813 44.3221 57.5028C39.5094 62.4756 34.6966 67.467 29.8839 72.4398C29.3822 72.9613 30.1812 73.7621 30.6829 73.2407Z" fill="#FAAB37"/>
<path d="M44.5266 55.8267C43.9692 57.3725 44.9354 59.0674 46.3848 59.7192C48.0758 60.4828 50.0269 59.7006 51.2719 58.4528C52.6283 57.0932 53.3716 55.0444 52.8327 53.1634C52.3496 51.4313 50.956 49.7178 49.2093 49.1218C47.4626 48.5258 45.3256 49.3639 44.8239 51.2264C45.1956 51.2823 45.5672 51.3195 45.9203 51.3754C45.6973 49.2522 45.3628 46.9613 43.7834 45.3783C42.4455 44.0187 40.42 43.4972 38.7291 44.5401C37.1868 45.49 36.332 47.3152 36.6851 49.1032C37.0381 51.0029 38.5433 52.4556 40.3271 53.0702C41.0146 53.3124 41.312 52.2135 40.6244 51.99C39.2865 51.5244 38.153 50.4255 37.8186 49.0287C37.4841 47.6132 38.2088 46.1046 39.4909 45.4155C40.8846 44.6891 42.3897 45.3783 43.3002 46.5144C44.3966 47.874 44.6195 49.7178 44.8054 51.3754C44.8611 51.9714 45.7345 52.1762 45.9017 51.5244C46.3662 49.7364 48.5403 49.7923 49.7667 50.6677C51.1789 51.692 52.1638 53.5545 51.755 55.3052C51.3834 56.9442 50.0269 58.5086 48.3173 58.8252C46.775 59.1232 44.9726 57.7823 45.5672 56.106C45.8088 55.4169 44.731 55.1189 44.4895 55.8081L44.5266 55.8267Z" fill="#FAAB37"/>
</g>
<g clip-path="url(#clip1_35_595)">
<path d="M289.371 192.574C286.457 189.506 286.829 184.474 282.571 182.401C278.829 180.576 275.686 183.921 276 187.515C276.229 189.782 277.371 191.911 278.371 193.929C279.514 196.224 280.771 198.491 282.114 200.675C284.8 205.098 287.771 209.328 290.771 213.558C291.143 214.083 291.886 214.083 292.257 213.558C297.143 206.591 302.2 199.237 302.886 190.584C303.057 188.593 302.943 186.603 302.571 184.668C302.229 182.981 301.743 181.184 300.257 180.078C297.771 178.198 294.171 178.917 292 180.88C288.514 184.032 288.486 189.008 287.314 193.155C287.029 194.205 288.686 194.648 288.971 193.597C290.057 189.644 290 184.142 293.857 181.516C295.314 180.521 297.429 180.244 299 181.239C300.943 182.456 301.114 185.856 301.2 187.847C301.6 197.191 295.943 205.319 290.743 212.728H292.229C287.4 205.9 282.571 199.016 279.057 191.468C278.171 189.561 277.057 187.266 278 185.193C279.029 182.953 281.429 183.34 283 184.778C285.629 187.183 285.629 191.164 288.086 193.735C288.829 194.537 290.057 193.348 289.314 192.547L289.371 192.574Z" fill="#E9544C"/>
</g>
<path fill-rule="evenodd" clip-rule="evenodd" d="M149.447 125.177C156.776 127.3 167.105 129.634 177.349 129.466C187.594 129.3 197.754 126.635 207.167 121.72C216.578 116.807 225.24 109.644 230.489 106.396C235.735 103.147 237.568 103.814 237.652 106.979C237.736 110.143 236.069 115.807 232.487 124.054C228.906 132.299 223.41 143.127 214.663 151.289C205.917 159.452 193.925 164.948 186.261 168.28C178.599 171.612 175.267 172.778 173.602 173.361C172.492 173.749 172.242 176.734 172.853 182.313C173.769 190.683 175.602 207.425 174.518 222.625C173.436 237.824 169.437 251.483 167.439 259.313C165.44 267.143 165.44 269.142 165.44 270.142C165.44 271.142 165.44 271.142 165.939 278.137C166.438 285.135 167.439 299.127 166.105 306.288C164.773 313.452 161.108 313.785 158.609 312.451C156.111 311.12 154.778 308.121 153.278 302.29C151.779 296.46 150.114 287.798 149.279 283.466C148.724 280.579 147.447 279.191 145.448 279.301C142.45 279.467 136.453 279.8 133.454 279.968C131.455 280.078 130.344 281.633 130.122 284.632C129.789 289.129 129.124 298.125 128.289 304.12C127.457 310.118 126.457 313.116 124.624 314.615C122.791 316.115 120.126 316.115 117.794 314.949C115.462 313.783 113.464 311.451 112.13 305.454C110.797 299.457 110.132 289.796 109.799 284.965C109.576 281.744 107.411 279.967 103.302 279.635C97.1396 279.136 84.8118 278.135 72.3184 277.97C59.825 277.804 47.1638 278.469 32.3386 279.303C17.5134 280.136 0.522064 281.136 -11.3046 281.803C-23.1312 282.47 -29.7952 282.803 -33.1272 282.969C-35.3485 283.079 -36.4592 283.912 -36.4592 285.466C-36.4592 287.798 -36.4592 292.464 -36.7926 298.127C-37.126 303.791 -37.7928 310.455 -39.1243 314.118C-40.458 317.784 -42.4563 318.449 -44.4547 317.616C-46.4531 316.784 -48.4515 314.452 -49.9528 308.788C-51.4521 303.124 -52.4523 294.128 -52.9514 289.631C-53.2841 286.632 -55.2273 285.077 -58.7808 284.967C-64.1112 284.801 -74.7719 284.468 -80.1023 284.3C-83.6559 284.19 -85.4886 285.189 -85.6004 287.299C-85.7661 290.463 -86.0995 296.794 -86.2672 301.625C-86.4329 306.456 -86.4329 309.788 -87.4331 312.453C-88.4333 315.119 -90.4317 317.117 -92.4301 317.784C-94.4284 318.451 -96.4268 317.784 -98.4272 314.953C-100.426 312.122 -102.424 307.123 -103.592 299.96C-104.758 292.797 -105.091 283.47 -104.758 274.141C-104.424 264.811 -103.424 255.484 -103.259 246.654C-103.093 237.826 -103.758 229.497 -102.426 221.667C-101.092 213.838 -97.7625 206.509 -93.0969 200.346C-88.4333 194.183 -82.4361 189.184 -74.4406 186.02C-66.445 182.856 -56.4491 181.522 -47.621 179.857C-38.793 178.192 -31.1288 176.192 -20.8015 175.193C-10.4741 174.193 2.52045 174.193 14.8462 175.277C27.1739 176.359 38.8328 178.525 50.4938 180.691C62.1547 182.858 73.8157 185.022 79.6451 186.106C83.5328 186.827 85.4207 185.467 85.3089 182.025C85.1432 176.86 84.8098 166.533 85.3089 157.372C85.808 148.21 87.1416 140.215 90.3058 134.05C93.4701 127.887 98.4691 123.555 105.131 120.889C111.795 118.224 120.124 117.224 125.121 117.224C130.118 117.224 131.785 118.224 134.784 119.681C137.782 121.139 142.112 123.054 149.443 125.179L149.447 125.177Z" fill="#A6E0DC"/>
<path fill-rule="evenodd" clip-rule="evenodd" d="M165.874 266.211C165.44 268.579 165.44 269.543 165.44 270.142C165.44 270.741 165.44 270.976 165.544 272.537C165.017 273.318 164.192 274.323 163.618 274.895C163.45 275.063 163.366 275.215 163.176 275.374L161.691 276.689C160.355 277.739 158.899 278.663 157.363 279.4C156.391 279.866 155.393 280.261 154.305 280.582C153.376 280.854 152.204 281.062 151.147 281.183C150.513 281.255 149.658 281.341 148.864 281.4C148.537 279.997 148.23 279.477 147.465 279.316C148.86 279.238 151.051 279.021 151.957 278.872C153.953 278.54 154.35 278.301 155.996 277.632L158.84 276.074C159.539 275.628 159.962 275.28 160.615 274.769L161.306 274.139C162.024 273.566 163.282 272.009 163.753 271.304C164.102 270.778 164.426 270.199 164.7 269.61C164.751 269.5 164.788 269.393 164.826 269.297C164.878 269.168 164.91 269.117 164.957 268.988C165.268 268.131 165.567 267.272 165.837 266.348L165.878 266.207L165.874 266.211ZM-27.6272 282.691L-28.2327 282.721L-27.6845 282.682C-27.664 282.682 -27.6436 282.687 -27.6272 282.691ZM-35.766 283.261C-36.4532 283.527 -36.4532 284.09 -36.4532 285.468V285.515C-37.6846 285.65 -39.6318 285.902 -40.2188 285.988C-41.8347 286.227 -44.954 286.689 -46.3674 286.814C-46.8746 286.859 -47.4187 286.949 -47.928 286.978C-48.1898 286.992 -48.513 287.019 -48.738 287.049C-49.2187 287.115 -52.5139 287.229 -52.927 287.231H-53.2727C-53.6225 285.564 -54.2791 285.2 -56.5945 285.057L-53.647 285.074C-53.3402 285.074 -53.0334 285.071 -52.7266 285.074C-52.0966 285.074 -51.0903 284.992 -50.405 284.99C-50.1841 284.99 -50.1473 284.957 -49.9673 284.947C-47.026 284.787 -42.614 284.155 -39.6441 283.724C-38.7891 283.599 -36.8909 283.366 -35.768 283.265L-35.766 283.261Z" fill="white"/>
<path fill-rule="evenodd" clip-rule="evenodd" d="M237.116 91.37C240.086 91.2043 243.823 91.9754 245.969 95.0272C248.112 98.079 248.662 103.411 247.122 106.766C245.584 110.12 241.953 111.495 238.601 111.027C235.246 110.558 232.168 108.251 230.409 106.05C228.65 103.851 228.21 101.761 228.321 99.7276C228.431 97.6924 229.09 95.7145 230.519 94.1743C231.949 92.6341 234.148 91.5357 237.118 91.37H237.116Z" fill="black"/>
<path fill-rule="evenodd" clip-rule="evenodd" d="M89.7271 128.969C86.1456 133.05 81.8154 139.38 80.942 148.208C80.0686 157.036 82.6561 168.36 86.8205 176.19C90.985 184.019 96.7286 188.352 100.183 190.769C103.638 193.187 104.804 193.686 105.553 193.518C106.303 193.353 106.635 192.518 106.052 189.603C105.469 186.689 103.969 181.69 102.969 176.693C101.969 171.696 101.47 166.699 101.47 161.45C101.47 156.202 101.969 150.706 102.053 146.042C102.137 141.379 101.803 137.545 101.762 133.714C101.721 129.881 101.973 126.046 101.889 123.964C101.805 121.882 101.388 121.552 100.846 121.387C100.304 121.221 99.6372 121.221 97.8883 122.137C96.1395 123.054 93.3066 124.886 89.7251 128.967L89.7271 128.969Z" fill="black"/>
<path fill-rule="evenodd" clip-rule="evenodd" d="M136.847 134.26C137.242 135.469 137.41 137.592 136.972 138.842C136.534 140.092 135.493 140.466 134.953 140.237C134.411 140.008 134.37 139.176 134.35 138.092C134.329 137.01 134.329 135.676 134.35 134.76C134.37 133.843 134.413 133.344 134.558 133.031C134.704 132.718 134.953 132.593 135.391 132.677C135.829 132.761 136.453 133.052 136.847 134.26ZM121.026 134.26C121.421 135.469 121.588 137.592 121.151 138.842C120.713 140.092 119.672 140.466 119.132 140.237C118.59 140.008 118.549 139.176 118.529 138.092C118.508 137.01 118.508 135.676 118.529 134.76C118.549 133.843 118.592 133.344 118.737 133.031C118.882 132.718 119.134 132.593 119.57 132.677C120.007 132.761 120.631 133.052 121.028 134.26H121.026Z" fill="black"/>
<path fill-rule="evenodd" clip-rule="evenodd" d="M162.182 312.844C161.799 312.983 161.413 313.053 161.028 313.065C161.237 312.734 161.464 312.341 161.738 311.873C161.99 311.443 162.605 309.846 162.738 309.377C162.92 308.739 163.333 307.06 163.383 306.456C163.626 306.463 163.992 306.544 164.205 306.593C164.205 307.178 163.714 309.081 163.53 309.688C163.26 310.568 162.804 311.766 162.182 312.842V312.844ZM158.87 312.584C159.817 310.965 160.126 309.925 160.48 307.939C160.57 307.428 160.634 307.035 160.726 306.538C160.795 306.162 161.032 305.843 159.961 305.843C159.961 306.317 159.525 308.352 159.406 308.923C159.126 310.271 158.631 311.329 158.136 312.173C158.289 312.276 158.447 312.368 158.609 312.456C158.695 312.501 158.78 312.544 158.87 312.587V312.584ZM122.482 315.649C122.098 315.734 121.701 315.779 121.298 315.788L122.004 314.867C122.92 313.489 123.638 311.306 124.016 309.682C124.227 309.686 124.698 309.819 124.839 309.889C124.391 311.815 123.726 313.783 122.634 315.43C122.589 315.497 122.54 315.571 122.484 315.651L122.482 315.649ZM118.868 315.397C118.596 315.305 118.328 315.199 118.062 315.078C119.093 313.323 119.96 311.296 120.288 309.447C120.474 308.391 120.241 308.708 121.206 308.79C121.206 310.48 120.032 313.331 118.868 315.399V315.397ZM-42.0268 317.778C-42.3622 317.894 -42.7059 317.946 -43.0556 317.935C-42.8225 317.518 -42.6261 317.138 -42.4727 316.837C-42.352 316.6 -42.2538 316.407 -42.1638 316.186C-42.0513 315.906 -41.9572 315.759 -41.8407 315.481C-41.4091 314.45 -41.0082 312.672 -40.9223 312.492C-40.1164 312.881 -39.9077 312.044 -40.5643 314.427C-40.8364 315.411 -41.4479 316.708 -42.0268 317.778ZM-44.8618 317.424L-44.7779 317.271C-43.9454 315.473 -43.4975 313.83 -43.0434 311.875C-43.3686 311.848 -43.5609 311.738 -43.9331 311.738C-43.9331 312.64 -44.7472 314.947 -45.1256 315.892C-45.3097 316.35 -45.4365 316.671 -45.5736 316.976C-45.3363 317.15 -45.099 317.299 -44.8597 317.424H-44.8618ZM-91.7776 317.52C-91.9923 317.622 -92.2112 317.71 -92.428 317.784C-92.6571 317.86 -92.8841 317.919 -93.1132 317.958C-92.7737 317.522 -92.4873 317.089 -92.2787 316.741C-91.5485 315.52 -91.1885 314.288 -90.9001 312.842C-90.8203 312.445 -90.6424 311.748 -90.6321 311.329C-90.4194 311.378 -90.0533 311.459 -89.8099 311.466C-89.8099 312.108 -90.264 313.99 -90.4542 314.661C-90.6874 315.487 -91.1599 316.53 -91.7796 317.522L-91.7776 317.52ZM-95.2466 317.753C-95.5043 317.653 -95.7621 317.526 -96.0198 317.367C-95.4184 316.34 -94.9909 315.452 -94.6984 314.11C-94.4612 313.02 -94.3282 312.419 -94.3282 311.259H-93.4385C-93.4385 312.075 -93.6369 313.106 -93.7759 313.802C-94.1278 315.565 -94.7087 316.823 -95.2487 317.753H-95.2466Z" fill="black"/>
<path fill-rule="evenodd" clip-rule="evenodd" d="M173.335 173.455C172.554 173.743 172.227 174.011 172.239 175.576L169.641 176.374C168.721 176.635 167.8 176.887 166.864 177.09C166.176 177.239 165.485 177.413 164.792 177.527L163.082 177.828C162.055 177.998 161.028 178.108 159.997 178.239C159.836 178.26 159.696 178.268 159.533 178.288C159.24 178.325 158.917 178.366 158.625 178.378C158.32 178.39 158.009 178.45 157.706 178.46C157.627 178.462 157.563 178.468 157.477 178.474L157.017 178.515C156.919 178.517 156.872 178.525 156.774 178.527C156.712 178.527 156.716 178.536 156.665 178.54L156.311 178.564C156.189 178.581 156.072 178.572 155.951 178.583C155.9 178.587 155.896 178.595 155.831 178.595C155.52 178.597 155.201 178.648 154.886 178.648C154.798 178.648 154.757 178.662 154.657 178.662C154.485 178.662 154.121 178.693 153.943 178.703C153.773 178.712 153.626 178.707 153.456 178.716C153.139 178.732 152.812 178.757 152.499 178.757L151.527 178.797C151.447 178.8 151.363 178.797 151.284 178.797C151.183 178.797 151.122 178.81 151.04 178.812C150.879 178.816 150.691 178.802 150.551 178.82L149.071 178.836C148.993 178.836 148.944 178.849 148.856 178.851H145.413C145.334 178.849 145.282 178.836 145.186 178.836C145.006 178.836 144.826 178.836 144.646 178.836C144.127 178.836 143.583 178.795 143.067 178.795C142.877 178.795 142.734 178.781 142.542 178.781C142.439 178.781 142.392 178.767 142.286 178.767C142.012 178.767 141.791 178.738 141.517 178.74C141.419 178.74 141.367 178.726 141.261 178.726L140.357 178.685C140.306 178.681 140.3 178.673 140.236 178.671C139.968 178.669 139.733 178.644 139.467 178.632L138.334 178.55C138.275 178.548 138.277 178.538 138.213 178.536C137.958 178.527 137.238 178.458 136.984 178.429C136.812 178.411 136.661 178.403 136.489 178.384C136.336 178.368 136.158 178.347 136 178.333C135.673 178.305 135.352 178.251 135.029 178.225C134.526 178.182 133.613 178.051 133.116 177.979C132.809 177.934 132.49 177.891 132.171 177.844C132.036 177.826 130.414 177.564 130.292 177.564C130.292 177.39 130.386 176.93 130.412 176.74C130.437 176.556 130.535 176.073 130.535 175.905L133.286 176.312C134.235 176.447 135.162 176.556 136.119 176.662L138.539 176.887C138.706 176.905 138.866 176.899 139.034 176.918C139.181 176.934 139.371 176.944 139.522 176.957L140.277 176.998C140.527 176.998 141.026 177.055 141.275 177.053L142.3 177.094C142.407 177.094 142.464 177.108 142.556 177.108C143.079 177.108 143.587 177.149 144.108 177.149C144.462 177.149 144.785 177.163 145.147 177.163C145.327 177.163 145.471 177.177 145.661 177.177H148.858C148.956 177.177 148.999 177.163 149.087 177.163C149.248 177.163 149.41 177.163 149.574 177.163C149.754 177.163 149.885 177.149 150.061 177.149C150.222 177.149 150.394 177.153 150.535 177.137C150.682 177.12 150.866 177.147 151.018 177.135L152.206 177.096C152.302 177.096 152.36 177.085 152.435 177.081C152.513 177.077 152.599 177.083 152.679 177.081C152.756 177.079 152.81 177.067 152.908 177.067L153.853 177.026C153.951 177.026 153.988 177.012 154.082 177.012L154.783 176.973C155.019 176.955 155.248 176.959 155.473 176.934L156.062 176.903C156.105 176.899 156.111 176.893 156.172 176.891C156.432 176.891 156.708 176.85 156.968 176.838L157.305 176.811C157.361 176.809 157.477 176.799 157.541 176.791C157.69 176.768 157.841 176.773 157.991 176.756L159.33 176.625C161.64 176.382 163.857 176.059 166.093 175.549C167.301 175.273 168.441 174.979 169.6 174.645L170.163 174.48C170.631 174.351 171.368 174.111 171.838 173.956L173.305 173.467L173.335 173.457V173.455Z" fill="white"/>
<path fill-rule="evenodd" clip-rule="evenodd" d="M178.049 171.706C177.631 171.87 177.247 172.021 176.887 172.158L176.836 172.111C176.701 172.007 176.036 171.33 175.872 171.144C175.844 171.111 175.815 171.086 175.784 171.056L175.535 170.779C175.496 170.741 175.486 170.73 175.453 170.687L174.809 169.929C174.702 169.794 174.606 169.671 174.502 169.534L174.279 169.231C173.853 168.652 173.469 168.047 173.097 167.431C173.005 167.28 172.931 167.139 172.839 166.987C172.747 166.836 172.671 166.697 172.585 166.539C172.542 166.457 172.501 166.4 172.458 166.314C172.34 166.081 172.205 165.864 172.09 165.631L170.683 162.829C170.642 162.745 170.611 162.673 170.57 162.59C170.528 162.506 170.491 162.44 170.456 162.352L169.891 161.164C169.855 161.082 169.805 161.017 169.783 160.921C170.071 160.767 170.372 160.648 170.66 160.503C170.701 160.483 170.74 160.454 170.795 160.45C170.82 160.552 171.043 160.996 171.115 161.143L172.105 163.203C172.24 163.508 172.409 163.813 172.559 164.111C172.681 164.359 173.011 165.005 173.137 165.218L173.499 165.883C173.575 166.034 173.659 166.167 173.743 166.314C173.827 166.466 173.909 166.605 173.997 166.75C174.08 166.891 174.16 167.03 174.25 167.171L175.06 168.399C175.242 168.667 175.445 168.924 175.645 169.176L176.422 170.098C176.662 170.37 177.001 170.706 177.259 170.961L177.509 171.211C177.547 171.25 177.566 171.258 177.603 171.293C177.664 171.346 177.711 171.407 177.772 171.461L177.948 171.622C177.983 171.649 178.016 171.677 178.051 171.708L178.049 171.706Z" fill="black"/>
<g clip-path="url(#clip2_35_595)">
<path d="M227.692 9.70979C227.032 6.77949 225.248 4.15175 222.849 2.37003C219.236 -0.319344 213.945 -0.834808 209.952 1.41755C206.289 3.485 203.8 7.3902 203.151 11.5139C203.129 11.6372 203.112 11.766 203.095 11.8893C202.771 14.3994 203.224 16.9991 204.555 19.1674C205.768 21.1396 207.608 22.6972 209.706 23.6609C214.023 25.65 219.51 25.5547 223.33 22.5292C227.077 19.5652 228.721 14.3322 227.687 9.71539L227.692 9.70979ZM223.347 20.1647C217.681 26.2495 205.293 22.8485 204.75 14.1136C204.549 10.8024 205.863 7.42942 208.067 4.98097C211.49 1.18783 217.021 0.453852 221.289 3.33933C223.212 4.63919 224.784 6.53857 225.606 8.72929C227.038 12.5617 226.138 17.1672 223.347 20.1647Z" fill="#C458F0"/>
<path d="M208.817 2.30835C208.14 3.35609 207.318 4.41503 207.2 5.69809C207.1 6.80746 207.648 7.8664 208.431 8.61718C210.232 10.3373 212.877 10.6174 215.036 11.6763C216.026 12.1638 216.937 12.8249 217.519 13.7774C218.084 14.7075 218.129 15.6656 217.76 16.6797C217.055 18.6183 215.276 19.7949 213.386 20.3944C211.462 21.0051 209.152 21.3021 207.318 20.2599C206.691 19.907 206.11 20.7138 206.568 21.2292C207.994 22.8317 210.556 22.6468 212.458 22.2602C214.538 21.8344 216.647 20.9323 218.022 19.257C219.566 17.3689 220.159 14.8308 218.682 12.7185C217.122 10.4885 214.538 9.80499 212.116 8.91974C210.97 8.49952 209.6 7.95604 208.945 6.84668C208.157 5.51319 209.342 4.12368 210.025 3.01431C210.5 2.24112 209.298 1.54636 208.811 2.30275L208.817 2.30835Z" fill="#C458F0"/>
</g>
<defs>
<clipPath id="clip0_35_595">
<rect width="38" height="39" fill="white" transform="translate(15 44)"/>
</clipPath>
<clipPath id="clip1_35_595">
<rect width="27" height="35" fill="white" transform="translate(276 179)"/>
</clipPath>
<clipPath id="clip2_35_595">
<rect width="25" height="25" fill="white" transform="translate(203)"/>
</clipPath>
</defs>
</svg>
