<svg width="211" height="385" viewBox="0 0 211 385" fill="none" xmlns="http://www.w3.org/2000/svg">
<g clip-path="url(#clip0_35_593)">
<path fill-rule="evenodd" clip-rule="evenodd" d="M81.0432 111.074C76.5286 111.721 69.1921 112.734 63.0415 113.409C56.8909 114.084 51.9243 114.421 48.9341 114.872C45.9439 115.323 44.9282 115.885 44.0242 116.56C43.122 117.235 42.3315 118.023 42.7835 119.204C43.2355 120.386 44.9282 121.961 47.5799 123.875C50.2316 125.789 53.844 128.038 58.1884 129.726C62.5346 131.414 67.6128 132.54 72.9729 133.045C78.3348 133.552 83.9767 133.439 87.4756 133.609C90.9745 133.779 92.3287 134.228 93.0626 134.454C93.7964 134.678 93.9098 134.678 94.6419 135.747C95.3757 136.817 96.7299 138.955 97.9157 142.893C99.1015 146.832 100.117 152.57 99.8336 165.822C99.5517 179.073 97.9706 199.835 94.6986 216.968C91.4248 234.102 86.46 247.606 83.9767 260.659C81.4934 273.712 81.4934 286.317 78.333 300.272C75.1726 314.226 68.8518 329.531 62.0808 342.023C55.3098 354.514 48.0851 364.192 45.6018 369.706C43.1185 375.22 45.3767 376.57 47.86 377.245C50.3432 377.92 53.0516 377.92 57.1142 374.995C61.1768 372.069 66.5954 366.217 71.11 357.665C75.6246 349.113 79.237 337.859 83.2996 324.805C87.3622 311.752 91.8768 296.896 94.812 286.994C97.7473 277.092 99.1015 272.14 99.7786 269.664C100.23 268.013 101.509 267.188 103.616 267.188H116.258C118.365 267.188 119.343 269.363 119.193 273.714C118.968 280.241 118.516 293.294 115.581 309.05C112.645 324.805 107.228 343.26 102.489 356.089C97.7491 368.917 93.6847 376.119 93.6847 380.396C93.6847 384.673 97.7473 386.023 101.812 384.222C105.874 382.421 109.939 377.469 114.226 368.917C118.516 360.365 123.03 348.212 126.191 336.282C129.351 324.353 131.157 312.65 132.512 302.072C133.866 291.495 134.77 282.042 135.22 277.316C135.521 274.165 136.8 272.59 139.057 272.59C142.443 272.59 149.216 272.59 156.891 273.041C164.566 273.492 173.143 274.391 184.88 274.391C196.618 274.391 211.516 273.492 218.966 273.041C223.932 272.74 226.491 274.691 226.641 278.892C226.866 285.195 227.318 297.797 227.318 310.852C227.318 323.908 226.866 337.41 225.512 348.888C224.158 360.367 221.899 369.82 221.899 374.771C221.899 379.721 224.156 380.172 226.414 379.723C228.672 379.272 230.929 377.922 233.412 372.97C235.895 368.018 238.604 359.466 239.733 347.312C240.862 335.158 240.41 319.404 240.41 306.8C240.41 294.196 240.862 284.744 241.087 280.016C241.237 276.866 242.967 275.291 246.279 275.291H266.143C269.454 275.291 271.335 277.841 271.787 282.943C272.464 290.596 273.818 305.9 274.045 319.404C274.27 332.909 273.368 344.612 271.787 353.165C270.207 361.717 267.949 367.12 267.272 370.72C266.595 374.322 267.497 376.121 268.853 376.796C270.207 377.471 272.014 377.021 274.722 374.546C277.43 372.07 281.043 367.569 283.976 360.592C286.912 353.614 289.168 344.161 290.297 332.233C291.426 320.304 291.426 305.9 290.749 291.271C290.072 276.641 288.718 261.787 287.364 249.182C286.009 236.578 284.655 226.225 283.751 221.048C282.849 215.872 282.397 215.872 275.624 216.771C268.851 217.671 255.76 219.472 242.216 219.023C228.672 218.572 214.676 215.872 203.164 210.02C191.651 204.169 182.622 195.166 174.947 185.262C167.272 175.36 160.952 164.556 156.098 154.879C151.245 145.201 147.86 136.649 145.038 128.883C142.216 121.118 139.96 114.14 139.169 103.563C138.379 92.9838 139.056 78.8047 138.379 69.24C137.702 59.6754 135.67 54.7234 134.316 52.8111C132.962 50.8971 132.285 52.0229 131.042 60.0129C129.801 68.0029 127.995 82.8572 126.98 90.3965C125.964 97.9358 125.739 98.1621 122.352 98.0489C118.966 97.9358 112.42 97.4869 109.146 97.2607C106.964 97.1111 105.835 96.023 105.761 93.9965C105.647 90.9585 105.422 84.8807 105.197 77.3414C104.972 69.802 104.745 60.7994 104.068 56.298C103.391 51.7967 102.262 51.7967 100.456 54.2727C98.6495 56.7487 96.1662 61.7007 94.7004 68.3387C93.2327 74.9785 92.7825 83.3061 92.3305 90.0572C91.8785 96.8101 91.4283 101.987 90.8629 105.025C90.2992 108.063 89.6221 108.964 88.4363 109.554C87.2505 110.144 85.5577 110.427 81.0432 111.074Z" fill="#FFD982"/>
<path fill-rule="evenodd" clip-rule="evenodd" d="M37.2177 106.825C34.8 106.825 31.9958 107.873 30.7356 110.459C29.4736 113.045 29.7554 117.168 32.2068 119.439C34.6599 121.71 39.2844 122.129 42.124 120.837C44.9618 119.545 46.0129 116.539 45.9792 114.268C45.9437 111.997 44.8235 110.459 43.246 109.167C41.6684 107.875 39.6371 106.827 37.2194 106.827L37.2177 106.825Z" fill="black"/>
<path fill-rule="evenodd" clip-rule="evenodd" d="M95.0071 110.289C94.7607 111.205 94.7607 112.804 95.0071 113.948C95.2534 115.091 95.7444 115.777 96.2035 116.088C96.6626 116.399 97.088 116.334 97.2688 115.565C97.4496 114.798 97.384 113.327 97.3344 112.216C97.2847 111.106 97.2528 110.355 97.072 109.863C96.8912 109.374 96.5633 109.144 96.1539 109.144C95.7444 109.144 95.2534 109.372 95.0071 110.288V110.289Z" fill="black"/>
<path fill-rule="evenodd" clip-rule="evenodd" d="M115.27 110.595C115.024 111.511 115.024 113.11 115.27 114.253C115.517 115.397 116.008 116.083 116.467 116.394C116.926 116.705 117.351 116.639 117.532 115.871C117.713 115.104 117.647 113.633 117.598 112.522C117.548 111.412 117.516 110.661 117.335 110.169C117.154 109.68 116.826 109.45 116.417 109.45C116.008 109.45 115.517 109.678 115.27 110.593V110.595Z" fill="black"/>
<path fill-rule="evenodd" clip-rule="evenodd" d="M100.192 268.301C100.512 267.484 100.901 267.267 102.038 267.209C101.358 266.772 100.61 266.258 100.149 265.857C99.2415 265.067 99.2202 265.069 98.3605 264.107C97.8571 263.543 97.2793 262.646 96.9035 261.993C96.3274 260.997 95.8542 259.897 95.4093 258.761C94.4964 256.432 93.8707 253.795 93.4028 251.319C93.0607 249.511 92.7611 246.941 92.5892 245.031C92.5733 244.854 92.5998 244.771 92.5289 244.748H92.3925C92.3676 244.752 92.3393 244.755 92.3092 244.76L90.6519 244.909L91.1127 249.203C91.1553 249.529 91.2155 249.903 91.2634 250.243C91.6285 252.909 92.4811 256.34 93.3957 258.876C93.6102 259.471 93.8353 260.03 94.0728 260.61C94.3298 261.241 94.9254 262.449 95.2551 262.997C95.3331 263.126 95.388 263.231 95.4678 263.363C95.5529 263.504 95.6184 263.602 95.7017 263.741C95.9003 264.077 96.6678 265.134 96.9602 265.441C97.4087 265.91 97.9227 266.535 98.4686 266.956L99.1174 267.499C99.4719 267.785 99.8299 268.05 100.193 268.303L100.192 268.301ZM215.086 273.271C216.07 273.212 216.989 273.158 217.835 273.106L215.669 273.209C215.483 273.23 215.316 273.235 215.084 273.235V273.271H215.086ZM224.154 272.947C225.482 273.131 226.054 273.677 226.331 274.935C226.407 274.935 226.483 274.935 226.554 274.941C227.284 275.001 228.036 275.011 228.777 275.07C230.599 275.213 232.272 275.402 234.073 275.637C236.542 275.961 238.983 276.323 241.447 276.636C241.893 275.292 243.012 275.291 246.277 275.291H250.173V275.261C249.421 275.261 248.558 275.301 247.821 275.261L245.598 275.132C244.135 275.063 242.732 274.833 241.346 274.681C240.146 274.55 238.398 274.283 237.212 274.112C236.51 274.011 235.853 273.926 235.145 273.827L229.851 273.226L227.103 273.043C226.857 273.044 226.74 273.009 226.524 273.009L224.815 272.979C224.576 272.979 224.477 272.945 224.235 272.945H224.152L224.154 272.947Z" fill="white"/>
<path fill-rule="evenodd" clip-rule="evenodd" d="M44.6621 374.753C44.7667 375.121 44.9262 375.434 45.1283 375.704C45.3924 375.411 45.6636 375.138 45.871 374.903C46.0925 374.652 46.3584 374.416 46.603 374.175L48.9108 371.491C49.0438 371.323 49.143 371.24 49.2423 371.091C49.1342 370.93 48.6893 370.603 48.5102 370.483C48.2532 370.655 48.0228 371.033 47.7941 371.289L46.3903 372.931C46.1138 373.203 45.9383 373.442 45.6565 373.719C45.3764 373.998 45.0184 374.355 44.6621 374.753ZM47.1472 377.026L47.2287 376.985C47.9023 376.653 48.4978 376.176 49.0136 375.663C49.7847 374.895 51.6405 372.519 51.8674 372.367C52.0358 372.411 52.5179 372.852 52.5994 372.975C52.5037 373.118 52.3158 373.334 52.1882 373.477C52.0535 373.627 51.9205 373.788 51.7982 373.938C50.6674 375.329 49.8662 376.459 48.4801 377.397C48.2727 377.353 48.0671 377.302 47.8633 377.245C47.6222 377.18 47.3829 377.107 47.1489 377.026H47.1472ZM93.906 382.001C94.0266 382.399 94.1914 382.755 94.397 383.075C94.8295 382.388 95.3896 381.626 95.5775 381.377L96.563 380.11C96.7474 379.866 96.8856 379.705 97.0611 379.451C97.2153 379.228 97.444 379.003 97.5131 378.745C97.2437 378.565 96.992 378.38 96.719 378.199C96.0384 379.212 95.3772 379.926 94.8632 380.665L94.0709 381.759C94.023 381.828 93.9681 381.909 93.906 381.999V382.001ZM97.4883 384.936C97.7967 384.761 98.0023 384.487 98.2895 384.201C99.8191 382.678 101.168 380.023 101.416 379.841C101.565 379.88 101.673 379.961 101.817 380.05C101.976 380.147 102.058 380.188 102.208 380.267C102.146 380.532 101.859 380.939 101.718 381.176C100.695 382.876 100.2 383.671 98.9063 384.981C98.4135 385.018 97.9367 385.002 97.4865 384.936H97.4883ZM223.099 379.085C223.404 379.389 223.755 379.588 224.134 379.709C224.003 378.36 224.078 377.19 224.379 375.768C224.439 375.483 224.507 375.324 224.507 374.983C224.205 374.958 223.913 374.827 223.592 374.801C223.386 375.227 223.104 377.081 223.104 377.717C223.104 378.129 223.094 378.602 223.103 379.087L223.099 379.085ZM226.547 379.695C226.875 379.624 227.204 379.532 227.532 379.414C227.577 378.745 227.688 378.21 227.977 376.86C228.128 376.153 228.371 375.487 228.532 374.799C228.223 374.774 227.862 374.628 227.555 374.555L227.128 376.135C226.74 377.595 226.598 378.509 226.547 379.695ZM267.843 375.951C268.117 376.319 268.447 376.589 268.81 376.778C268.819 374.999 269.457 372.731 269.807 371.664C269.886 371.422 269.932 371.169 270.028 370.973C269.853 370.932 269.192 370.736 269.052 370.669C269.032 370.902 268.929 371.114 268.869 371.337C268.798 371.591 268.74 371.759 268.66 372.04C268.378 373.03 267.969 374.513 267.843 375.951ZM271.223 376.872C271.558 376.759 271.914 376.596 272.292 376.381C272.313 376.13 272.334 375.904 272.357 375.722C272.464 374.841 272.675 373.875 272.871 373.014C273.111 371.961 273.552 370.869 273.628 370.547C273.382 370.416 273.013 370.252 272.714 370.183L272.34 371.208C272.226 371.545 272.127 371.911 272.031 372.298C271.845 373.044 271.673 373.808 271.521 374.645C271.386 375.381 271.304 376.126 271.225 376.874L271.223 376.872Z" fill="black"/>
<path fill-rule="evenodd" clip-rule="evenodd" d="M129.544 98.8602C129.644 95.3379 129.869 91.8775 130.363 87.051C130.858 82.2245 131.62 76.0301 132.143 71.5976C132.666 67.1652 132.948 64.4931 133.259 62.8548C133.57 61.2147 133.91 60.6085 134.249 61.5487C134.587 62.4889 134.927 64.9791 135.266 67.8633C135.605 70.7476 135.945 74.0259 136.057 77.5181C136.17 81.0103 136.056 84.7128 135.915 89.0251C135.773 93.3355 135.605 98.254 135.463 102.352L135.355 105.491C134.883 104.899 134.376 104.275 133.781 103.644C132.862 102.672 131.732 101.686 130.574 100.855C130.218 100.601 129.86 100.361 129.514 100.133C129.523 99.7102 129.532 99.2861 129.544 98.8619V98.8602Z" fill="black"/>
<path fill-rule="evenodd" clip-rule="evenodd" d="M91.937 134.141C92.4457 134.259 92.7967 134.371 93.0643 134.454C93.4809 134.581 93.6989 134.638 93.9417 134.858C97.7384 132.75 99.0359 128.798 100.119 126.944C100.601 126.119 100.718 126.262 99.0749 125.679C98.7311 126.957 96.0687 131.718 94.2679 132.943C93.6528 133.36 92.7063 133.791 91.937 134.143V134.141Z" fill="black"/>
</g>
<g clip-path="url(#clip1_35_593)">
<path d="M175.599 42.5468C173.532 40.331 169.383 40.6218 168.26 43.6825C167.781 44.9843 167.959 46.5769 168.794 47.6987C169.643 48.8482 171.053 49.2775 172.422 48.9451C173.901 48.585 175.092 47.394 175.27 45.8429C175.311 45.4967 174.791 45.2751 174.558 45.5521C172.464 48.1003 172.915 52.5736 176.284 53.7369C177.708 54.2355 179.419 54.0139 180.624 53.0722C181.829 52.1304 182.267 50.6209 181.925 49.1529C181.555 47.5325 180.295 46.203 178.625 46.0368C178.091 45.9814 178.105 46.8262 178.625 46.8678C180.117 47.0201 181.131 48.5158 181.213 49.9423C181.309 51.6041 180.076 52.8367 178.502 53.0999C176.872 53.3768 175.243 52.629 174.504 51.1194C173.723 49.5268 174.024 47.491 175.133 46.1338L174.421 45.8429C174.271 47.214 172.915 48.1557 171.615 48.225C170.109 48.2942 169.027 47.117 168.835 45.6767C168.643 44.1949 169.355 42.713 170.779 42.1591C172.217 41.5913 173.929 42.0067 174.983 43.1424C175.353 43.5301 175.928 42.9485 175.572 42.5468H175.599Z" fill="#195974"/>
<path d="M175.407 42.5052C179.83 38.669 184.115 34.6666 188.25 30.4981C188.634 30.1241 188.045 29.5286 187.662 29.9026C183.527 34.0573 179.241 38.0597 174.819 41.9097C174.408 42.2559 174.997 42.8515 175.407 42.5052Z" fill="#195974"/>
<path d="M179.556 46.743C183.102 43.0453 186.648 39.3338 190.194 35.6361C190.564 35.2483 189.975 34.6528 189.606 35.0406C186.059 38.7383 182.513 42.4498 178.967 46.1475C178.597 46.5353 179.186 47.1308 179.556 46.743Z" fill="#195974"/>
<path d="M189.757 33.7942C189.346 34.9437 190.058 36.2039 191.126 36.6886C192.372 37.2565 193.81 36.6748 194.727 35.7469C195.726 34.7359 196.274 33.2125 195.877 31.8138C195.521 30.5258 194.494 29.2517 193.207 28.8085C191.92 28.3653 190.345 28.9885 189.976 30.3735C190.25 30.415 190.523 30.4427 190.784 30.4842C190.619 28.9055 190.373 27.202 189.209 26.0248C188.223 25.0139 186.731 24.6261 185.485 25.4016C184.348 26.1079 183.719 27.4651 183.979 28.7947C184.239 30.2073 185.348 31.2875 186.662 31.7445C187.169 31.9246 187.388 31.1075 186.881 30.9413C185.896 30.595 185.06 29.7779 184.814 28.7393C184.567 27.6867 185.101 26.565 186.046 26.0525C187.073 25.5124 188.182 26.0248 188.853 26.8696C189.661 27.8806 189.825 29.2517 189.962 30.4842C190.003 30.9274 190.647 31.0798 190.77 30.595C191.112 29.2655 192.714 29.3071 193.618 29.958C194.658 30.7197 195.384 32.1046 195.083 33.4064C194.809 34.6251 193.81 35.7884 192.55 36.0239C191.413 36.2455 190.085 35.2483 190.523 34.0019C190.701 33.4895 189.907 33.2679 189.729 33.7803L189.757 33.7942Z" fill="#195974"/>
</g>
<g clip-path="url(#clip2_35_593)">
<path d="M8.72444 227.772C6.9009 225.79 7.18792 222.592 4.49985 221.23C2.13654 220.031 0.102963 222.128 0.266761 224.418C0.389379 225.863 1.09518 227.229 1.71118 228.524C2.41531 229.995 3.19244 231.45 4.02494 232.854C5.6894 235.696 7.53761 238.417 9.404 241.139C9.63506 241.477 10.1078 241.484 10.3494 241.154C13.5285 236.77 16.8205 232.141 17.344 226.642C17.4731 225.377 17.4205 224.109 17.2036 222.874C17.0024 221.797 16.7114 220.649 15.7772 219.93C14.2144 218.709 11.9163 219.13 10.5148 220.357C8.26504 222.328 8.19675 225.494 7.40958 228.121C7.21719 228.787 8.26722 229.085 8.45961 228.419C9.19029 225.915 9.20933 222.413 11.6902 220.781C12.6274 220.162 13.9756 220.007 14.9655 220.657C16.1896 221.45 16.2644 223.616 16.2989 224.883C16.4593 230.833 12.7777 235.948 9.39417 240.611L10.3396 240.626C7.33578 236.232 4.33254 231.803 2.1723 226.965C1.6279 225.742 0.941957 224.271 1.5628 222.961C2.23986 221.546 3.76316 221.817 4.74862 222.747C6.39704 224.304 6.35695 226.837 7.89461 228.498C8.35924 229.016 9.15298 228.272 8.68836 227.754L8.72444 227.772Z" fill="#C458F0"/>
</g>
<g clip-path="url(#clip3_35_593)">
<path d="M21.8153 5.82587C21.4194 4.06769 20.3489 2.49105 18.9093 1.42202C16.7415 -0.191606 13.567 -0.500885 11.171 0.850527C8.97306 2.091 7.47977 4.43412 7.09051 6.90835C7.07709 6.98231 7.06702 7.05963 7.05695 7.13358C6.86232 8.63963 7.13414 10.1995 7.93279 11.5005C8.66098 12.6838 9.76501 13.6183 11.0234 14.1966C13.614 15.39 16.9059 15.3328 19.1979 13.5175C21.4462 11.7391 22.4328 8.59929 21.812 5.82924L21.8153 5.82587ZM19.208 12.0988C15.8086 15.7497 8.37575 13.7091 8.05024 8.46819C7.92944 6.48141 8.71803 4.45765 10.0402 2.98858C12.0939 0.712697 15.4127 0.272311 17.9731 2.0036C19.1274 2.78352 20.0704 3.92314 20.5637 5.23757C21.4227 7.53699 20.8825 10.3003 19.208 12.0988Z" fill="#FAAB37"/>
<path d="M10.4897 1.38504C10.0836 2.01368 9.59034 2.64904 9.51987 3.41888C9.45946 4.0845 9.78832 4.71986 10.2581 5.17033C11.3387 6.20238 12.9259 6.37047 14.2212 7.00583C14.8152 7.2983 15.3621 7.69499 15.7111 8.26648C16.0501 8.82452 16.0769 9.39938 15.8554 10.0079C15.4326 11.171 14.3655 11.877 13.2313 12.2367C12.0769 12.6031 10.691 12.7813 9.59034 12.156C9.2145 11.9442 8.8655 12.4283 9.14067 12.7376C9.99638 13.699 11.5333 13.5881 12.6742 13.3561C13.9226 13.1006 15.1877 12.5594 16.0132 11.5542C16.9393 10.4213 17.295 8.89848 16.4091 7.63111C15.4729 6.29315 13.9225 5.88302 12.4695 5.35187C11.7816 5.09974 10.9595 4.77365 10.5668 4.10803C10.0937 3.30794 10.8051 2.47423 11.2145 1.80861C11.4997 1.3447 10.7783 0.927842 10.4863 1.38167L10.4897 1.38504Z" fill="#FAAB37"/>
</g>
<defs>
<clipPath id="clip0_35_593">
<rect width="310" height="333" fill="white" transform="translate(30 52)"/>
</clipPath>
<clipPath id="clip1_35_593">
<rect width="28" height="29" fill="white" transform="translate(168 25)"/>
</clipPath>
<clipPath id="clip2_35_593">
<rect width="17.183" height="22.2743" fill="white" transform="translate(0.352539 219) rotate(0.906628)"/>
</clipPath>
<clipPath id="clip3_35_593">
<rect width="15" height="15" fill="white" transform="translate(7)"/>
</clipPath>
</defs>
</svg>
