<?xml version="1.0" encoding="UTF-8"?><svg xmlns="http://www.w3.org/2000/svg" xmlns:xlink="http://www.w3.org/1999/xlink" viewBox="0 0 170 170"><defs><style>.e{fill:#f9b44d;}.f{fill:#191009;}.g{fill:#e3e1e2;}.h{fill:#3e3d42;}.i{clip-path:url(#d);}.j{fill:none;}.k{fill:#434345;}.l{fill:#4e4741;}.m{fill:#fcfcfc;}</style><clipPath id="d"><path class="j" d="M170,85C170,38.06,131.94,0,85,0S0,38.06,0,85s38.05,85,85,85,85-38.06,85-85Z"/></clipPath></defs><g id="a"/><g id="b"><g id="c"><g><path class="e" d="M170,85C170,38.06,131.94,0,85,0S0,38.06,0,85s38.05,85,85,85,85-38.06,85-85Z"/><g class="i"><g><path class="f" d="M85,116.45c-28.12,0-50.91,23.98-50.91,53.56h101.83c0-29.58-22.79-53.56-50.92-53.56Z"/><polygon class="k" points="62.6 120.99 85 170 109.12 122.83 124.1 126.01 110.45 140.47 118.43 143.22 85 170 59.74 149.53 65.99 143.22 50.62 127.79 62.6 120.99"/><path class="f" d="M65.99,53.01c0-5.37-4.35-9.72-9.72-9.72s-9.72,4.35-9.72,9.72,4.35,9.72,9.72,9.72,9.72-4.35,9.72-9.72Z"/><path class="f" d="M123.31,53.01c0-5.37-4.35-9.72-9.72-9.72s-9.72,4.35-9.72,9.72,4.35,9.72,9.72,9.72,9.72-4.35,9.72-9.72Z"/><path class="h" d="M118.43,54.63c0-3.57-2.89-6.47-6.47-6.47s-6.47,2.89-6.47,6.47,2.89,6.47,6.47,6.47,6.47-2.89,6.47-6.47Z"/><path class="h" d="M63.94,54.63c0-3.57-2.89-6.47-6.47-6.47s-6.47,2.89-6.47,6.47,2.89,6.47,6.47,6.47,6.47-2.89,6.47-6.47Z"/><path class="m" d="M126.58,88.83c0-23-18.65-41.65-41.65-41.65s-41.65,18.65-41.65,41.65,18.65,41.65,41.65,41.65,41.65-18.65,41.65-41.65Z"/><g><path class="f" d="M82.33,86.95c2.94-7.03-3.88-15.81-12.79-14.19-8.9,1.62-18.61,20.88-12.95,26.7,5.66,5.83,21.69-2.85,25.73-12.51Z"/><path class="l" d="M75.7,85.17c0-2.03-1.64-3.67-3.67-3.67s-3.67,1.64-3.67,3.67,1.64,3.67,3.67,3.67,3.67-1.64,3.67-3.67Z"/><path class="g" d="M73.82,85.17c0-.99-.8-1.79-1.79-1.79s-1.79,.8-1.79,1.79,.8,1.79,1.79,1.79,1.79-.8,1.79-1.79Z"/></g><g><path class="f" d="M87.41,86.95c-2.94-7.03,3.88-15.81,12.79-14.19,8.9,1.62,18.61,20.88,12.95,26.7-5.66,5.83-21.69-2.85-25.73-12.51Z"/><path class="l" d="M94.05,85.17c0-2.03,1.64-3.67,3.67-3.67s3.67,1.64,3.67,3.67-1.64,3.67-3.67,3.67-3.67-1.64-3.67-3.67Z"/><path class="g" d="M95.93,85.17c0-.99,.8-1.79,1.79-1.79s1.79,.8,1.79,1.79-.8,1.79-1.79,1.79-1.79-.8-1.79-1.79Z"/></g><path class="f" d="M87.57,102.08c3.13,0,4.11,2.01,2.18,4.47l-1.24,1.58c-1.93,2.46-5.09,2.46-7.02,0l-1.24-1.58c-1.93-2.46-.95-4.47,2.17-4.47h5.15Z"/><path class="f" d="M75.41,112.4s5.42,1.7,9.47-2.43c3.56,2.83,5.83,3.66,9.71,1.39-3.97,4.36-8.45,3.01-9.83,2.68-3.07,.81-8.54,.62-9.35-1.64Z"/><path class="k" d="M87.73,141.85c0-1.5-1.22-2.72-2.72-2.72s-2.73,1.22-2.73,2.72,1.22,2.72,2.73,2.72,2.72-1.22,2.72-2.72Z"/><path class="k" d="M87.73,151.28c0-1.5-1.22-2.72-2.72-2.72s-2.73,1.22-2.73,2.72,1.22,2.72,2.73,2.72,2.72-1.22,2.72-2.72Z"/></g></g></g></g></g></svg>